<svg width="32" height="32" viewBox="0 0 32 32" fill="none" xmlns="http://www.w3.org/2000/svg">
<path fill-rule="evenodd" clip-rule="evenodd" d="M27.9124 27.9124C24.9358 30.8889 20.736 32 16 32V25C19.764 25 21.8142 24.1111 22.9626 22.9626C24.1111 21.8142 25 19.764 25 16H32C32 20.736 30.8889 24.9358 27.9124 27.9124Z" fill="#FFA700"/>
<path fill-rule="evenodd" clip-rule="evenodd" d="M4.08763 4.08763C7.06416 1.1111 11.264 -3.99216e-07 16 0V7C12.236 7 10.1858 7.8889 9.03737 9.03737C7.88891 10.1858 7 12.236 7 16L0 16C3.99216e-07 11.264 1.1111 7.06416 4.08763 4.08763Z" fill="#FFA700"/>
</svg>
