<svg width="217" height="217" viewBox="0 0 217 217" fill="none" xmlns="http://www.w3.org/2000/svg">
<path d="M216.365 36.1825C216.365 59.1656 203.166 72.3651 180.183 72.3651C157.199 72.3651 144 59.1656 144 36.1825C144 13.1995 157.199 0 180.183 0C203.166 0 216.365 13.1995 216.365 36.1825Z" fill="black"/>
<path d="M72.3651 36.1825C72.3651 59.1656 59.1656 72.3651 36.1825 72.3651C13.1995 72.3651 0 59.1656 0 36.1825C0 13.1995 13.1995 0 36.1825 0C59.1656 0 72.3651 13.1995 72.3651 36.1825Z" fill="black"/>
<path d="M144.365 108.183C144.365 131.166 131.166 144.365 108.183 144.365C85.1995 144.365 72 131.166 72 108.183C72 85.1995 85.1995 72 108.183 72C131.166 72 144.365 85.1995 144.365 108.183Z" fill="black"/>
<path d="M216.365 180.183C216.365 203.166 203.166 216.365 180.183 216.365C157.199 216.365 144 203.166 144 180.183C144 157.199 157.199 144 180.183 144C203.166 144 216.365 157.199 216.365 180.183Z" fill="black"/>
<path d="M72.3651 180.183C72.3651 203.166 59.1656 216.365 36.1825 216.365C13.1995 216.365 0 203.166 0 180.183C0 157.199 13.1995 144 36.1825 144C59.1656 144 72.3651 157.199 72.3651 180.183Z" fill="black"/>
</svg>
