<?xml version="1.0" encoding="UTF-8"?>
<svg xmlns="http://www.w3.org/2000/svg" xmlns:xlink="http://www.w3.org/1999/xlink" version="1.2" >
<font id="LFT Etica Mono">
<font-face  font-family="LFT Etica Mono" units-per-em="1000" ascent="720" descent="-280" font-style="normal" font-weight="400" font-stretch="normal" cap-height="720" x-height="525" underline-position="-201" underline-thickness="61" />
<missing-glyph  horiz-adv-x="620" d="" />
<glyph glyph-name="NULL" horiz-adv-x="620" d="" />
<glyph glyph-name="CR" unicode="&#xd;" horiz-adv-x="620" d="" />
<glyph glyph-name="space" unicode="&#x20;" horiz-adv-x="620" d="" />
<glyph glyph-name="exclam" unicode="&#x21;" horiz-adv-x="620" d="M265 480 L275 202 L348 202 L358 480 L358 720 L265 720 L265 480 Z M310 -12 C346 -12 371 11 371 46 C371 82 346 104 310 104 C274 104 250 82 250 45 C250 11 273 -12 310 -12 L310 -12 Z " />
<glyph glyph-name="quotedbl" unicode="&#x22;" horiz-adv-x="620" d="M348 720 L348 441 L415 441 L415 720 L348 720 Z M205 720 L205 441 L272 441 L272 720 L205 720 Z " />
<glyph glyph-name="numbersign" unicode="&#x23;" horiz-adv-x="620" d="M88 26 L144 13 L199 190 L349 190 L298 26 L354 13 L409 190 L539 190 L539 251 L428 251 L471 386 L594 386 L594 447 L490 447 L546 627 L489 640 L429 447 L278 447 L334 627 L278 640 L218 447 L85 447 L85 386 L199 386 L158 251 L29 251 L29 190 L139 190 L88 26 Z M218 251 L259 386 L410 386 L368 251 L218 251 Z " />
<glyph glyph-name="dollar" unicode="&#x24;" horiz-adv-x="620" d="M284 0 L284 -87 L353 -87 L353 0 C458 12 537 82 537 187 C537 284 484 339 351 382 C243 417 191 440 191 512 C191 578 248 612 323 612 C379 612 437 586 485 539 L531 588 C488 640 425 672 353 678 L353 763 L285 763 L285 679 C182 669 104 607 104 503 C104 403 157 354 294 312 C416 275 449 239 449 178 C449 106 389 68 310 68 C246 68 185 101 128 152 L81 99 C128 48 198 6 284 0 L284 0 Z " />
<glyph glyph-name="percent" unicode="&#x25;" horiz-adv-x="620" d="M175 412 C261 412 329 478 329 565 C329 658 262 718 175 718 C87 718 20 653 20 564 C20 470 86 412 175 412 L175 412 Z M204 326 L20 0 L93 0 L276 326 L204 326 Z M446 -4 C532 -4 600 61 600 149 C600 238 533 302 446 302 C358 302 291 237 291 148 C291 56 358 -4 446 -4 L446 -4 Z M446 54 C392 54 356 94 356 148 C356 200 392 243 446 243 C498 243 535 200 535 149 C535 96 498 54 446 54 L446 54 Z M175 471 C122 471 84 508 84 564 C84 617 122 659 175 659 C227 659 265 619 265 564 C265 511 227 471 175 471 L175 471 Z M518 720 L342 391 L415 391 L591 720 L518 720 Z " />
<glyph glyph-name="ampersand" unicode="&#x26;" horiz-adv-x="620" d="M258 -13 C336 -13 399 20 451 83 L520 -6 L582 42 L421 249 L547 351 L502 406 L376 306 L299 406 C387 461 428 517 428 586 C428 675 361 733 279 733 C183 733 120 667 120 578 C120 525 134 491 189 419 C91 357 50 283 50 193 C50 72 137 -13 258 -13 L258 -13 Z M199 583 C199 632 232 668 277 668 C321 668 354 630 354 584 C354 538 331 503 259 457 C210 519 199 547 199 583 L199 583 Z M131 197 C131 266 159 321 230 365 L408 138 C364 83 317 60 264 60 C181 60 131 127 131 197 L131 197 Z " />
<glyph glyph-name="quotesingle" unicode="&#x27;" horiz-adv-x="620" d="M277 720 L277 441 L344 441 L344 720 L277 720 Z " />
<glyph glyph-name="parenleft" unicode="&#x28;" horiz-adv-x="620" d="M388 -127 L450 -93 C325 23 268 157 268 303 C268 449 325 584 450 700 L388 733 C254 622 182 471 182 303 C182 136 254 -15 388 -127 L388 -127 Z " />
<glyph glyph-name="parenright" unicode="&#x29;" horiz-adv-x="620" d="M170 700 C295 584 352 449 352 303 C352 157 295 23 170 -93 L232 -127 C366 -15 438 136 438 303 C438 471 366 622 232 733 L170 700 Z " />
<glyph glyph-name="asterisk" unicode="&#x2a;" horiz-adv-x="620" d="M187 445 L222 418 L310 516 L396 418 L430 444 L362 549 L470 591 L456 632 L340 605 L330 720 L288 720 L278 604 L164 631 L150 590 L258 549 L187 445 Z " />
<glyph glyph-name="plus" unicode="&#x2b;" horiz-adv-x="620" d="M278 268 L278 61 L344 61 L344 268 L540 268 L540 331 L344 331 L344 539 L278 539 L278 331 L80 331 L80 268 L278 268 Z " />
<glyph glyph-name="comma" unicode="&#x2c;" horiz-adv-x="620" d="M245 -106 L262 -140 C346 -104 379 -45 379 23 C379 64 358 103 308 103 C271 103 244 79 244 45 C244 16 263 -9 296 -9 C307 -9 317 -5 325 1 C324 -45 302 -75 245 -106 L245 -106 Z " />
<glyph glyph-name="hyphen" unicode="&#x2d;" horiz-adv-x="620" d="M157 314 L157 242 L464 242 L464 314 L157 314 Z " />
<glyph glyph-name="period" unicode="&#x2e;" horiz-adv-x="620" d="M309 -12 C345 -12 370 11 370 46 C370 82 345 104 309 104 C273 104 249 82 249 45 C249 11 272 -12 309 -12 L309 -12 Z " />
<glyph glyph-name="slash" unicode="&#x2f;" horiz-adv-x="620" d="M393 739 L150 -92 L225 -92 L470 739 L393 739 Z " />
<glyph glyph-name="zero" unicode="0" horiz-adv-x="620" d="M308 -12 C463 -12 551 105 551 357 C551 602 465 720 311 720 C157 720 69 602 69 353 C69 105 154 -12 308 -12 L308 -12 Z M157 354 C157 552 209 644 310 644 C353 644 386 628 411 595 L175 187 C163 230 157 286 157 354 L157 354 Z M310 64 C267 64 232 81 207 116 L444 526 C457 482 463 425 463 355 C463 154 411 64 310 64 L310 64 Z " />
<glyph glyph-name="one" unicode="1" horiz-adv-x="620" d="M89 68 L89 0 L567 0 L567 68 L374 68 L374 709 L309 709 L64 589 L80 522 L288 613 L288 68 L89 68 Z " />
<glyph glyph-name="two" unicode="2" horiz-adv-x="620" d="M108 58 L108 0 L548 0 L548 75 L224 75 L447 348 C503 416 528 463 528 541 C528 656 439 720 318 720 C218 720 133 676 73 617 L115 560 C172 608 234 640 306 640 C390 640 437 597 437 530 C437 480 418 440 372 383 L108 58 Z " />
<glyph glyph-name="three" unicode="3" horiz-adv-x="620" d="M333 -12 C468 -12 572 59 572 195 C572 296 511 366 384 375 C482 399 535 470 535 550 C535 658 455 720 332 720 C250 720 172 691 118 651 L153 593 C199 627 270 644 320 644 C383 644 448 609 448 537 C448 455 350 402 254 399 L257 324 C263 325 303 327 317 327 C428 327 485 281 485 197 C485 117 421 65 328 65 C261 65 186 93 131 143 L90 84 C159 14 253 -12 333 -12 L333 -12 Z " />
<glyph glyph-name="four" unicode="4" horiz-adv-x="620" d="M393 166 L393 0 L478 0 L478 166 L575 166 L575 239 L478 239 L478 573 L393 573 L393 239 L154 239 L363 709 L280 709 L68 233 L68 166 L393 166 Z " />
<glyph glyph-name="five" unicode="5" horiz-adv-x="620" d="M307 -12 C449 -12 551 68 551 229 C551 361 484 443 345 443 C268 443 215 419 188 392 L210 629 L508 629 L513 709 L141 709 L107 272 L178 272 L182 320 C210 349 252 375 329 375 C422 375 465 311 465 225 C465 113 396 64 299 64 C234 64 182 84 123 118 L90 54 C153 9 233 -12 307 -12 L307 -12 Z " />
<glyph glyph-name="six" unicode="6" horiz-adv-x="620" d="M315 -12 C455 -12 543 67 543 223 C543 349 480 441 344 441 C266 441 203 406 161 365 C170 509 208 646 353 646 C398 646 444 634 485 604 L518 662 C471 701 404 720 347 720 C177 720 78 584 78 306 C78 103 151 -12 315 -12 L315 -12 Z M318 64 C219 64 163 130 163 295 C190 322 250 370 322 370 C399 370 459 325 459 218 C459 108 399 64 318 64 L318 64 Z " />
<glyph glyph-name="seven" unicode="7" horiz-adv-x="620" d="M178 10 L178 0 L272 0 L545 650 L545 709 L101 709 L101 629 L446 629 L178 10 Z " />
<glyph glyph-name="eight" unicode="8" horiz-adv-x="620" d="M303 -12 C452 -12 546 65 546 193 C546 284 495 341 398 385 C466 420 519 481 519 558 C519 659 439 720 312 720 C184 720 100 652 100 545 C100 466 145 411 222 379 C136 342 74 275 74 176 C74 58 154 -12 303 -12 L303 -12 Z M306 60 C208 60 156 109 156 180 C156 266 217 313 291 343 C374 317 455 274 455 191 C455 112 400 60 306 60 L306 60 Z M320 419 C246 444 189 483 189 547 C189 615 236 653 313 653 C392 653 436 617 436 554 C436 490 377 443 320 419 L320 419 Z " />
<glyph glyph-name="nine" unicode="9" horiz-adv-x="620" d="M308 728 C168 728 80 649 80 493 C80 367 143 275 279 275 C357 275 420 310 462 351 C453 207 415 70 270 70 C225 70 179 82 138 112 L105 54 C152 15 219 -4 276 -4 C446 -4 545 132 545 410 C545 613 472 728 308 728 L308 728 Z M305 652 C404 652 460 586 460 421 C433 394 373 346 301 346 C224 346 164 391 164 498 C164 608 224 652 305 652 L305 652 Z " />
<glyph glyph-name="colon" unicode="&#x3a;" horiz-adv-x="620" d="M309 -12 C345 -12 370 11 370 46 C370 82 345 104 309 104 C273 104 249 82 249 45 C249 11 272 -12 309 -12 L309 -12 Z M308 362 C344 362 369 385 369 420 C369 456 344 478 308 478 C272 478 248 456 248 419 C248 385 271 362 308 362 L308 362 Z " />
<glyph glyph-name="semicolon" unicode="&#x3b;" horiz-adv-x="620" d="M244 -106 L261 -140 C345 -104 378 -45 378 23 C378 64 357 103 307 103 C270 103 243 79 243 45 C243 16 262 -9 295 -9 C306 -9 316 -5 324 1 C323 -45 301 -75 244 -106 L244 -106 Z M313 362 C349 362 374 385 374 420 C374 456 349 478 313 478 C277 478 253 456 253 419 C253 385 276 362 313 362 L313 362 Z " />
<glyph glyph-name="less" unicode="&#x3c;" horiz-adv-x="620" d="M69 276 L512 71 L535 130 L169 298 L535 467 L512 526 L69 320 L69 276 Z " />
<glyph glyph-name="equal" unicode="&#x3d;" horiz-adv-x="620" d="M80 395 L80 333 L540 333 L540 395 L80 395 Z M80 232 L80 171 L540 171 L540 232 L80 232 Z " />
<glyph glyph-name="greater" unicode="&#x3e;" horiz-adv-x="620" d="M551 320 L108 526 L85 467 L451 298 L85 130 L108 71 L551 276 L551 320 Z " />
<glyph glyph-name="question" unicode="&#x3f;" horiz-adv-x="620" d="M264 228 L264 202 L348 202 L348 225 C348 360 525 398 525 555 C525 669 434 732 320 732 C178 732 94 656 94 515 L178 515 C178 604 228 655 310 655 C390 655 432 612 432 543 C432 426 264 391 264 228 L264 228 Z M306 -12 C340 -12 364 10 364 45 C364 80 339 101 306 101 C271 101 247 80 247 44 C247 10 271 -12 306 -12 L306 -12 Z " />
<glyph glyph-name="at" unicode="&#x40;" horiz-adv-x="620" d="M352 -161 C429 -161 495 -143 555 -105 L529 -57 C479 -88 418 -102 351 -102 C213 -102 102 5 102 231 C102 452 197 583 338 583 C451 583 517 516 517 414 L517 391 C489 420 444 440 404 440 C301 440 231 364 231 218 C231 72 311 16 394 16 C441 16 482 32 519 76 L519 28 L580 28 L580 416 C580 555 492 642 339 642 C157 642 36 482 36 229 C36 -31 169 -161 352 -161 L352 -161 Z M408 73 C350 73 300 118 300 221 C300 329 349 382 410 382 C448 382 487 364 516 331 L516 126 C481 89 445 73 408 73 L408 73 Z " />
<glyph glyph-name="A" unicode="A" horiz-adv-x="620" d="M255 720 L43 0 L141 0 L194 198 L417 198 L469 0 L569 0 L358 720 L255 720 Z M304 614 L308 614 L397 273 L213 273 L304 614 Z " />
<glyph glyph-name="B" unicode="B" horiz-adv-x="620" d="M80 720 L80 0 L301 0 C450 0 564 51 564 205 C564 277 521 366 399 377 L399 379 C492 392 530 470 530 540 C530 655 456 720 306 720 L80 720 Z M314 75 L171 75 L171 336 L305 336 C399 336 469 304 469 212 C469 131 416 75 314 75 L314 75 Z M276 408 L171 408 L171 645 L289 645 C380 645 437 616 437 532 C437 431 357 408 276 408 L276 408 Z " />
<glyph glyph-name="C" unicode="C" horiz-adv-x="620" d="M325 -13 C410 -13 487 21 555 96 L508 158 C451 98 397 71 330 71 C216 71 149 173 149 364 C149 551 214 650 330 650 C415 650 459 580 465 502 L556 502 C552 649 452 733 331 733 C153 733 51 603 51 362 C51 118 150 -13 325 -13 L325 -13 Z " />
<glyph glyph-name="D" unicode="D" horiz-adv-x="620" d="M65 720 L65 0 L264 0 C476 0 570 119 570 359 C570 600 480 720 276 720 L65 720 Z M279 82 L157 82 L157 638 L279 638 C418 638 473 546 473 359 C473 173 418 82 279 82 L279 82 Z " />
<glyph glyph-name="E" unicode="E" horiz-adv-x="620" d="M96 720 L96 0 L550 0 L550 79 L188 79 L188 330 L511 330 L511 407 L188 407 L188 639 L543 639 L543 720 L96 720 Z " />
<glyph glyph-name="F" unicode="F" horiz-adv-x="620" d="M118 720 L118 0 L210 0 L210 322 L502 322 L502 399 L210 399 L210 640 L542 640 L542 720 L118 720 Z " />
<glyph glyph-name="G" unicode="G" horiz-adv-x="620" d="M321 -13 C408 -13 491 18 552 75 L552 368 L337 368 L337 296 L468 296 L468 119 C431 84 386 67 325 67 C212 67 146 154 146 357 C146 561 221 649 319 649 C407 649 454 588 457 511 L549 511 C544 632 482 733 320 733 C162 733 48 616 48 355 C48 107 156 -13 321 -13 L321 -13 Z " />
<glyph glyph-name="H" unicode="H" horiz-adv-x="620" d="M65 720 L65 0 L157 0 L157 332 L463 332 L463 0 L555 0 L555 720 L463 720 L463 415 L157 415 L157 720 L65 720 Z " />
<glyph glyph-name="I" unicode="I" horiz-adv-x="620" d="M112 77 L112 0 L509 0 L509 77 L356 77 L356 643 L509 643 L509 720 L112 720 L112 643 L264 643 L264 77 L112 77 Z " />
<glyph glyph-name="J" unicode="J" horiz-adv-x="620" d="M101 79 L101 0 L287 0 C412 0 482 77 482 214 L482 720 L99 720 L99 640 L389 640 L389 214 C389 127 346 79 271 79 L101 79 Z " />
<glyph glyph-name="K" unicode="K" horiz-adv-x="620" d="M99 720 L99 0 L188 0 L191 333 L296 333 L482 0 L587 0 L376 374 L577 720 L474 720 L296 410 L191 410 L191 720 L99 720 Z " />
<glyph glyph-name="L" unicode="L" horiz-adv-x="620" d="M127 720 L127 0 L556 0 L556 81 L219 81 L219 720 L127 720 Z " />
<glyph glyph-name="M" unicode="M" horiz-adv-x="620" d="M75 720 L59 0 L141 0 L150 565 L153 565 L279 141 L349 141 L474 565 L478 565 L487 0 L570 0 L553 720 L452 720 L317 255 L313 255 L177 720 L75 720 Z " />
<glyph glyph-name="N" unicode="N" horiz-adv-x="620" d="M73 720 L73 0 L163 0 L163 544 L166 544 L465 0 L547 0 L547 720 L457 720 L457 176 L455 176 L157 720 L73 720 Z " />
<glyph glyph-name="O" unicode="O" horiz-adv-x="620" d="M309 -13 C485 -13 576 117 576 368 C576 608 487 733 316 733 C137 733 44 608 44 368 C44 117 135 -13 309 -13 L309 -13 Z M314 72 C201 72 142 173 142 368 C142 553 201 649 312 649 C421 649 479 553 479 368 C479 173 422 72 314 72 L314 72 Z " />
<glyph glyph-name="P" unicode="P" horiz-adv-x="620" d="M87 720 L87 0 L179 0 L179 277 L306 277 C475 277 558 364 558 502 C558 639 479 720 317 720 L87 720 Z M302 353 L179 353 L179 638 L310 638 C416 638 464 590 464 498 C464 404 410 353 302 353 L302 353 Z " />
<glyph glyph-name="Q" unicode="Q" horiz-adv-x="620" d="M366 -5 L549 -71 L579 2 L456 45 C533 100 576 199 576 368 C576 608 487 733 316 733 C137 733 44 608 44 368 C44 117 135 -13 309 -13 C326 -13 349 -10 366 -5 L366 -5 Z M314 72 C201 72 142 173 142 368 C142 553 201 649 312 649 C421 649 479 553 479 368 C479 173 422 72 314 72 L314 72 Z " />
<glyph glyph-name="R" unicode="R" horiz-adv-x="620" d="M79 720 L79 0 L171 0 L171 282 L277 282 C304 282 326 283 347 287 L492 0 L593 0 L435 309 C517 349 553 415 553 506 C553 635 475 720 304 720 L79 720 Z M294 354 L171 354 L171 638 L301 638 C412 638 459 591 459 500 C459 406 407 354 294 354 L294 354 Z " />
<glyph glyph-name="S" unicode="S" horiz-adv-x="620" d="M313 -13 C467 -13 556 78 556 198 C556 297 509 356 358 406 L315 420 C210 454 178 487 178 543 C178 613 231 657 318 657 C380 657 447 631 500 572 L554 631 C492 700 413 733 318 733 C174 733 82 650 82 532 C82 443 135 382 262 341 L302 327 C431 285 460 252 460 187 C460 116 405 66 316 66 C249 66 183 91 111 157 L59 93 C124 26 216 -13 313 -13 L313 -13 Z " />
<glyph glyph-name="T" unicode="T" horiz-adv-x="620" d="M264 639 L264 0 L357 0 L357 639 L564 639 L564 720 L56 720 L56 639 L264 639 Z " />
<glyph glyph-name="U" unicode="U" horiz-adv-x="620" d="M310 -13 C470 -13 550 70 550 249 L550 720 L458 720 L458 257 C458 127 411 69 313 69 C209 69 164 127 164 257 L164 720 L71 720 L71 249 C71 70 151 -13 310 -13 L310 -13 Z " />
<glyph glyph-name="V" unicode="V" horiz-adv-x="620" d="M38 720 L256 0 L365 0 L582 720 L486 720 L313 100 L309 100 L135 720 L38 720 Z " />
<glyph glyph-name="W" unicode="W" horiz-adv-x="620" d="M69 720 L104 0 L207 0 L308 427 L311 427 L413 0 L514 0 L549 720 L464 720 L443 149 L438 149 L344 543 L276 543 L181 147 L177 147 L154 720 L69 720 Z " />
<glyph glyph-name="X" unicode="X" horiz-adv-x="620" d="M249 367 L41 0 L146 0 L305 293 L308 293 L468 0 L574 0 L369 361 L576 720 L471 720 L313 426 L310 426 L147 720 L47 720 L249 367 Z " />
<glyph glyph-name="Y" unicode="Y" horiz-adv-x="620" d="M261 305 L261 0 L354 0 L354 304 L580 720 L476 720 L312 387 L308 387 L146 720 L43 720 L261 305 Z " />
<glyph glyph-name="Z" unicode="Z" horiz-adv-x="620" d="M83 60 L83 0 L551 0 L551 80 L203 80 L552 681 L552 720 L88 720 L88 639 L418 639 L83 60 Z " />
<glyph glyph-name="bracketleft" unicode="&#x5b;" horiz-adv-x="620" d="M194 720 L194 -125 L427 -125 L427 -56 L279 -56 L279 651 L427 651 L427 720 L194 720 Z " />
<glyph glyph-name="backslash" unicode="&#x5c;" horiz-adv-x="620" d="M150 739 L395 -92 L470 -92 L227 739 L150 739 Z " />
<glyph glyph-name="bracketright" unicode="&#x5d;" horiz-adv-x="620" d="M193 720 L193 651 L341 651 L341 -56 L193 -56 L193 -125 L426 -125 L426 720 L193 720 Z " />
<glyph glyph-name="asciicircum" unicode="&#x5e;" horiz-adv-x="620" d="M50 448 L98 404 L311 629 L522 404 L571 446 L345 693 L278 693 L50 448 Z " />
<glyph glyph-name="underscore" unicode="&#x5f;" horiz-adv-x="620" d="M62 -170 L62 -231 L559 -231 L559 -170 L62 -170 Z " />
<glyph glyph-name="grave" unicode="&#x60;" horiz-adv-x="620" d="M214 707 L369 582 L406 625 L261 760 L214 707 Z " />
<glyph glyph-name="a" unicode="a" horiz-adv-x="620" d="M252 -13 C343 -13 405 22 445 91 L452 0 L526 0 L526 353 C526 471 447 538 313 538 C238 538 162 513 101 463 L131 404 C187 445 248 468 305 468 C396 467 438 433 438 350 L438 299 C403 304 363 306 318 306 C151 306 77 228 77 131 C77 49 141 -13 252 -13 L252 -13 Z M273 50 C204 50 164 86 164 138 C164 199 210 240 323 240 C362 240 403 238 438 233 L438 209 C438 118 366 50 273 50 L273 50 Z " />
<glyph glyph-name="b" unicode="b" horiz-adv-x="620" d="M328 -13 C457 -13 549 92 549 270 C549 441 462 538 334 538 C275 538 218 513 178 463 L178 720 L90 720 L90 0 L163 0 L170 61 C205 17 266 -13 328 -13 L328 -13 Z M317 61 C263 61 219 86 178 136 L178 381 C216 438 271 463 320 463 C400 463 457 402 457 267 C457 132 397 61 317 61 L317 61 Z " />
<glyph glyph-name="c" unicode="c" horiz-adv-x="620" d="M326 -13 C408 -13 475 13 538 68 L508 125 C452 81 398 61 341 61 C228 61 168 148 168 262 C168 388 229 465 331 465 C406 465 457 426 467 343 L544 343 C538 465 461 538 328 538 C180 538 75 432 75 260 C75 91 176 -13 326 -13 L326 -13 Z " />
<glyph glyph-name="d" unicode="d" horiz-adv-x="620" d="M284 -13 C342 -13 401 13 443 69 L446 0 L526 0 L526 720 L438 720 L438 473 C404 514 343 538 289 538 C156 538 67 429 67 256 C67 96 143 -13 284 -13 L284 -13 Z M298 63 C209 63 159 132 159 258 C159 393 219 464 299 464 C352 464 397 440 438 389 L438 145 C401 88 345 63 298 63 L298 63 Z " />
<glyph glyph-name="e" unicode="e" horiz-adv-x="620" d="M329 -13 C406 -13 482 14 537 59 L506 118 C451 79 397 61 340 61 C228 61 169 129 167 235 L548 235 C550 249 551 266 551 282 C551 450 468 538 325 538 C177 538 73 425 73 259 C73 80 177 -13 329 -13 L329 -13 Z M465 307 L166 307 C174 402 238 468 323 468 C421 468 463 401 465 307 L465 307 Z " />
<glyph glyph-name="f" unicode="f" horiz-adv-x="620" d="M93 66 L93 0 L523 0 L523 66 L336 66 L336 456 L511 456 L511 525 L336 525 L336 577 C336 626 361 648 407 648 L529 648 L529 720 L393 720 C299 720 248 671 248 581 L248 525 L98 511 L98 456 L248 456 L248 66 L93 66 Z " />
<glyph glyph-name="g" unicode="g" horiz-adv-x="620" d="M136 -128 L136 -200 L310 -200 C451 -200 526 -134 526 11 L526 525 L447 525 L444 468 C404 513 346 538 290 538 C151 538 67 424 67 257 C67 98 145 -9 283 -9 C339 -9 398 15 441 72 L441 7 C441 -82 395 -128 316 -128 L136 -128 Z M298 67 C210 67 159 136 159 259 C159 394 219 464 299 464 C351 464 396 441 438 389 L438 149 C402 93 347 67 298 67 L298 67 Z " />
<glyph glyph-name="h" unicode="h" horiz-adv-x="620" d="M97 720 L97 0 L185 0 L185 378 C229 432 281 463 336 463 C427 463 446 396 446 325 L446 0 L534 0 L534 344 C534 465 482 538 364 538 C291 538 230 506 185 455 L185 720 L97 720 Z " />
<glyph glyph-name="i" unicode="i" horiz-adv-x="620" d="M108 70 L108 0 L546 0 L546 70 L371 70 L371 525 L108 525 L108 455 L284 455 L284 70 L108 70 Z M327 619 C364 619 389 640 389 675 C389 710 363 731 327 731 C292 731 264 710 264 675 C264 640 292 619 327 619 L327 619 Z " />
<glyph glyph-name="j" unicode="j" horiz-adv-x="620" d="M373 619 C410 619 435 640 435 675 C435 710 409 731 373 731 C338 731 310 710 310 675 C310 640 338 619 373 619 L373 619 Z M136 -128 L136 -200 L284 -200 C370 -200 415 -153 415 -64 L415 525 L134 525 L134 459 L327 459 L327 -58 C327 -105 308 -128 271 -128 L136 -128 Z " />
<glyph glyph-name="k" unicode="k" horiz-adv-x="620" d="M119 720 L119 0 L207 0 L207 254 L273 254 L471 0 L576 0 L351 292 L551 525 L450 525 L277 327 L207 327 L207 720 L119 720 Z " />
<glyph glyph-name="l" unicode="l" horiz-adv-x="620" d="M91 66 L91 0 L529 0 L529 66 L354 66 L354 720 L100 720 L100 654 L266 654 L266 66 L91 66 Z " />
<glyph glyph-name="m" unicode="m" horiz-adv-x="620" d="M52 525 L52 0 L133 0 L133 400 C157 444 184 463 214 463 C249 463 274 435 274 375 L274 0 L348 0 L348 401 C372 445 401 463 430 463 C465 463 487 432 487 377 L487 0 L568 0 L568 388 C568 481 522 538 449 538 C406 538 366 514 335 467 C319 512 281 538 235 538 C192 538 154 514 127 472 L123 525 L52 525 Z " />
<glyph glyph-name="n" unicode="n" horiz-adv-x="620" d="M92 525 L92 0 L180 0 L180 378 C204 409 260 463 328 463 C406 463 441 418 441 327 L441 0 L529 0 L529 343 C529 458 483 538 356 538 C281 538 218 501 174 449 L170 525 L92 525 Z " />
<glyph glyph-name="o" unicode="o" horiz-adv-x="620" d="M308 -13 C464 -13 559 89 559 262 C559 437 464 538 309 538 C153 538 61 435 61 261 C61 89 149 -13 308 -13 L308 -13 Z M309 61 C217 61 154 127 154 262 C154 397 217 464 309 464 C401 464 466 399 466 262 C466 127 401 61 309 61 L309 61 Z " />
<glyph glyph-name="p" unicode="p" horiz-adv-x="620" d="M90 525 L90 -200 L178 -200 L178 52 C214 13 270 -13 327 -13 C462 -13 549 98 549 270 C549 439 463 538 337 538 C269 538 216 512 172 455 L167 525 L90 525 Z M319 61 C264 61 220 85 178 136 L178 381 C211 430 262 463 321 463 C403 463 457 397 457 266 C457 127 392 61 319 61 L319 61 Z " />
<glyph glyph-name="q" unicode="q" horiz-adv-x="620" d="M438 63 L438 -200 L526 -200 L526 525 L451 525 L446 464 C407 510 350 538 287 538 C157 538 67 428 67 258 C67 96 143 -13 282 -13 C339 -13 398 12 438 63 L438 63 Z M296 63 C211 63 159 129 159 258 C159 395 222 464 298 464 C352 464 397 440 438 389 L438 145 C400 88 345 63 296 63 L296 63 Z " />
<glyph glyph-name="r" unicode="r" horiz-adv-x="620" d="M81 66 L81 0 L509 0 L509 66 L314 66 L314 358 C346 425 390 455 441 455 L540 455 L540 538 L443 538 C377 538 329 494 305 441 L300 525 L81 525 L81 459 L226 459 L226 66 L81 66 Z " />
<glyph glyph-name="s" unicode="s" horiz-adv-x="620" d="M316 -13 C446 -13 531 50 531 149 C531 227 481 276 348 304 L322 309 C229 328 203 348 203 395 C203 440 243 470 324 470 C385 470 439 449 484 409 L528 463 C476 511 402 538 318 538 C194 538 113 479 113 384 C113 312 161 262 291 236 L317 230 C419 210 441 184 441 140 C441 88 396 56 311 56 C248 56 192 76 130 126 L88 68 C138 21 226 -13 316 -13 L316 -13 Z " />
<glyph glyph-name="t" unicode="t" horiz-adv-x="620" d="M346 0 L506 0 L506 72 L366 72 C324 72 299 95 299 138 L299 456 L515 456 L515 525 L299 525 L299 669 L228 669 L216 525 L65 509 L65 456 L212 456 L212 133 C212 43 257 0 346 0 L346 0 Z " />
<glyph glyph-name="u" unicode="u" horiz-adv-x="620" d="M259 -13 C327 -13 388 21 436 76 L441 0 L519 0 L519 525 L431 525 L431 147 C388 93 334 63 285 63 C219 63 179 103 179 191 L179 525 L91 525 L91 178 C91 62 143 -13 259 -13 L259 -13 Z " />
<glyph glyph-name="v" unicode="v" horiz-adv-x="620" d="M64 525 L257 0 L357 0 L551 525 L462 525 L309 92 L306 92 L156 525 L64 525 Z " />
<glyph glyph-name="w" unicode="w" horiz-adv-x="620" d="M35 525 L135 0 L222 0 L308 403 L311 403 L393 0 L479 0 L582 525 L497 525 L432 109 L430 109 L344 519 L273 519 L188 105 L185 105 L120 525 L35 525 Z " />
<glyph glyph-name="x" unicode="x" horiz-adv-x="620" d="M257 266 L78 0 L174 0 L310 208 L446 0 L542 0 L363 266 L535 525 L440 525 L311 325 L180 525 L83 525 L257 266 Z " />
<glyph glyph-name="y" unicode="y" horiz-adv-x="620" d="M109 -128 L109 -200 L172 -200 C262 -200 304 -169 335 -80 L548 525 L457 525 L324 105 L321 105 L183 525 L89 525 L278 2 L258 -60 C240 -113 212 -128 160 -128 L109 -128 Z " />
<glyph glyph-name="z" unicode="z" horiz-adv-x="620" d="M107 55 L107 0 L522 0 L522 71 L222 71 L524 481 L524 525 L113 525 L113 455 L402 455 L107 55 Z " />
<glyph glyph-name="braceleft" unicode="&#x7b;" horiz-adv-x="620" d="M430 -125 L486 -125 L486 -60 L441 -60 C368 -60 349 -20 349 60 L349 152 C349 216 343 271 267 283 C337 303 349 346 349 410 L349 536 C349 613 362 655 426 655 L486 655 L486 720 L427 720 C300 720 264 666 264 543 L264 442 C264 353 251 317 173 317 L134 317 L134 249 L175 249 C248 249 264 213 264 147 L264 33 C264 -84 305 -125 430 -125 L430 -125 Z " />
<glyph glyph-name="bar" unicode="&#x7c;" horiz-adv-x="620" d="M272 720 L272 -200 L349 -200 L349 720 L272 720 Z " />
<glyph glyph-name="braceright" unicode="&#x7d;" horiz-adv-x="620" d="M356 147 C356 213 372 249 445 249 L486 249 L486 317 L447 317 C369 317 356 353 356 442 L356 543 C356 666 320 720 193 720 L134 720 L134 655 L194 655 C258 655 271 613 271 536 L271 410 C271 346 283 303 353 283 C277 271 271 216 271 152 L271 60 C271 -20 252 -60 179 -60 L134 -60 L134 -125 L190 -125 C315 -125 356 -84 356 33 L356 147 Z " />
<glyph glyph-name="asciitilde" unicode="&#x7e;" horiz-adv-x="620" d="M60 280 L93 226 C159 276 187 292 218 292 C237 292 250 288 284 269 L316 253 C353 233 374 228 403 228 C445 228 492 249 560 303 L527 357 C461 307 433 291 402 291 C383 291 369 295 336 314 L304 331 C267 351 246 356 217 356 C175 356 128 334 60 280 L60 280 Z " />
<glyph glyph-name="uni00A0" unicode="&#xa0;" horiz-adv-x="620" d="" />
<glyph glyph-name="exclamdown" unicode="&#xa1;" horiz-adv-x="620" d="M309 537 C272 537 249 514 249 480 C249 443 273 421 309 421 C345 421 370 443 370 479 C370 514 345 537 309 537 L309 537 Z M264 -195 L357 -195 L357 45 L347 323 L274 323 L264 45 L264 -195 Z " />
<glyph glyph-name="cent" unicode="&#xa2;" horiz-adv-x="620" d="M546 155 L515 211 C455 169 398 149 342 149 C236 149 170 229 170 356 C170 479 232 552 334 552 C404 552 462 514 472 430 L550 430 C542 548 468 609 369 621 L369 720 L301 720 L301 621 C160 608 77 506 77 354 C77 203 154 92 301 79 L301 -18 L369 -18 L369 80 C433 86 495 112 546 155 L546 155 Z " />
<glyph glyph-name="sterling" unicode="&#xa3;" horiz-adv-x="620" d="M98 68 L98 0 L542 0 L542 74 L245 74 C295 117 321 165 321 222 C321 253 315 287 296 328 L436 328 L436 391 L267 391 C216 496 211 516 211 548 C211 606 245 636 351 636 L495 636 L495 708 L339 708 C190 708 123 638 123 551 C123 514 129 491 179 391 L99 391 L99 328 L209 328 C232 278 239 250 239 222 C239 163 209 116 150 72 L98 68 Z " />
<glyph glyph-name="currency" unicode="&#xa4;" horiz-adv-x="620" d="M58 130 L104 83 L199 178 C228 156 268 141 312 141 C355 141 391 153 423 177 L518 83 L565 131 L470 224 C493 254 508 293 508 336 C508 378 493 417 469 447 L565 542 L517 589 L423 496 C394 517 354 531 312 531 C268 531 230 517 199 495 L105 590 L59 542 L153 447 C129 416 116 376 116 336 C116 294 130 253 153 224 L58 130 Z M311 207 C241 207 183 265 183 336 C183 407 243 464 311 464 C380 464 440 407 440 336 C440 267 380 207 311 207 L311 207 Z " />
<glyph glyph-name="yen" unicode="&#xa5;" horiz-adv-x="620" d="M266 204 L266 0 L350 0 L350 204 L535 204 L535 260 L350 260 L350 336 L535 336 L535 392 L381 392 L563 705 L472 705 L309 413 L147 705 L54 705 L234 392 L81 392 L81 336 L266 336 L266 260 L81 260 L81 204 L266 204 Z " />
<glyph glyph-name="brokenbar" unicode="&#xa6;" horiz-adv-x="620" d="M272 720 L272 312 L349 312 L349 720 L272 720 Z M272 208 L272 -200 L349 -200 L349 208 L272 208 Z " />
<glyph glyph-name="section" unicode="&#xa7;" horiz-adv-x="620" d="M317 -12 C417 -12 493 45 493 127 C493 183 460 217 388 245 C445 256 496 293 496 363 C496 432 458 471 365 502 L338 511 C240 543 217 561 217 601 C217 645 258 671 312 671 C364 671 406 650 446 619 L481 664 C443 706 375 733 307 733 C200 733 134 672 134 597 C134 545 164 498 243 474 C165 461 132 404 132 352 C132 279 178 244 266 215 L296 205 C387 176 408 157 408 124 C408 72 355 52 309 52 C250 52 200 85 164 116 L124 68 C172 15 249 -12 317 -12 L317 -12 Z M325 278 C257 286 207 313 207 359 C207 408 241 438 305 441 C368 434 418 409 418 359 C418 300 370 281 325 278 L325 278 Z " />
<glyph glyph-name="dieresis" unicode="&#xa8;" horiz-adv-x="620" d="M408 619 C439 619 461 641 461 668 C461 695 441 717 407 717 C375 717 354 695 354 668 C354 640 375 619 408 619 L408 619 Z M214 619 C244 619 266 641 266 668 C266 695 247 717 213 717 C181 717 159 695 159 668 C159 640 181 619 214 619 L214 619 Z " />
<glyph glyph-name="copyright" unicode="&#xa9;" horiz-adv-x="620" d="M311 12 C478 12 607 131 607 335 C607 540 478 658 311 658 C138 658 15 540 15 335 C15 131 138 12 311 12 L311 12 Z M311 60 C174 60 70 159 70 335 C70 512 174 611 311 611 C448 611 552 512 552 335 C552 159 448 60 311 60 L311 60 Z M312 169 C361 169 403 187 438 225 L402 266 C375 239 348 227 318 227 C266 227 237 263 237 336 C237 405 270 443 314 443 C350 443 372 421 375 386 L439 386 C435 461 390 502 316 502 C222 502 168 432 168 335 C168 242 215 169 312 169 L312 169 Z " />
<glyph glyph-name="ordfeminine" unicode="&#xaa;" horiz-adv-x="620" d="M275 255 C333 255 383 282 408 327 L411 264 L472 264 L472 520 C472 615 410 655 326 655 C260 655 208 633 166 602 L192 555 C228 581 266 599 317 599 C370 599 403 570 403 512 L403 482 C379 485 358 487 334 487 C186 487 149 422 149 364 C149 294 202 255 275 255 L275 255 Z M291 308 C247 308 218 330 218 368 C218 416 256 439 343 439 C373 439 388 436 403 434 L403 414 C403 358 353 308 291 308 L291 308 Z " />
<glyph glyph-name="guillemotleft" unicode="&#xab;" horiz-adv-x="620" d="M385 261 L529 403 L487 445 L305 273 L305 248 L487 78 L529 119 L385 261 Z M179 261 L323 413 L278 454 L96 273 L96 248 L278 70 L323 110 L179 261 Z " />
<glyph glyph-name="logicalnot" unicode="&#xac;" horiz-adv-x="620" d="M476 327 L476 126 L540 126 L540 387 L80 387 L80 327 L476 327 Z " />
<glyph glyph-name="uni00AD" unicode="&#xad;" horiz-adv-x="620" d="M157 314 L157 242 L464 242 L464 314 L157 314 Z " />
<glyph glyph-name="registered" unicode="&#xae;" horiz-adv-x="620" d="M310 219 C445 219 567 329 567 476 C567 628 462 733 310 733 C166 733 53 624 53 476 C53 312 163 219 310 219 L310 219 Z M310 264 C183 264 103 344 103 476 C103 592 184 688 310 688 C441 688 517 596 517 476 C517 362 426 264 310 264 L310 264 Z M210 606 L210 351 L265 351 L265 442 L317 442 L365 351 L428 351 L369 453 C398 467 413 492 413 525 C413 575 376 606 320 606 L210 606 Z M298 483 L265 483 L265 563 L302 563 C340 563 355 551 355 524 C355 497 337 483 298 483 L298 483 Z " />
<glyph glyph-name="macron" unicode="&#xaf;" horiz-adv-x="620" d="M173 680 L173 620 L448 620 L448 680 L173 680 Z " />
<glyph glyph-name="degree" unicode="&#xb0;" horiz-adv-x="620" d="M309 426 C396 426 463 493 463 581 C463 667 394 733 309 733 C224 733 155 667 155 581 C155 492 224 426 309 426 L309 426 Z M309 471 C247 471 204 518 204 581 C204 641 244 689 309 689 C371 689 414 643 414 581 C414 517 373 471 309 471 L309 471 Z " />
<glyph glyph-name="plusminus" unicode="&#xb1;" horiz-adv-x="620" d="M80 63 L80 0 L540 0 L540 63 L344 63 L344 260 L540 260 L540 322 L344 322 L344 538 L278 538 L278 322 L80 322 L80 260 L278 260 L278 63 L80 63 Z " />
<glyph glyph-name="uni00B2" unicode="&#xb2;" horiz-adv-x="620" d="M170 447 L170 400 L454 400 L454 456 L266 456 L374 549 C432 597 451 633 451 675 C451 738 399 776 322 776 C266 776 206 754 161 718 L189 674 C228 703 272 719 311 719 C354 719 377 699 377 665 C377 638 363 617 320 579 L170 447 Z " />
<glyph glyph-name="uni00B3" unicode="&#xb3;" horiz-adv-x="620" d="M302 393 C399 393 455 438 455 505 C455 555 418 589 351 595 C402 608 433 642 433 686 C433 739 392 776 306 776 C251 776 200 763 162 739 L184 695 C215 712 254 722 290 722 C344 722 363 704 363 676 C363 636 315 615 253 614 L253 562 C256 562 279 563 288 563 C356 563 385 541 385 505 C385 469 358 448 297 448 C252 448 211 459 174 486 L146 443 C181 413 239 393 302 393 L302 393 Z " />
<glyph glyph-name="acute" unicode="&#xb4;" horiz-adv-x="620" d="M214 624 L250 582 L406 706 L360 760 L214 624 Z " />
<glyph glyph-name="uni00B5" unicode="&#xb5;" horiz-adv-x="620" d="M102 526 L102 -200 L190 -200 L190 47 C216 10 248 -10 307 -10 C372 -10 415 21 443 75 L443 0 L518 0 L518 526 L430 526 L430 175 C426 126 382 54 307 54 C225 54 190 109 190 201 L190 526 L102 526 Z " />
<glyph glyph-name="paragraph" unicode="&#xb6;" horiz-adv-x="620" d="M276 362 L276 0 L342 0 L342 664 L441 664 L441 0 L507 0 L507 720 L292 720 C168 720 88 647 88 541 C88 437 158 369 276 362 L276 362 Z " />
<glyph glyph-name="periodcentered" unicode="&#xb7;" horiz-adv-x="620" d="M308 277 C344 277 369 300 369 335 C369 371 344 393 308 393 C272 393 248 371 248 334 C248 300 271 277 308 277 L308 277 Z " />
<glyph glyph-name="cedilla" unicode="&#xb8;" horiz-adv-x="620" d="M303 -209 C361 -209 401 -179 401 -124 C401 -83 366 -56 318 -54 L331 8 L285 8 L263 -94 L275 -94 C323 -94 343 -103 343 -127 C343 -149 327 -161 297 -161 C272 -161 250 -155 231 -148 L219 -192 C239 -202 273 -209 303 -209 L303 -209 Z " />
<glyph glyph-name="uni00B9" unicode="&#xb9;" horiz-adv-x="620" d="M181 452 L181 400 L468 400 L468 452 L365 452 L365 771 L315 771 L163 704 L174 657 L296 700 L296 452 L181 452 Z " />
<glyph glyph-name="ordmasculine" unicode="&#xba;" horiz-adv-x="620" d="M310 255 C416 255 494 328 494 455 C494 583 422 655 310 655 C202 655 127 583 127 455 C127 325 197 255 310 255 L310 255 Z M310 313 C245 313 197 355 197 455 C197 555 245 599 310 599 C374 599 423 555 423 455 C423 355 374 313 310 313 L310 313 Z " />
<glyph glyph-name="guillemotright" unicode="&#xbb;" horiz-adv-x="620" d="M297 110 L342 70 L524 248 L524 273 L342 454 L297 413 L441 261 L297 110 Z M91 119 L133 78 L315 248 L315 273 L133 445 L91 403 L235 261 L91 119 Z " />
<glyph glyph-name="onequarter" unicode="&#xbc;" horiz-adv-x="620" d="M413 721 L136 0 L183 0 L460 721 L413 721 Z M462 79 L462 0 L521 0 L521 79 L558 79 L558 124 L521 124 L521 263 L463 263 L462 124 L370 124 L466 372 L409 372 L311 122 L311 79 L462 79 Z M126 652 L126 347 L187 347 L187 719 L144 719 L43 661 L53 619 L126 652 Z " />
<glyph glyph-name="onehalf" unicode="&#xbd;" horiz-adv-x="620" d="M123 652 L123 347 L185 347 L185 719 L142 719 L40 661 L50 619 L123 652 Z M400 721 L123 0 L170 0 L447 721 L400 721 Z M367 38 L367 0 L571 0 L571 49 L438 49 L528 185 C553 223 567 259 567 294 C567 352 527 378 469 378 C426 378 386 358 357 332 L383 292 C406 313 435 327 460 327 C486 327 503 314 503 284 C503 254 485 222 466 193 L367 38 Z " />
<glyph glyph-name="threequarters" unicode="&#xbe;" horiz-adv-x="620" d="M436 721 L159 0 L206 0 L483 721 L436 721 Z M484 79 L484 0 L543 0 L543 79 L580 79 L580 124 L543 124 L543 263 L485 263 L484 124 L392 124 L487 372 L431 372 L333 122 L333 79 L484 79 Z M138 337 C208 337 250 378 250 444 C250 493 227 531 165 539 C208 552 234 585 234 632 C234 696 198 723 140 723 C100 723 67 710 39 688 L62 649 C83 665 104 673 127 673 C154 673 173 662 173 623 C173 582 144 557 91 556 L92 510 C97 510 109 510 116 510 C163 510 187 489 187 447 C187 405 164 386 129 386 C100 386 79 395 54 413 L32 372 C63 348 97 337 138 337 L138 337 Z " />
<glyph glyph-name="questiondown" unicode="&#xbf;" horiz-adv-x="620" d="M357 297 L357 323 L273 323 L273 300 C273 165 96 127 96 -30 C96 -144 187 -207 301 -207 C443 -207 527 -131 527 10 L443 10 C443 -79 393 -130 311 -130 C231 -130 189 -87 189 -18 C189 99 357 134 357 297 L357 297 Z M315 537 C281 537 257 515 257 480 C257 445 282 424 315 424 C350 424 374 445 374 481 C374 515 350 537 315 537 L315 537 Z " />
<glyph glyph-name="Agrave" unicode="&#xc0;" horiz-adv-x="620" d="M245 902 L212 840 L391 755 L417 802 L245 902 Z M304 614 L308 614 L397 273 L213 273 L304 614 Z M255 720 L43 0 L141 0 L194 198 L417 198 L469 0 L569 0 L358 720 L255 720 Z " />
<glyph glyph-name="Aacute" unicode="&#xc1;" horiz-adv-x="620" d="M255 720 L43 0 L141 0 L194 198 L417 198 L469 0 L569 0 L358 720 L255 720 Z M304 614 L308 614 L397 273 L213 273 L304 614 Z M219 802 L245 755 L424 840 L391 902 L219 802 Z " />
<glyph glyph-name="Acircumflex" unicode="&#xc2;" horiz-adv-x="620" d="M255 720 L43 0 L141 0 L194 198 L417 198 L469 0 L569 0 L358 720 L255 720 Z M304 614 L308 614 L397 273 L213 273 L304 614 Z M183 796 L219 763 L308 830 L397 763 L432 796 L337 889 L279 889 L183 796 Z " />
<glyph glyph-name="Atilde" unicode="&#xc3;" horiz-adv-x="620" d="M255 720 L43 0 L141 0 L194 198 L417 198 L469 0 L569 0 L358 720 L255 720 Z M304 614 L308 614 L397 273 L213 273 L304 614 Z M159 804 L205 784 C221 814 229 821 247 821 C277 821 323 788 373 788 C411 788 439 813 453 863 L408 883 C395 855 383 849 364 849 C327 849 287 883 242 883 C206 883 177 855 159 804 L159 804 Z " />
<glyph glyph-name="Adieresis" unicode="&#xc4;" horiz-adv-x="620" d="M255 720 L43 0 L141 0 L194 198 L417 198 L469 0 L569 0 L358 720 L255 720 Z M304 614 L308 614 L397 273 L213 273 L304 614 Z M403 787 C434 787 456 809 456 836 C456 863 436 885 402 885 C370 885 349 863 349 836 C349 808 370 787 403 787 L403 787 Z M209 787 C239 787 261 809 261 836 C261 863 242 885 208 885 C176 885 154 863 154 836 C154 808 176 787 209 787 L209 787 Z " />
<glyph glyph-name="Aring" unicode="&#xc5;" horiz-adv-x="620" d="M255 720 L43 0 L141 0 L194 198 L417 198 L469 0 L569 0 L358 720 L255 720 Z M304 614 L308 614 L397 273 L213 273 L304 614 Z M306 749 C366 749 411 789 411 848 C411 906 365 946 306 946 C247 946 202 903 202 845 C202 787 245 749 306 749 L306 749 Z M306 792 C274 792 252 813 252 846 C252 877 273 901 306 901 C340 901 362 880 362 848 C362 816 340 792 306 792 L306 792 Z " />
<glyph glyph-name="AE" unicode="&#xc6;" horiz-adv-x="620" d="M251 720 L33 0 L129 0 L187 212 L324 212 L324 0 L588 0 L588 79 L408 79 L408 331 L549 331 L549 407 L408 407 L408 639 L581 639 L581 720 L251 720 Z M305 641 L324 641 L324 287 L208 287 L305 641 Z " />
<glyph glyph-name="Ccedilla" unicode="&#xc7;" horiz-adv-x="620" d="M325 -211 C383 -211 423 -181 423 -126 C423 -85 388 -58 340 -56 L349 -12 C425 -6 494 28 555 96 L508 158 C451 98 397 71 330 71 C216 71 149 173 149 364 C149 551 214 650 330 650 C415 650 459 580 465 502 L556 502 C552 649 452 733 331 733 C153 733 51 603 51 362 C51 128 142 -2 303 -12 L285 -96 L297 -96 C345 -96 365 -105 365 -129 C365 -151 349 -163 319 -163 C294 -163 272 -157 253 -150 L241 -194 C261 -204 295 -211 325 -211 L325 -211 Z " />
<glyph glyph-name="Egrave" unicode="&#xc8;" horiz-adv-x="620" d="M259 902 L226 840 L405 755 L431 802 L259 902 Z M96 720 L96 0 L550 0 L550 79 L188 79 L188 330 L511 330 L511 407 L188 407 L188 639 L543 639 L543 720 L96 720 Z " />
<glyph glyph-name="Eacute" unicode="&#xc9;" horiz-adv-x="620" d="M96 720 L96 0 L550 0 L550 79 L188 79 L188 330 L511 330 L511 407 L188 407 L188 639 L543 639 L543 720 L96 720 Z M233 802 L259 755 L438 840 L405 902 L233 802 Z " />
<glyph glyph-name="Ecircumflex" unicode="&#xca;" horiz-adv-x="620" d="M96 720 L96 0 L550 0 L550 79 L188 79 L188 330 L511 330 L511 407 L188 407 L188 639 L543 639 L543 720 L96 720 Z M197 796 L233 763 L322 830 L411 763 L446 796 L351 889 L293 889 L197 796 Z " />
<glyph glyph-name="Edieresis" unicode="&#xcb;" horiz-adv-x="620" d="M96 720 L96 0 L550 0 L550 79 L188 79 L188 330 L511 330 L511 407 L188 407 L188 639 L543 639 L543 720 L96 720 Z M417 787 C448 787 470 809 470 836 C470 863 450 885 416 885 C384 885 363 863 363 836 C363 808 384 787 417 787 L417 787 Z M223 787 C253 787 275 809 275 836 C275 863 256 885 222 885 C190 885 168 863 168 836 C168 808 190 787 223 787 L223 787 Z " />
<glyph glyph-name="Igrave" unicode="&#xcc;" horiz-adv-x="620" d="M249 902 L216 840 L395 755 L421 802 L249 902 Z M112 77 L112 0 L509 0 L509 77 L356 77 L356 643 L509 643 L509 720 L112 720 L112 643 L264 643 L264 77 L112 77 Z " />
<glyph glyph-name="Iacute" unicode="&#xcd;" horiz-adv-x="620" d="M112 77 L112 0 L509 0 L509 77 L356 77 L356 643 L509 643 L509 720 L112 720 L112 643 L264 643 L264 77 L112 77 Z M223 802 L249 755 L428 840 L395 902 L223 802 Z " />
<glyph glyph-name="Icircumflex" unicode="&#xce;" horiz-adv-x="620" d="M112 77 L112 0 L509 0 L509 77 L356 77 L356 643 L509 643 L509 720 L112 720 L112 643 L264 643 L264 77 L112 77 Z M187 796 L223 763 L312 830 L401 763 L436 796 L341 889 L283 889 L187 796 Z " />
<glyph glyph-name="Idieresis" unicode="&#xcf;" horiz-adv-x="620" d="M112 77 L112 0 L509 0 L509 77 L356 77 L356 643 L509 643 L509 720 L112 720 L112 643 L264 643 L264 77 L112 77 Z M407 787 C438 787 460 809 460 836 C460 863 440 885 406 885 C374 885 353 863 353 836 C353 808 374 787 407 787 L407 787 Z M213 787 C243 787 265 809 265 836 C265 863 246 885 212 885 C180 885 158 863 158 836 C158 808 180 787 213 787 L213 787 Z " />
<glyph glyph-name="Eth" unicode="&#xd0;" horiz-adv-x="620" d="M33 398 L33 332 L105 332 L105 0 L267 0 C479 0 576 119 576 359 C576 600 483 720 279 720 L105 720 L105 398 L33 398 Z M282 82 L198 82 L198 332 L351 332 L351 398 L198 398 L198 638 L282 638 C421 638 479 546 479 359 C479 173 421 82 282 82 L282 82 Z " />
<glyph glyph-name="Ntilde" unicode="&#xd1;" horiz-adv-x="620" d="M73 720 L73 0 L163 0 L163 544 L166 544 L465 0 L547 0 L547 720 L457 720 L457 176 L455 176 L157 720 L73 720 Z M160 804 L206 784 C222 814 230 821 248 821 C278 821 324 788 374 788 C412 788 440 813 454 863 L409 883 C396 855 384 849 365 849 C328 849 288 883 243 883 C207 883 178 855 160 804 L160 804 Z " />
<glyph glyph-name="Ograve" unicode="&#xd2;" horiz-adv-x="620" d="M254 902 L221 840 L400 755 L426 802 L254 902 Z M314 72 C201 72 142 173 142 368 C142 553 201 649 312 649 C421 649 479 553 479 368 C479 173 422 72 314 72 L314 72 Z M309 -13 C485 -13 576 117 576 368 C576 608 487 733 316 733 C137 733 44 608 44 368 C44 117 135 -13 309 -13 L309 -13 Z " />
<glyph glyph-name="Oacute" unicode="&#xd3;" horiz-adv-x="620" d="M309 -13 C485 -13 576 117 576 368 C576 608 487 733 316 733 C137 733 44 608 44 368 C44 117 135 -13 309 -13 L309 -13 Z M314 72 C201 72 142 173 142 368 C142 553 201 649 312 649 C421 649 479 553 479 368 C479 173 422 72 314 72 L314 72 Z M228 802 L254 755 L433 840 L400 902 L228 802 Z " />
<glyph glyph-name="Ocircumflex" unicode="&#xd4;" horiz-adv-x="620" d="M309 -13 C485 -13 576 117 576 368 C576 608 487 733 316 733 C137 733 44 608 44 368 C44 117 135 -13 309 -13 L309 -13 Z M314 72 C201 72 142 173 142 368 C142 553 201 649 312 649 C421 649 479 553 479 368 C479 173 422 72 314 72 L314 72 Z M192 796 L228 763 L317 830 L406 763 L441 796 L346 889 L288 889 L192 796 Z " />
<glyph glyph-name="Otilde" unicode="&#xd5;" horiz-adv-x="620" d="M309 -13 C485 -13 576 117 576 368 C576 608 487 733 316 733 C137 733 44 608 44 368 C44 117 135 -13 309 -13 L309 -13 Z M314 72 C201 72 142 173 142 368 C142 553 201 649 312 649 C421 649 479 553 479 368 C479 173 422 72 314 72 L314 72 Z M168 804 L214 784 C230 814 238 821 256 821 C286 821 332 788 382 788 C420 788 448 813 462 863 L417 883 C404 855 392 849 373 849 C336 849 296 883 251 883 C215 883 186 855 168 804 L168 804 Z " />
<glyph glyph-name="Odieresis" unicode="&#xd6;" horiz-adv-x="620" d="M309 -13 C485 -13 576 117 576 368 C576 608 487 733 316 733 C137 733 44 608 44 368 C44 117 135 -13 309 -13 L309 -13 Z M314 72 C201 72 142 173 142 368 C142 553 201 649 312 649 C421 649 479 553 479 368 C479 173 422 72 314 72 L314 72 Z M412 787 C443 787 465 809 465 836 C465 863 445 885 411 885 C379 885 358 863 358 836 C358 808 379 787 412 787 L412 787 Z M218 787 C248 787 270 809 270 836 C270 863 251 885 217 885 C185 885 163 863 163 836 C163 808 185 787 218 787 L218 787 Z " />
<glyph glyph-name="multiply" unicode="&#xd7;" horiz-adv-x="620" d="M102 133 L149 84 L311 247 L474 84 L519 131 L356 293 L519 454 L472 503 L309 340 L147 503 L102 456 L265 294 L102 133 Z " />
<glyph glyph-name="Oslash" unicode="&#xd8;" horiz-adv-x="620" d="M310 -13 C486 -13 577 117 577 368 C577 527 538 635 462 691 L494 780 L420 780 L399 722 C374 729 347 733 317 733 C138 733 45 608 45 368 C45 204 84 92 159 34 L124 -66 L198 -66 L221 1 C248 -8 277 -13 310 -13 L310 -13 Z M143 368 C143 553 202 649 313 649 C335 649 355 645 373 637 L197 131 C161 180 143 259 143 368 L143 368 Z M315 72 C290 72 268 77 248 87 L425 595 C461 549 480 473 480 368 C480 173 423 72 315 72 L315 72 Z " />
<glyph glyph-name="Ugrave" unicode="&#xd9;" horiz-adv-x="620" d="M250 902 L217 840 L396 755 L422 802 L250 902 Z M550 720 L458 720 L458 257 C458 127 411 69 313 69 C209 69 164 127 164 257 L164 720 L71 720 L71 249 C71 70 151 -13 310 -13 C470 -13 550 70 550 249 L550 720 Z " />
<glyph glyph-name="Uacute" unicode="&#xda;" horiz-adv-x="620" d="M310 -13 C470 -13 550 70 550 249 L550 720 L458 720 L458 257 C458 127 411 69 313 69 C209 69 164 127 164 257 L164 720 L71 720 L71 249 C71 70 151 -13 310 -13 L310 -13 Z M224 802 L250 755 L429 840 L396 902 L224 802 Z " />
<glyph glyph-name="Ucircumflex" unicode="&#xdb;" horiz-adv-x="620" d="M310 -13 C470 -13 550 70 550 249 L550 720 L458 720 L458 257 C458 127 411 69 313 69 C209 69 164 127 164 257 L164 720 L71 720 L71 249 C71 70 151 -13 310 -13 L310 -13 Z M188 796 L224 763 L313 830 L402 763 L437 796 L342 889 L284 889 L188 796 Z " />
<glyph glyph-name="Udieresis" unicode="&#xdc;" horiz-adv-x="620" d="M310 -13 C470 -13 550 70 550 249 L550 720 L458 720 L458 257 C458 127 411 69 313 69 C209 69 164 127 164 257 L164 720 L71 720 L71 249 C71 70 151 -13 310 -13 L310 -13 Z M408 787 C439 787 461 809 461 836 C461 863 441 885 407 885 C375 885 354 863 354 836 C354 808 375 787 408 787 L408 787 Z M214 787 C244 787 266 809 266 836 C266 863 247 885 213 885 C181 885 159 863 159 836 C159 808 181 787 214 787 L214 787 Z " />
<glyph glyph-name="Yacute" unicode="&#xdd;" horiz-adv-x="620" d="M261 305 L261 0 L354 0 L354 304 L580 720 L476 720 L312 387 L308 387 L146 720 L43 720 L261 305 Z M224 802 L250 755 L429 840 L396 902 L224 802 Z " />
<glyph glyph-name="Thorn" unicode="&#xde;" horiz-adv-x="620" d="M87 720 L87 0 L179 0 L179 161 L306 161 C475 161 558 248 558 386 C558 522 479 604 317 604 L179 604 L179 720 L87 720 Z M302 237 L179 237 L179 522 L310 522 C416 522 464 474 464 382 C464 288 410 237 302 237 L302 237 Z " />
<glyph glyph-name="germandbls" unicode="&#xdf;" horiz-adv-x="620" d="M375 -12 C484 -12 557 61 557 185 C557 297 491 361 372 377 C459 394 515 461 515 547 C515 655 449 720 324 720 C214 720 121 668 121 535 L121 523 L64 510 L64 456 L121 456 L121 0 L208 0 L208 521 C208 603 241 650 318 650 C390 650 427 612 427 543 C427 458 365 417 289 409 L289 338 C398 325 467 289 467 190 C467 101 419 62 360 62 C323 62 295 74 282 81 L258 20 C286 -2 333 -12 375 -12 L375 -12 Z " />
<glyph glyph-name="agrave" unicode="&#xe0;" horiz-adv-x="620" d="M252 -13 C343 -13 405 22 445 91 L452 0 L526 0 L526 353 C526 471 447 538 313 538 C238 538 162 513 101 463 L131 404 C187 445 248 468 305 468 C396 467 438 433 438 350 L438 299 C403 304 363 306 318 306 C151 306 77 228 77 131 C77 49 141 -13 252 -13 L252 -13 Z M273 50 C204 50 164 86 164 138 C164 199 210 240 323 240 C362 240 403 238 438 233 L438 209 C438 118 366 50 273 50 L273 50 Z M216 707 L371 582 L408 625 L263 760 L216 707 Z " />
<glyph glyph-name="aacute" unicode="&#xe1;" horiz-adv-x="620" d="M252 -13 C343 -13 405 22 445 91 L452 0 L526 0 L526 353 C526 471 447 538 313 538 C238 538 162 513 101 463 L131 404 C187 445 248 468 305 468 C396 467 438 433 438 350 L438 299 C403 304 363 306 318 306 C151 306 77 228 77 131 C77 49 141 -13 252 -13 L252 -13 Z M273 50 C204 50 164 86 164 138 C164 199 210 240 323 240 C362 240 403 238 438 233 L438 209 C438 118 366 50 273 50 L273 50 Z M220 624 L256 582 L412 706 L366 760 L220 624 Z " />
<glyph glyph-name="acircumflex" unicode="&#xe2;" horiz-adv-x="620" d="M217 580 L313 692 L409 580 L452 610 L340 758 L285 758 L174 609 L217 580 Z M438 209 C438 118 366 50 273 50 C204 50 164 86 164 138 C164 199 210 240 323 240 C362 240 403 238 438 233 L438 209 Z M452 0 L526 0 L526 353 C526 471 447 538 313 538 C238 538 162 513 101 463 L131 404 C187 445 248 468 305 468 C396 467 438 433 438 350 L438 299 C403 304 363 306 318 306 C151 306 77 228 77 131 C77 49 141 -13 252 -13 C343 -13 405 22 445 91 L452 0 Z " />
<glyph glyph-name="atilde" unicode="&#xe3;" horiz-adv-x="620" d="M252 -13 C343 -13 405 22 445 91 L452 0 L526 0 L526 353 C526 471 447 538 313 538 C238 538 162 513 101 463 L131 404 C187 445 248 468 305 468 C396 467 438 433 438 350 L438 299 C403 304 363 306 318 306 C151 306 77 228 77 131 C77 49 141 -13 252 -13 L252 -13 Z M273 50 C204 50 164 86 164 138 C164 199 210 240 323 240 C362 240 403 238 438 233 L438 209 C438 118 366 50 273 50 L273 50 Z M166 631 L212 611 C228 641 236 648 254 648 C284 648 330 615 380 615 C418 615 446 640 460 690 L415 710 C402 682 390 676 371 676 C334 676 294 710 249 710 C213 710 184 682 166 631 L166 631 Z " />
<glyph glyph-name="adieresis" unicode="&#xe4;" horiz-adv-x="620" d="M252 -13 C343 -13 405 22 445 91 L452 0 L526 0 L526 353 C526 471 447 538 313 538 C238 538 162 513 101 463 L131 404 C187 445 248 468 305 468 C396 467 438 433 438 350 L438 299 C403 304 363 306 318 306 C151 306 77 228 77 131 C77 49 141 -13 252 -13 L252 -13 Z M273 50 C204 50 164 86 164 138 C164 199 210 240 323 240 C362 240 403 238 438 233 L438 209 C438 118 366 50 273 50 L273 50 Z M411 619 C442 619 464 641 464 668 C464 695 444 717 410 717 C378 717 357 695 357 668 C357 640 378 619 411 619 L411 619 Z M217 619 C247 619 269 641 269 668 C269 695 250 717 216 717 C184 717 162 695 162 668 C162 640 184 619 217 619 L217 619 Z " />
<glyph glyph-name="aring" unicode="&#xe5;" horiz-adv-x="620" d="M252 -13 C343 -13 405 22 445 91 L452 0 L526 0 L526 353 C526 471 447 538 313 538 C238 538 162 513 101 463 L131 404 C187 445 248 468 305 468 C396 467 438 433 438 350 L438 299 C403 304 363 306 318 306 C151 306 77 228 77 131 C77 49 141 -13 252 -13 L252 -13 Z M273 50 C204 50 164 86 164 138 C164 199 210 240 323 240 C362 240 403 238 438 233 L438 209 C438 118 366 50 273 50 L273 50 Z M313 584 C373 584 418 624 418 683 C418 741 372 781 313 781 C254 781 209 738 209 680 C209 622 252 584 313 584 L313 584 Z M313 627 C281 627 259 648 259 681 C259 712 280 736 313 736 C347 736 369 715 369 683 C369 651 347 627 313 627 L313 627 Z " />
<glyph glyph-name="ae" unicode="&#xe6;" horiz-adv-x="620" d="M159 -13 C218 -13 272 24 296 103 C315 33 363 -13 439 -13 C495 -13 537 4 582 46 L557 103 C522 68 482 55 446 55 C375 55 346 126 345 240 L590 240 C591 256 591 274 591 290 C591 458 532 538 439 538 C379 538 335 504 317 454 C302 507 262 538 194 538 C140 538 80 513 34 469 L65 413 C110 454 149 470 186 470 C248 470 264 432 264 351 L264 303 L193 303 C99 303 23 240 23 138 C23 41 77 -13 159 -13 L159 -13 Z M173 50 C129 50 100 81 100 141 C100 205 138 240 207 240 L264 240 L264 202 C264 116 225 50 173 50 L173 50 Z M513 303 L345 303 C347 416 384 477 435 476 C489 475 512 410 513 303 L513 303 Z " />
<glyph glyph-name="ccedilla" unicode="&#xe7;" horiz-adv-x="620" d="M323 -209 C381 -209 421 -179 421 -124 C421 -83 386 -56 338 -54 L347 -12 C419 -8 480 18 538 68 L508 125 C452 81 398 61 341 61 C228 61 168 148 168 262 C168 388 229 465 331 465 C406 465 457 426 467 343 L544 343 C538 465 461 538 328 538 C180 538 75 432 75 260 C75 101 165 -1 301 -12 L283 -94 L295 -94 C343 -94 363 -103 363 -127 C363 -149 347 -161 317 -161 C292 -161 270 -155 251 -148 L239 -192 C259 -202 293 -209 323 -209 L323 -209 Z " />
<glyph glyph-name="egrave" unicode="&#xe8;" horiz-adv-x="620" d="M329 -13 C406 -13 482 14 537 59 L506 118 C451 79 397 61 340 61 C228 61 169 129 167 235 L548 235 C550 249 551 266 551 282 C551 450 468 538 325 538 C177 538 73 425 73 259 C73 80 177 -13 329 -13 L329 -13 Z M465 307 L166 307 C174 402 238 468 323 468 C421 468 463 401 465 307 L465 307 Z M228 707 L383 582 L420 625 L275 760 L228 707 Z " />
<glyph glyph-name="eacute" unicode="&#xe9;" horiz-adv-x="620" d="M329 -13 C406 -13 482 14 537 59 L506 118 C451 79 397 61 340 61 C228 61 169 129 167 235 L548 235 C550 249 551 266 551 282 C551 450 468 538 325 538 C177 538 73 425 73 259 C73 80 177 -13 329 -13 L329 -13 Z M465 307 L166 307 C174 402 238 468 323 468 C421 468 463 401 465 307 L465 307 Z M232 624 L268 582 L424 706 L378 760 L232 624 Z " />
<glyph glyph-name="ecircumflex" unicode="&#xea;" horiz-adv-x="620" d="M229 580 L325 692 L421 580 L464 610 L352 758 L297 758 L186 609 L229 580 Z M166 307 C174 402 238 468 323 468 C421 468 463 401 465 307 L166 307 Z M506 118 C451 79 397 61 340 61 C228 61 169 129 167 235 L548 235 C550 249 551 266 551 282 C551 450 468 538 325 538 C177 538 73 425 73 259 C73 80 177 -13 329 -13 C406 -13 482 14 537 59 L506 118 Z " />
<glyph glyph-name="edieresis" unicode="&#xeb;" horiz-adv-x="620" d="M329 -13 C406 -13 482 14 537 59 L506 118 C451 79 397 61 340 61 C228 61 169 129 167 235 L548 235 C550 249 551 266 551 282 C551 450 468 538 325 538 C177 538 73 425 73 259 C73 80 177 -13 329 -13 L329 -13 Z M465 307 L166 307 C174 402 238 468 323 468 C421 468 463 401 465 307 L465 307 Z M423 619 C454 619 476 641 476 668 C476 695 456 717 422 717 C390 717 369 695 369 668 C369 640 390 619 423 619 L423 619 Z M229 619 C259 619 281 641 281 668 C281 695 262 717 228 717 C196 717 174 695 174 668 C174 640 196 619 229 619 L229 619 Z " />
<glyph glyph-name="igrave" unicode="&#xec;" horiz-adv-x="620" d="M105 70 L105 0 L544 0 L544 70 L368 70 L368 525 L105 525 L105 455 L281 455 L281 70 L105 70 Z M228 707 L383 582 L420 625 L275 760 L228 707 Z " />
<glyph glyph-name="iacute" unicode="&#xed;" horiz-adv-x="620" d="M105 70 L105 0 L544 0 L544 70 L368 70 L368 525 L105 525 L105 455 L281 455 L281 70 L105 70 Z M232 624 L268 582 L424 706 L378 760 L232 624 Z " />
<glyph glyph-name="icircumflex" unicode="&#xee;" horiz-adv-x="620" d="M229 580 L325 692 L421 580 L464 610 L352 758 L297 758 L186 609 L229 580 Z M105 70 L105 0 L544 0 L544 70 L368 70 L368 525 L105 525 L105 455 L281 455 L281 70 L105 70 Z " />
<glyph glyph-name="idieresis" unicode="&#xef;" horiz-adv-x="620" d="M105 70 L105 0 L544 0 L544 70 L368 70 L368 525 L105 525 L105 455 L281 455 L281 70 L105 70 Z M423 619 C454 619 476 641 476 668 C476 695 456 717 422 717 C390 717 369 695 369 668 C369 640 390 619 423 619 L423 619 Z M229 619 C259 619 281 641 281 668 C281 695 262 717 228 717 C196 717 174 695 174 668 C174 640 196 619 229 619 L229 619 Z " />
<glyph glyph-name="eth" unicode="&#xf0;" horiz-adv-x="620" d="M304 -12 C456 -12 533 107 533 295 C533 430 498 537 425 612 L507 668 L471 715 L380 651 C333 685 274 709 204 722 L184 657 C333 618 429 537 450 365 C411 409 355 439 286 439 C158 439 87 339 87 214 C87 71 174 -12 304 -12 L304 -12 Z M304 63 C232 63 174 111 174 215 C174 323 236 371 305 371 C372 371 419 325 449 292 C451 133 393 63 304 63 L304 63 Z " />
<glyph glyph-name="ntilde" unicode="&#xf1;" horiz-adv-x="620" d="M92 525 L92 0 L180 0 L180 378 C204 409 260 463 328 463 C406 463 441 418 441 327 L441 0 L529 0 L529 343 C529 458 483 538 356 538 C281 538 218 501 174 449 L170 525 L92 525 Z M181 631 L227 611 C243 641 251 648 269 648 C299 648 345 615 395 615 C433 615 461 640 475 690 L430 710 C417 682 405 676 386 676 C349 676 309 710 264 710 C228 710 199 682 181 631 L181 631 Z " />
<glyph glyph-name="ograve" unicode="&#xf2;" horiz-adv-x="620" d="M308 -13 C464 -13 559 89 559 262 C559 437 464 538 309 538 C153 538 61 435 61 261 C61 89 149 -13 308 -13 L308 -13 Z M309 61 C217 61 154 127 154 262 C154 397 217 464 309 464 C401 464 466 399 466 262 C466 127 401 61 309 61 L309 61 Z M213 707 L368 582 L405 625 L260 760 L213 707 Z " />
<glyph glyph-name="oacute" unicode="&#xf3;" horiz-adv-x="620" d="M308 -13 C464 -13 559 89 559 262 C559 437 464 538 309 538 C153 538 61 435 61 261 C61 89 149 -13 308 -13 L308 -13 Z M309 61 C217 61 154 127 154 262 C154 397 217 464 309 464 C401 464 466 399 466 262 C466 127 401 61 309 61 L309 61 Z M217 624 L253 582 L409 706 L363 760 L217 624 Z " />
<glyph glyph-name="ocircumflex" unicode="&#xf4;" horiz-adv-x="620" d="M214 580 L310 692 L406 580 L449 610 L337 758 L282 758 L171 609 L214 580 Z M309 61 C217 61 154 127 154 262 C154 397 217 464 309 464 C401 464 466 399 466 262 C466 127 401 61 309 61 L309 61 Z M308 -13 C464 -13 559 89 559 262 C559 437 464 538 309 538 C153 538 61 435 61 261 C61 89 149 -13 308 -13 L308 -13 Z " />
<glyph glyph-name="otilde" unicode="&#xf5;" horiz-adv-x="620" d="M308 -13 C464 -13 559 89 559 262 C559 437 464 538 309 538 C153 538 61 435 61 261 C61 89 149 -13 308 -13 L308 -13 Z M309 61 C217 61 154 127 154 262 C154 397 217 464 309 464 C401 464 466 399 466 262 C466 127 401 61 309 61 L309 61 Z M163 631 L209 611 C225 641 233 648 251 648 C281 648 327 615 377 615 C415 615 443 640 457 690 L412 710 C399 682 387 676 368 676 C331 676 291 710 246 710 C210 710 181 682 163 631 L163 631 Z " />
<glyph glyph-name="odieresis" unicode="&#xf6;" horiz-adv-x="620" d="M308 -13 C464 -13 559 89 559 262 C559 437 464 538 309 538 C153 538 61 435 61 261 C61 89 149 -13 308 -13 L308 -13 Z M309 61 C217 61 154 127 154 262 C154 397 217 464 309 464 C401 464 466 399 466 262 C466 127 401 61 309 61 L309 61 Z M408 619 C439 619 461 641 461 668 C461 695 441 717 407 717 C375 717 354 695 354 668 C354 640 375 619 408 619 L408 619 Z M214 619 C244 619 266 641 266 668 C266 695 247 717 213 717 C181 717 159 695 159 668 C159 640 181 619 214 619 L214 619 Z " />
<glyph glyph-name="divide" unicode="&#xf7;" horiz-adv-x="620" d="M80 331 L80 268 L540 268 L540 331 L80 331 Z M309 81 C336 81 357 103 357 129 C357 155 336 178 309 178 C284 178 261 155 261 129 C261 104 284 81 309 81 L309 81 Z M310 425 C336 425 357 446 357 472 C357 499 336 521 310 521 C284 521 262 498 262 472 C262 447 284 425 310 425 L310 425 Z " />
<glyph glyph-name="oslash" unicode="&#xf8;" horiz-adv-x="620" d="M309 -13 C465 -13 560 89 560 262 C560 379 517 463 443 506 L480 593 L415 593 L388 528 C364 535 338 538 310 538 C154 538 62 435 62 261 C62 145 102 60 177 18 L139 -73 L204 -73 L233 -4 C256 -10 281 -13 309 -13 L309 -13 Z M155 262 C155 397 218 464 310 464 C328 464 344 462 360 457 L211 97 C176 130 155 184 155 262 L155 262 Z M310 61 C293 61 277 63 262 68 L410 428 C445 396 467 341 467 262 C467 127 402 61 310 61 L310 61 Z " />
<glyph glyph-name="ugrave" unicode="&#xf9;" horiz-adv-x="620" d="M259 -13 C327 -13 388 21 436 76 L441 0 L519 0 L519 525 L431 525 L431 147 C388 93 334 63 285 63 C219 63 179 103 179 191 L179 525 L91 525 L91 178 C91 62 143 -13 259 -13 L259 -13 Z M207 707 L362 582 L399 625 L254 760 L207 707 Z " />
<glyph glyph-name="uacute" unicode="&#xfa;" horiz-adv-x="620" d="M259 -13 C327 -13 388 21 436 76 L441 0 L519 0 L519 525 L431 525 L431 147 C388 93 334 63 285 63 C219 63 179 103 179 191 L179 525 L91 525 L91 178 C91 62 143 -13 259 -13 L259 -13 Z M211 624 L247 582 L403 706 L357 760 L211 624 Z " />
<glyph glyph-name="ucircumflex" unicode="&#xfb;" horiz-adv-x="620" d="M208 580 L304 692 L400 580 L443 610 L331 758 L276 758 L165 609 L208 580 Z M441 0 L519 0 L519 525 L431 525 L431 147 C388 93 334 63 285 63 C219 63 179 103 179 191 L179 525 L91 525 L91 178 C91 62 143 -13 259 -13 C327 -13 388 21 436 76 L441 0 Z " />
<glyph glyph-name="udieresis" unicode="&#xfc;" horiz-adv-x="620" d="M259 -13 C327 -13 388 21 436 76 L441 0 L519 0 L519 525 L431 525 L431 147 C388 93 334 63 285 63 C219 63 179 103 179 191 L179 525 L91 525 L91 178 C91 62 143 -13 259 -13 L259 -13 Z M402 619 C433 619 455 641 455 668 C455 695 435 717 401 717 C369 717 348 695 348 668 C348 640 369 619 402 619 L402 619 Z M208 619 C238 619 260 641 260 668 C260 695 241 717 207 717 C175 717 153 695 153 668 C153 640 175 619 208 619 L208 619 Z " />
<glyph glyph-name="yacute" unicode="&#xfd;" horiz-adv-x="620" d="M109 -128 L109 -200 L172 -200 C262 -200 304 -169 335 -80 L548 525 L457 525 L324 105 L321 105 L183 525 L89 525 L278 2 L258 -60 C240 -113 212 -128 160 -128 L109 -128 Z M226 624 L262 582 L418 706 L372 760 L226 624 Z " />
<glyph glyph-name="thorn" unicode="&#xfe;" horiz-adv-x="620" d="M90 720 L90 -200 L178 -200 L178 59 C208 23 264 -13 335 -13 C473 -13 549 98 549 264 C549 438 472 538 345 538 C276 538 221 506 177 452 L177 720 L90 720 Z M319 63 C259 63 209 97 178 143 L178 373 C215 420 262 462 325 462 C407 462 457 395 457 260 C457 127 400 63 319 63 L319 63 Z " />
<glyph glyph-name="ydieresis" unicode="&#xff;" horiz-adv-x="620" d="M109 -128 L109 -200 L172 -200 C262 -200 304 -169 335 -80 L548 525 L457 525 L324 105 L321 105 L183 525 L89 525 L278 2 L258 -60 C240 -113 212 -128 160 -128 L109 -128 Z M418 619 C449 619 471 641 471 668 C471 695 451 717 417 717 C385 717 364 695 364 668 C364 640 385 619 418 619 L418 619 Z M224 619 C254 619 276 641 276 668 C276 695 257 717 223 717 C191 717 169 695 169 668 C169 640 191 619 224 619 L224 619 Z " />
<glyph glyph-name="Amacron" unicode="&#x100;" horiz-adv-x="620" d="M255 720 L43 0 L141 0 L194 198 L417 198 L469 0 L569 0 L358 720 L255 720 Z M304 614 L308 614 L397 273 L213 273 L304 614 Z M169 850 L169 790 L444 790 L444 850 L169 850 Z " />
<glyph glyph-name="amacron" unicode="&#x101;" horiz-adv-x="620" d="M252 -13 C343 -13 405 22 445 91 L452 0 L526 0 L526 353 C526 471 447 538 313 538 C238 538 162 513 101 463 L131 404 C187 445 248 468 305 468 C396 467 438 433 438 350 L438 299 C403 304 363 306 318 306 C151 306 77 228 77 131 C77 49 141 -13 252 -13 L252 -13 Z M273 50 C204 50 164 86 164 138 C164 199 210 240 323 240 C362 240 403 238 438 233 L438 209 C438 118 366 50 273 50 L273 50 Z M176 680 L176 620 L451 620 L451 680 L176 680 Z " />
<glyph glyph-name="Abreve" unicode="&#x102;" horiz-adv-x="620" d="M255 720 L43 0 L141 0 L194 198 L417 198 L469 0 L569 0 L358 720 L255 720 Z M304 614 L308 614 L397 273 L213 273 L304 614 Z M306 755 C378 755 420 794 431 864 L373 872 C365 824 341 805 307 805 C269 805 245 829 237 872 L179 863 C190 789 236 755 306 755 L306 755 Z " />
<glyph glyph-name="abreve" unicode="&#x103;" horiz-adv-x="620" d="M252 -13 C343 -13 405 22 445 91 L452 0 L526 0 L526 353 C526 471 447 538 313 538 C238 538 162 513 101 463 L131 404 C187 445 248 468 305 468 C396 467 438 433 438 350 L438 299 C403 304 363 306 318 306 C151 306 77 228 77 131 C77 49 141 -13 252 -13 L252 -13 Z M273 50 C204 50 164 86 164 138 C164 199 210 240 323 240 C362 240 403 238 438 233 L438 209 C438 118 366 50 273 50 L273 50 Z M314 585 C384 585 442 629 450 734 L394 744 C388 670 361 640 315 640 C271 640 242 666 233 744 L175 733 C188 624 242 585 314 585 L314 585 Z " />
<glyph glyph-name="Aogonek" unicode="&#x104;" horiz-adv-x="620" d="M501 -225 C538 -225 574 -208 597 -194 L578 -151 C557 -161 541 -168 521 -168 C495 -168 482 -157 482 -131 C482 -88 517 -47 569 0 L358 720 L255 720 L43 0 L141 0 L194 198 L417 198 L469 0 L499 0 C454 -39 412 -91 412 -146 C412 -192 441 -225 501 -225 L501 -225 Z M304 614 L308 614 L397 273 L213 273 L304 614 Z " />
<glyph glyph-name="aogonek" unicode="&#x105;" horiz-adv-x="620" d="M252 -13 C343 -13 405 22 445 91 L452 0 L456 0 C411 -39 369 -91 369 -146 C369 -192 398 -225 458 -225 C495 -225 531 -208 554 -194 L535 -151 C514 -161 498 -168 478 -168 C452 -168 439 -157 439 -131 C439 -88 474 -47 526 0 L526 353 C526 471 447 538 313 538 C238 538 162 513 101 463 L131 404 C187 445 248 468 305 468 C396 467 438 433 438 350 L438 299 C403 304 363 306 318 306 C151 306 77 228 77 131 C77 49 141 -13 252 -13 L252 -13 Z M273 50 C204 50 164 86 164 138 C164 199 210 240 323 240 C362 240 403 238 438 233 L438 209 C438 118 366 50 273 50 L273 50 Z " />
<glyph glyph-name="Cacute" unicode="&#x106;" horiz-adv-x="620" d="M325 -13 C410 -13 487 21 555 96 L508 158 C451 98 397 71 330 71 C216 71 149 173 149 364 C149 551 214 650 330 650 C415 650 459 580 465 502 L556 502 C552 649 452 733 331 733 C153 733 51 603 51 362 C51 118 150 -13 325 -13 L325 -13 Z M235 802 L261 755 L440 840 L407 902 L235 802 Z " />
<glyph glyph-name="cacute" unicode="&#x107;" horiz-adv-x="620" d="M326 -13 C408 -13 475 13 538 68 L508 125 C452 81 398 61 341 61 C228 61 168 148 168 262 C168 388 229 465 331 465 C406 465 457 426 467 343 L544 343 C538 465 461 538 328 538 C180 538 75 432 75 260 C75 91 176 -13 326 -13 L326 -13 Z M236 624 L272 582 L428 706 L382 760 L236 624 Z " />
<glyph glyph-name="Ccircumflex" unicode="&#x108;" horiz-adv-x="620" d="M325 -13 C410 -13 487 21 555 96 L508 158 C451 98 397 71 330 71 C216 71 149 173 149 364 C149 551 214 650 330 650 C415 650 459 580 465 502 L556 502 C552 649 452 733 331 733 C153 733 51 603 51 362 C51 118 150 -13 325 -13 L325 -13 Z M199 796 L235 763 L324 830 L413 763 L448 796 L353 889 L295 889 L199 796 Z " />
<glyph glyph-name="ccircumflex" unicode="&#x109;" horiz-adv-x="620" d="M233 580 L329 692 L425 580 L468 610 L356 758 L301 758 L190 609 L233 580 Z M508 125 C452 81 398 61 341 61 C228 61 168 148 168 262 C168 388 229 465 331 465 C406 465 457 426 467 343 L544 343 C538 465 461 538 328 538 C180 538 75 432 75 260 C75 91 176 -13 326 -13 C408 -13 475 13 538 68 L508 125 Z " />
<glyph glyph-name="Cdotaccent" unicode="&#x10a;" horiz-adv-x="620" d="M325 -13 C410 -13 487 21 555 96 L508 158 C451 98 397 71 330 71 C216 71 149 173 149 364 C149 551 214 650 330 650 C415 650 459 580 465 502 L556 502 C552 649 452 733 331 733 C153 733 51 603 51 362 C51 118 150 -13 325 -13 L325 -13 Z M323 785 C355 785 379 804 379 834 C379 865 355 884 323 884 C290 884 265 865 265 834 C265 804 291 785 323 785 L323 785 Z " />
<glyph glyph-name="cdotaccent" unicode="&#x10b;" horiz-adv-x="620" d="M326 -13 C408 -13 475 13 538 68 L508 125 C452 81 398 61 341 61 C228 61 168 148 168 262 C168 388 229 465 331 465 C406 465 457 426 467 343 L544 343 C538 465 461 538 328 538 C180 538 75 432 75 260 C75 91 176 -13 326 -13 L326 -13 Z M329 619 C361 619 385 638 385 668 C385 699 361 718 329 718 C296 718 271 699 271 668 C271 638 297 619 329 619 L329 619 Z " />
<glyph glyph-name="Ccaron" unicode="&#x10c;" horiz-adv-x="620" d="M292 758 L350 758 L445 851 L410 884 L321 817 L232 884 L196 851 L292 758 Z M508 158 C451 98 397 71 330 71 C216 71 149 173 149 364 C149 551 214 650 330 650 C415 650 459 580 465 502 L556 502 C552 649 452 733 331 733 C153 733 51 603 51 362 C51 118 150 -13 325 -13 C410 -13 487 21 555 96 L508 158 Z " />
<glyph glyph-name="ccaron" unicode="&#x10d;" horiz-adv-x="620" d="M326 -13 C408 -13 475 13 538 68 L508 125 C452 81 398 61 341 61 C228 61 168 148 168 262 C168 388 229 465 331 465 C406 465 457 426 467 343 L544 343 C538 465 461 538 328 538 C180 538 75 432 75 260 C75 91 176 -13 326 -13 L326 -13 Z M190 738 L301 589 L356 589 L468 737 L425 767 L329 655 L233 767 L190 738 Z " />
<glyph glyph-name="Dcaron" unicode="&#x10e;" horiz-adv-x="620" d="M263 758 L321 758 L416 851 L381 884 L292 817 L203 884 L167 851 L263 758 Z M157 82 L157 638 L279 638 C418 638 473 546 473 359 C473 173 418 82 279 82 L157 82 Z M65 720 L65 0 L264 0 C476 0 570 119 570 359 C570 600 480 720 276 720 L65 720 Z " />
<glyph glyph-name="dcaron" unicode="&#x10f;" horiz-adv-x="620" d="M284 -13 C342 -13 401 13 443 69 L446 0 L526 0 L526 720 L438 720 L438 473 C404 514 343 538 289 538 C156 538 67 429 67 256 C67 96 143 -13 284 -13 L284 -13 Z M298 63 C209 63 159 132 159 258 C159 393 219 464 299 464 C352 464 397 440 438 389 L438 145 C401 88 345 63 298 63 L298 63 Z M611 720 L577 537 L634 537 L684 720 L611 720 Z " />
<glyph glyph-name="Dcroat" unicode="&#x110;" horiz-adv-x="620" d="M33 398 L33 332 L105 332 L105 0 L267 0 C479 0 576 119 576 359 C576 600 483 720 279 720 L105 720 L105 398 L33 398 Z M282 82 L198 82 L198 332 L351 332 L351 398 L198 398 L198 638 L282 638 C421 638 479 546 479 359 C479 173 421 82 282 82 L282 82 Z " />
<glyph glyph-name="dcroat" unicode="&#x111;" horiz-adv-x="620" d="M284 -13 C342 -13 401 13 443 69 L446 0 L526 0 L526 591 L607 591 L607 647 L526 647 L526 720 L438 720 L438 647 L293 647 L293 591 L438 591 L438 473 C404 514 343 538 289 538 C156 538 67 429 67 256 C67 96 143 -13 284 -13 L284 -13 Z M298 63 C209 63 159 132 159 258 C159 393 219 464 299 464 C352 464 397 440 438 389 L438 145 C401 88 345 63 298 63 L298 63 Z " />
<glyph glyph-name="Emacron" unicode="&#x112;" horiz-adv-x="620" d="M96 720 L96 0 L550 0 L550 79 L188 79 L188 330 L511 330 L511 407 L188 407 L188 639 L543 639 L543 720 L96 720 Z M183 850 L183 790 L458 790 L458 850 L183 850 Z " />
<glyph glyph-name="emacron" unicode="&#x113;" horiz-adv-x="620" d="M329 -13 C406 -13 482 14 537 59 L506 118 C451 79 397 61 340 61 C228 61 169 129 167 235 L548 235 C550 249 551 266 551 282 C551 450 468 538 325 538 C177 538 73 425 73 259 C73 80 177 -13 329 -13 L329 -13 Z M465 307 L166 307 C174 402 238 468 323 468 C421 468 463 401 465 307 L465 307 Z M188 680 L188 620 L463 620 L463 680 L188 680 Z " />
<glyph glyph-name="Ebreve" unicode="&#x114;" horiz-adv-x="620" d="M96 720 L96 0 L550 0 L550 79 L188 79 L188 330 L511 330 L511 407 L188 407 L188 639 L543 639 L543 720 L96 720 Z M320 755 C392 755 434 794 445 864 L387 872 C379 824 355 805 321 805 C283 805 259 829 251 872 L193 863 C204 789 250 755 320 755 L320 755 Z " />
<glyph glyph-name="ebreve" unicode="&#x115;" horiz-adv-x="620" d="M329 -13 C406 -13 482 14 537 59 L506 118 C451 79 397 61 340 61 C228 61 169 129 167 235 L548 235 C550 249 551 266 551 282 C551 450 468 538 325 538 C177 538 73 425 73 259 C73 80 177 -13 329 -13 L329 -13 Z M465 307 L166 307 C174 402 238 468 323 468 C421 468 463 401 465 307 L465 307 Z M326 585 C396 585 454 629 462 734 L406 744 C400 670 373 640 327 640 C283 640 254 666 245 744 L187 733 C200 624 254 585 326 585 L326 585 Z " />
<glyph glyph-name="Edotaccent" unicode="&#x116;" horiz-adv-x="620" d="M96 720 L96 0 L550 0 L550 79 L188 79 L188 330 L511 330 L511 407 L188 407 L188 639 L543 639 L543 720 L96 720 Z M321 785 C353 785 377 804 377 834 C377 865 353 884 321 884 C288 884 263 865 263 834 C263 804 289 785 321 785 L321 785 Z " />
<glyph glyph-name="edotaccent" unicode="&#x117;" horiz-adv-x="620" d="M329 -13 C406 -13 482 14 537 59 L506 118 C451 79 397 61 340 61 C228 61 169 129 167 235 L548 235 C550 249 551 266 551 282 C551 450 468 538 325 538 C177 538 73 425 73 259 C73 80 177 -13 329 -13 L329 -13 Z M465 307 L166 307 C174 402 238 468 323 468 C421 468 463 401 465 307 L465 307 Z M325 619 C357 619 381 638 381 668 C381 699 357 718 325 718 C292 718 267 699 267 668 C267 638 293 619 325 619 L325 619 Z " />
<glyph glyph-name="Eogonek" unicode="&#x118;" horiz-adv-x="620" d="M482 -224 C519 -224 555 -207 578 -193 L559 -150 C538 -160 522 -167 502 -167 C476 -167 463 -156 463 -130 C463 -87 498 -47 549 0 L550 0 L550 79 L188 79 L188 330 L511 330 L511 407 L188 407 L188 639 L543 639 L543 720 L96 720 L96 0 L479 0 C435 -39 393 -90 393 -145 C393 -191 422 -224 482 -224 L482 -224 Z " />
<glyph glyph-name="eogonek" unicode="&#x119;" horiz-adv-x="620" d="M349 -226 C386 -226 423 -210 445 -195 L426 -152 C406 -162 389 -169 369 -169 C343 -169 330 -158 330 -132 C330 -89 370 -30 445 7 C478 24 504 38 536 60 L506 118 C451 79 397 61 340 61 C229 61 168 130 167 239 L548 239 C549 251 551 266 551 282 C551 450 468 538 325 538 C177 538 74 424 74 259 C74 91 167 -14 334 -13 C295 -50 260 -98 260 -147 C260 -194 289 -226 349 -226 L349 -226 Z M465 304 L166 304 C174 403 238 468 323 468 C421 468 463 402 465 304 L465 304 Z " />
<glyph glyph-name="Ecaron" unicode="&#x11a;" horiz-adv-x="620" d="M290 758 L348 758 L443 851 L408 884 L319 817 L230 884 L194 851 L290 758 Z M96 720 L96 0 L550 0 L550 79 L188 79 L188 330 L511 330 L511 407 L188 407 L188 639 L543 639 L543 720 L96 720 Z " />
<glyph glyph-name="ecaron" unicode="&#x11b;" horiz-adv-x="620" d="M329 -13 C406 -13 482 14 537 59 L506 118 C451 79 397 61 340 61 C228 61 169 129 167 235 L548 235 C550 249 551 266 551 282 C551 450 468 538 325 538 C177 538 73 425 73 259 C73 80 177 -13 329 -13 L329 -13 Z M465 307 L166 307 C174 402 238 468 323 468 C421 468 463 401 465 307 L465 307 Z M186 738 L297 589 L352 589 L464 737 L421 767 L325 655 L229 767 L186 738 Z " />
<glyph glyph-name="Gcircumflex" unicode="&#x11c;" horiz-adv-x="620" d="M321 -13 C408 -13 491 18 552 75 L552 368 L337 368 L337 296 L468 296 L468 119 C431 84 386 67 325 67 C212 67 146 154 146 357 C146 561 221 649 319 649 C407 649 454 588 457 511 L549 511 C544 632 482 733 320 733 C162 733 48 616 48 355 C48 107 156 -13 321 -13 L321 -13 Z M200 796 L236 763 L325 830 L414 763 L449 796 L354 889 L296 889 L200 796 Z " />
<glyph glyph-name="gcircumflex" unicode="&#x11d;" horiz-adv-x="620" d="M216 580 L312 692 L408 580 L451 610 L339 758 L284 758 L173 609 L216 580 Z M438 149 C402 93 347 67 298 67 C210 67 159 136 159 259 C159 394 219 464 299 464 C351 464 396 441 438 389 L438 149 Z M136 -128 L136 -200 L310 -200 C451 -200 526 -134 526 11 L526 525 L447 525 L444 468 C404 513 346 538 290 538 C151 538 67 424 67 257 C67 98 145 -9 283 -9 C339 -9 398 15 441 72 L441 7 C441 -82 395 -128 316 -128 L136 -128 Z " />
<glyph glyph-name="Gbreve" unicode="&#x11e;" horiz-adv-x="620" d="M321 -13 C408 -13 491 18 552 75 L552 368 L337 368 L337 296 L468 296 L468 119 C431 84 386 67 325 67 C212 67 146 154 146 357 C146 561 221 649 319 649 C407 649 454 588 457 511 L549 511 C544 632 482 733 320 733 C162 733 48 616 48 355 C48 107 156 -13 321 -13 L321 -13 Z M323 755 C395 755 437 794 448 864 L390 872 C382 824 358 805 324 805 C286 805 262 829 254 872 L196 863 C207 789 253 755 323 755 L323 755 Z " />
<glyph glyph-name="gbreve" unicode="&#x11f;" horiz-adv-x="620" d="M136 -128 L136 -200 L310 -200 C451 -200 526 -134 526 11 L526 525 L447 525 L444 468 C404 513 346 538 290 538 C151 538 67 424 67 257 C67 98 145 -9 283 -9 C339 -9 398 15 441 72 L441 7 C441 -82 395 -128 316 -128 L136 -128 Z M298 67 C210 67 159 136 159 259 C159 394 219 464 299 464 C351 464 396 441 438 389 L438 149 C402 93 347 67 298 67 L298 67 Z M313 585 C383 585 441 629 449 734 L393 744 C387 670 360 640 314 640 C270 640 241 666 232 744 L174 733 C187 624 241 585 313 585 L313 585 Z " />
<glyph glyph-name="Gdotaccent" unicode="&#x120;" horiz-adv-x="620" d="M321 -13 C408 -13 491 18 552 75 L552 368 L337 368 L337 296 L468 296 L468 119 C431 84 386 67 325 67 C212 67 146 154 146 357 C146 561 221 649 319 649 C407 649 454 588 457 511 L549 511 C544 632 482 733 320 733 C162 733 48 616 48 355 C48 107 156 -13 321 -13 L321 -13 Z M324 785 C356 785 380 804 380 834 C380 865 356 884 324 884 C291 884 266 865 266 834 C266 804 292 785 324 785 L324 785 Z " />
<glyph glyph-name="gdotaccent" unicode="&#x121;" horiz-adv-x="620" d="M136 -128 L136 -200 L310 -200 C451 -200 526 -134 526 11 L526 525 L447 525 L444 468 C404 513 346 538 290 538 C151 538 67 424 67 257 C67 98 145 -9 283 -9 C339 -9 398 15 441 72 L441 7 C441 -82 395 -128 316 -128 L136 -128 Z M298 67 C210 67 159 136 159 259 C159 394 219 464 299 464 C351 464 396 441 438 389 L438 149 C402 93 347 67 298 67 L298 67 Z M312 619 C344 619 368 638 368 668 C368 699 344 718 312 718 C279 718 254 699 254 668 C254 638 280 619 312 619 L312 619 Z " />
<glyph glyph-name="uni0122" unicode="&#x122;" horiz-adv-x="620" d="M321 -13 C408 -13 491 18 552 75 L552 368 L337 368 L337 296 L468 296 L468 119 C431 84 386 67 325 67 C212 67 146 154 146 357 C146 561 221 649 319 649 C407 649 454 588 457 511 L549 511 C544 632 482 733 320 733 C162 733 48 616 48 355 C48 107 156 -13 321 -13 L321 -13 Z M251 -218 L306 -234 L365 -73 L292 -56 L251 -218 Z " />
<glyph glyph-name="uni0123" unicode="&#x123;" horiz-adv-x="620" d="M136 -128 L136 -200 L310 -200 C451 -200 526 -134 526 11 L526 525 L447 525 L444 468 C404 513 346 538 290 538 C151 538 67 424 67 257 C67 98 145 -9 283 -9 C339 -9 398 15 441 72 L441 7 C441 -82 395 -128 316 -128 L136 -128 Z M298 67 C210 67 159 136 159 259 C159 394 219 464 299 464 C351 464 396 441 438 389 L438 149 C402 93 347 67 298 67 L298 67 Z M252 606 L327 587 L371 755 L312 770 L252 606 Z " />
<glyph glyph-name="Hcircumflex" unicode="&#x124;" horiz-adv-x="620" d="M65 720 L65 0 L157 0 L157 332 L463 332 L463 0 L555 0 L555 720 L463 720 L463 415 L157 415 L157 720 L65 720 Z M187 796 L223 763 L312 830 L401 763 L436 796 L341 889 L283 889 L187 796 Z " />
<glyph glyph-name="hcircumflex" unicode="&#x125;" horiz-adv-x="620" d="M97 720 L97 0 L185 0 L185 378 C229 432 281 463 336 463 C427 463 446 396 446 325 L446 0 L534 0 L534 344 C534 465 482 538 364 538 C291 538 230 506 185 455 L185 720 L97 720 Z M27 775 L63 742 L152 809 L241 742 L276 775 L181 868 L123 868 L27 775 Z " />
<glyph glyph-name="Hbar" unicode="&#x126;" horiz-adv-x="620" d="M10 604 L10 538 L65 538 L65 0 L157 0 L157 332 L463 332 L463 0 L555 0 L555 538 L610 538 L610 604 L555 604 L555 720 L463 720 L463 604 L157 604 L157 720 L65 720 L65 604 L10 604 Z M157 415 L157 538 L463 538 L463 415 L157 415 Z " />
<glyph glyph-name="hbar" unicode="&#x127;" horiz-adv-x="620" d="M42 646 L42 591 L110 591 L110 0 L198 0 L198 378 C242 432 294 463 349 463 C440 463 459 396 459 325 L459 0 L547 0 L547 344 C547 465 495 538 377 538 C304 538 243 506 198 455 L198 591 L340 591 L340 646 L198 646 L198 720 L110 720 L110 646 L42 646 Z " />
<glyph glyph-name="Itilde" unicode="&#x128;" horiz-adv-x="620" d="M112 77 L112 0 L509 0 L509 77 L356 77 L356 643 L509 643 L509 720 L112 720 L112 643 L264 643 L264 77 L112 77 Z M163 804 L209 784 C225 814 233 821 251 821 C281 821 327 788 377 788 C415 788 443 813 457 863 L412 883 C399 855 387 849 368 849 C331 849 291 883 246 883 C210 883 181 855 163 804 L163 804 Z " />
<glyph glyph-name="itilde" unicode="&#x129;" horiz-adv-x="620" d="M105 70 L105 0 L544 0 L544 70 L368 70 L368 525 L105 525 L105 455 L281 455 L281 70 L105 70 Z M178 631 L224 611 C240 641 248 648 266 648 C296 648 342 615 392 615 C430 615 458 640 472 690 L427 710 C414 682 402 676 383 676 C346 676 306 710 261 710 C225 710 196 682 178 631 L178 631 Z " />
<glyph glyph-name="Imacron" unicode="&#x12a;" horiz-adv-x="620" d="M112 77 L112 0 L509 0 L509 77 L356 77 L356 643 L509 643 L509 720 L112 720 L112 643 L264 643 L264 77 L112 77 Z M173 850 L173 790 L448 790 L448 850 L173 850 Z " />
<glyph glyph-name="imacron" unicode="&#x12b;" horiz-adv-x="620" d="M105 70 L105 0 L544 0 L544 70 L368 70 L368 525 L105 525 L105 455 L281 455 L281 70 L105 70 Z M188 680 L188 620 L463 620 L463 680 L188 680 Z " />
<glyph glyph-name="Ibreve" unicode="&#x12c;" horiz-adv-x="620" d="M112 77 L112 0 L509 0 L509 77 L356 77 L356 643 L509 643 L509 720 L112 720 L112 643 L264 643 L264 77 L112 77 Z M310 755 C382 755 424 794 435 864 L377 872 C369 824 345 805 311 805 C273 805 249 829 241 872 L183 863 C194 789 240 755 310 755 L310 755 Z " />
<glyph glyph-name="ibreve" unicode="&#x12d;" horiz-adv-x="620" d="M105 70 L105 0 L544 0 L544 70 L368 70 L368 525 L105 525 L105 455 L281 455 L281 70 L105 70 Z M326 585 C396 585 454 629 462 734 L406 744 C400 670 373 640 327 640 C283 640 254 666 245 744 L187 733 C200 624 254 585 326 585 L326 585 Z " />
<glyph glyph-name="Iogonek" unicode="&#x12e;" horiz-adv-x="620" d="M112 77 L112 0 L440 0 C395 -39 353 -91 353 -146 C353 -192 382 -225 442 -225 C479 -225 515 -208 538 -194 L519 -151 C498 -161 482 -168 462 -168 C436 -168 423 -157 423 -131 C423 -88 458 -47 510 0 L509 3 L509 77 L356 77 L356 643 L509 643 L509 720 L112 720 L112 643 L264 643 L264 77 L112 77 Z " />
<glyph glyph-name="iogonek" unicode="&#x12f;" horiz-adv-x="620" d="M327 619 C364 619 389 640 389 675 C389 710 363 731 327 731 C292 731 264 710 264 675 C264 640 292 619 327 619 L327 619 Z M108 70 L108 0 L476 0 C431 -39 389 -91 389 -146 C389 -192 418 -225 478 -225 C515 -225 551 -208 574 -194 L555 -151 C534 -161 518 -168 498 -168 C472 -168 459 -157 459 -131 C459 -88 494 -47 546 0 L546 70 L371 70 L371 525 L108 525 L108 455 L284 455 L284 70 L108 70 Z " />
<glyph glyph-name="Idotaccent" unicode="&#x130;" horiz-adv-x="620" d="M112 77 L112 0 L509 0 L509 77 L356 77 L356 643 L509 643 L509 720 L112 720 L112 643 L264 643 L264 77 L112 77 Z M311 785 C343 785 367 804 367 834 C367 865 343 884 311 884 C278 884 253 865 253 834 C253 804 279 785 311 785 L311 785 Z " />
<glyph glyph-name="dotlessi" unicode="&#x131;" horiz-adv-x="620" d="M105 70 L105 0 L544 0 L544 70 L368 70 L368 525 L105 525 L105 455 L281 455 L281 70 L105 70 Z " />
<glyph glyph-name="IJ" unicode="&#x132;" horiz-adv-x="620" d="M187 79 L187 0 L365 0 C490 0 560 77 560 214 L560 720 L47 720 L47 643 L166 643 L166 286 L46 286 L46 208 L376 208 L376 286 L256 286 L256 643 L468 643 L468 214 C468 127 425 79 350 79 L187 79 Z " />
<glyph glyph-name="ij" unicode="&#x133;" horiz-adv-x="620" d="M254 -132 L254 -204 L402 -204 C488 -204 533 -157 533 -68 L533 525 L58 525 L58 459 L186 459 L186 66 L58 66 L58 0 L376 0 L376 66 L273 66 L273 459 L445 459 L445 -62 C445 -109 425 -132 389 -132 L254 -132 Z M230 619 C267 619 292 640 292 675 C292 710 267 731 230 731 C195 731 167 710 167 675 C167 640 195 619 230 619 L230 619 Z M491 619 C527 619 553 640 553 675 C553 710 527 731 491 731 C455 731 428 710 428 675 C428 640 456 619 491 619 L491 619 Z " />
<glyph glyph-name="Jcircumflex" unicode="&#x134;" horiz-adv-x="620" d="M101 79 L101 0 L287 0 C412 0 482 77 482 214 L482 720 L99 720 L99 640 L389 640 L389 214 C389 127 346 79 271 79 L101 79 Z M179 796 L215 763 L304 830 L393 763 L428 796 L333 889 L275 889 L179 796 Z " />
<glyph glyph-name="jcircumflex" unicode="&#x135;" horiz-adv-x="620" d="M286 580 L382 692 L478 580 L521 610 L409 758 L354 758 L243 609 L286 580 Z M149 -132 L149 -204 L298 -204 C384 -204 428 -157 428 -68 L428 525 L147 525 L147 459 L340 459 L340 -62 C340 -109 321 -132 284 -132 L149 -132 Z " />
<glyph glyph-name="uni0136" unicode="&#x136;" horiz-adv-x="620" d="M99 720 L99 0 L188 0 L191 333 L296 333 L482 0 L587 0 L376 374 L577 720 L474 720 L296 410 L191 410 L191 720 L99 720 Z M239 -218 L294 -234 L353 -73 L280 -56 L239 -218 Z " />
<glyph glyph-name="uni0137" unicode="&#x137;" horiz-adv-x="620" d="M119 720 L119 0 L207 0 L207 254 L273 254 L471 0 L576 0 L351 292 L551 525 L450 525 L277 327 L207 327 L207 720 L119 720 Z M254 -218 L309 -234 L368 -73 L295 -56 L254 -218 Z " />
<glyph glyph-name="kgreenlandic" unicode="&#x138;" horiz-adv-x="620" d="M115 525 L115 0 L203 0 L203 234 L270 234 L467 0 L572 0 L347 271 L548 525 L446 525 L273 307 L203 307 L203 525 L115 525 Z " />
<glyph glyph-name="Lacute" unicode="&#x139;" horiz-adv-x="620" d="M127 720 L127 0 L556 0 L556 81 L219 81 L219 720 L127 720 Z M86 802 L112 755 L291 840 L258 902 L86 802 Z " />
<glyph glyph-name="lacute" unicode="&#x13a;" horiz-adv-x="620" d="M91 66 L91 0 L529 0 L529 66 L354 66 L354 720 L100 720 L100 654 L266 654 L266 66 L91 66 Z M207 802 L233 755 L412 840 L379 902 L207 802 Z " />
<glyph glyph-name="uni013B" unicode="&#x13b;" horiz-adv-x="620" d="M127 720 L127 0 L556 0 L556 81 L219 81 L219 720 L127 720 Z M258 -218 L313 -234 L372 -73 L299 -56 L258 -218 Z " />
<glyph glyph-name="uni013C" unicode="&#x13c;" horiz-adv-x="620" d="M91 66 L91 0 L529 0 L529 66 L354 66 L354 720 L100 720 L100 654 L266 654 L266 66 L91 66 Z M228 -218 L283 -234 L342 -73 L269 -56 L228 -218 Z " />
<glyph glyph-name="Lcaron" unicode="&#x13d;" horiz-adv-x="620" d="M127 720 L127 0 L556 0 L556 81 L219 81 L219 720 L127 720 Z M328 720 L294 537 L351 537 L401 720 L328 720 Z " />
<glyph glyph-name="lcaron" unicode="&#x13e;" horiz-adv-x="620" d="M91 66 L91 0 L529 0 L529 66 L354 66 L354 720 L100 720 L100 654 L266 654 L266 66 L91 66 Z M439 720 L405 537 L462 537 L512 720 L439 720 Z " />
<glyph glyph-name="Ldot" unicode="&#x13f;" horiz-adv-x="620" d="M127 720 L127 0 L556 0 L556 81 L219 81 L219 720 L127 720 Z M482 315 C518 315 543 338 543 373 C543 409 518 431 482 431 C446 431 422 409 422 372 C422 338 445 315 482 315 L482 315 Z " />
<glyph glyph-name="ldot" unicode="&#x140;" horiz-adv-x="620" d="M91 66 L91 0 L529 0 L529 66 L354 66 L354 720 L100 720 L100 654 L266 654 L266 66 L91 66 Z M619 296 C655 296 680 319 680 354 C680 390 655 412 619 412 C583 412 559 390 559 353 C559 319 582 296 619 296 L619 296 Z " />
<glyph glyph-name="Lslash" unicode="&#x141;" horiz-adv-x="620" d="M40 330 L40 262 L130 295 L130 0 L559 0 L559 81 L222 81 L222 327 L438 410 L438 478 L222 395 L222 720 L130 720 L130 363 L40 330 Z " />
<glyph glyph-name="lslash" unicode="&#x142;" horiz-adv-x="620" d="M108 66 L108 0 L546 0 L546 66 L371 66 L371 358 L506 419 L506 483 L371 421 L371 720 L117 720 L117 654 L283 654 L283 392 L137 327 L137 264 L283 329 L283 66 L108 66 Z " />
<glyph glyph-name="Nacute" unicode="&#x143;" horiz-adv-x="620" d="M73 720 L73 0 L163 0 L163 544 L166 544 L465 0 L547 0 L547 720 L457 720 L457 176 L455 176 L157 720 L73 720 Z M220 802 L246 755 L425 840 L392 902 L220 802 Z " />
<glyph glyph-name="nacute" unicode="&#x144;" horiz-adv-x="620" d="M92 525 L92 0 L180 0 L180 378 C204 409 260 463 328 463 C406 463 441 418 441 327 L441 0 L529 0 L529 343 C529 458 483 538 356 538 C281 538 218 501 174 449 L170 525 L92 525 Z M235 624 L271 582 L427 706 L381 760 L235 624 Z " />
<glyph glyph-name="uni0145" unicode="&#x145;" horiz-adv-x="620" d="M73 720 L73 0 L163 0 L163 544 L166 544 L465 0 L547 0 L547 720 L457 720 L457 176 L455 176 L157 720 L73 720 Z M245 -220 L300 -236 L359 -75 L286 -58 L245 -220 Z " />
<glyph glyph-name="uni0146" unicode="&#x146;" horiz-adv-x="620" d="M92 525 L92 0 L180 0 L180 378 C204 409 260 463 328 463 C406 463 441 418 441 327 L441 0 L529 0 L529 343 C529 458 483 538 356 538 C281 538 218 501 174 449 L170 525 L92 525 Z M246 -218 L301 -234 L360 -73 L287 -56 L246 -218 Z " />
<glyph glyph-name="Ncaron" unicode="&#x147;" horiz-adv-x="620" d="M277 758 L335 758 L430 851 L395 884 L306 817 L217 884 L181 851 L277 758 Z M73 720 L73 0 L163 0 L163 544 L166 544 L465 0 L547 0 L547 720 L457 720 L457 176 L455 176 L157 720 L73 720 Z " />
<glyph glyph-name="ncaron" unicode="&#x148;" horiz-adv-x="620" d="M92 525 L92 0 L180 0 L180 378 C204 409 260 463 328 463 C406 463 441 418 441 327 L441 0 L529 0 L529 343 C529 458 483 538 356 538 C281 538 218 501 174 449 L170 525 L92 525 Z M189 738 L300 589 L355 589 L467 737 L424 767 L328 655 L232 767 L189 738 Z " />
<glyph glyph-name="Eng" unicode="&#x14a;" horiz-adv-x="620" d="M281 -127 L281 -200 L359 -200 C489 -200 547 -150 547 -13 L547 720 L457 720 L457 183 L455 183 L157 720 L73 720 L73 0 L163 0 L163 544 L166 544 L464 12 L464 -20 C464 -101 432 -127 347 -127 L281 -127 Z " />
<glyph glyph-name="eng" unicode="&#x14b;" horiz-adv-x="620" d="M332 -132 L332 -200 L377 -200 C489 -200 529 -158 529 -39 L529 343 C529 458 483 538 356 538 C281 538 218 501 174 449 L170 525 L92 525 L92 0 L180 0 L180 378 C204 409 260 463 328 463 C406 463 441 418 441 327 L441 -38 C441 -113 423 -132 367 -132 L332 -132 Z " />
<glyph glyph-name="Omacron" unicode="&#x14c;" horiz-adv-x="620" d="M309 -13 C485 -13 576 117 576 368 C576 608 487 733 316 733 C137 733 44 608 44 368 C44 117 135 -13 309 -13 L309 -13 Z M314 72 C201 72 142 173 142 368 C142 553 201 649 312 649 C421 649 479 553 479 368 C479 173 422 72 314 72 L314 72 Z M178 850 L178 790 L453 790 L453 850 L178 850 Z " />
<glyph glyph-name="omacron" unicode="&#x14d;" horiz-adv-x="620" d="M308 -13 C464 -13 559 89 559 262 C559 437 464 538 309 538 C153 538 61 435 61 261 C61 89 149 -13 308 -13 L308 -13 Z M309 61 C217 61 154 127 154 262 C154 397 217 464 309 464 C401 464 466 399 466 262 C466 127 401 61 309 61 L309 61 Z M173 680 L173 620 L448 620 L448 680 L173 680 Z " />
<glyph glyph-name="Obreve" unicode="&#x14e;" horiz-adv-x="620" d="M309 -13 C485 -13 576 117 576 368 C576 608 487 733 316 733 C137 733 44 608 44 368 C44 117 135 -13 309 -13 L309 -13 Z M314 72 C201 72 142 173 142 368 C142 553 201 649 312 649 C421 649 479 553 479 368 C479 173 422 72 314 72 L314 72 Z M315 755 C387 755 429 794 440 864 L382 872 C374 824 350 805 316 805 C278 805 254 829 246 872 L188 863 C199 789 245 755 315 755 L315 755 Z " />
<glyph glyph-name="obreve" unicode="&#x14f;" horiz-adv-x="620" d="M308 -13 C464 -13 559 89 559 262 C559 437 464 538 309 538 C153 538 61 435 61 261 C61 89 149 -13 308 -13 L308 -13 Z M309 61 C217 61 154 127 154 262 C154 397 217 464 309 464 C401 464 466 399 466 262 C466 127 401 61 309 61 L309 61 Z M311 585 C381 585 439 629 447 734 L391 744 C385 670 358 640 312 640 C268 640 239 666 230 744 L172 733 C185 624 239 585 311 585 L311 585 Z " />
<glyph glyph-name="Ohungarumlaut" unicode="&#x150;" horiz-adv-x="620" d="M309 -13 C485 -13 576 117 576 368 C576 608 487 733 316 733 C137 733 44 608 44 368 C44 117 135 -13 309 -13 L309 -13 Z M314 72 C201 72 142 173 142 368 C142 553 201 649 312 649 C421 649 479 553 479 368 C479 173 422 72 314 72 L314 72 Z M163 786 L204 754 L338 890 L285 932 L163 786 Z M302 788 L341 754 L469 875 L419 919 L302 788 Z " />
<glyph glyph-name="ohungarumlaut" unicode="&#x151;" horiz-adv-x="620" d="M308 -13 C464 -13 559 89 559 262 C559 437 464 538 309 538 C153 538 61 435 61 261 C61 89 149 -13 308 -13 L308 -13 Z M309 61 C217 61 154 127 154 262 C154 397 217 464 309 464 C401 464 466 399 466 262 C466 127 401 61 309 61 L309 61 Z M162 609 L205 581 L331 720 L277 757 L162 609 Z M296 610 L337 581 L458 706 L406 745 L296 610 Z " />
<glyph glyph-name="OE" unicode="&#x152;" horiz-adv-x="620" d="M288 0 L580 0 L580 79 L425 79 L425 330 L570 330 L570 407 L425 407 L425 639 L580 639 L580 720 L289 720 C132 720 51 606 51 368 C51 120 132 0 288 0 L288 0 Z M288 79 C196 78 147 173 147 368 C147 551 196 638 288 638 L339 638 L339 79 L288 79 Z " />
<glyph glyph-name="oe" unicode="&#x153;" horiz-adv-x="620" d="M180 -13 C235 -13 288 17 310 79 C333 21 382 -13 446 -13 C501 -13 544 4 589 46 L563 103 C531 71 490 55 452 55 C385 55 352 113 351 240 L596 240 C597 256 597 274 597 290 C597 465 542 538 445 538 C387 538 331 504 313 434 C294 506 247 538 183 538 C83 538 15 455 15 260 C15 54 87 -13 180 -13 L180 -13 Z M183 54 C138 54 95 104 95 262 C95 416 137 472 183 472 C229 472 269 416 269 262 C269 114 231 54 183 54 L183 54 Z M519 303 L351 303 C353 416 387 476 441 476 C494 476 518 420 519 303 L519 303 Z " />
<glyph glyph-name="Racute" unicode="&#x154;" horiz-adv-x="620" d="M79 720 L79 0 L171 0 L171 282 L277 282 C304 282 326 283 347 287 L492 0 L593 0 L435 309 C517 349 553 415 553 506 C553 635 475 720 304 720 L79 720 Z M294 354 L171 354 L171 638 L301 638 C412 638 459 591 459 500 C459 406 407 354 294 354 L294 354 Z M211 802 L237 755 L416 840 L383 902 L211 802 Z " />
<glyph glyph-name="racute" unicode="&#x155;" horiz-adv-x="620" d="M81 66 L81 0 L509 0 L509 66 L314 66 L314 358 C346 425 390 455 441 455 L540 455 L540 538 L443 538 C377 538 329 494 305 441 L300 525 L81 525 L81 459 L226 459 L226 66 L81 66 Z M236 624 L272 582 L428 706 L382 760 L236 624 Z " />
<glyph glyph-name="uni0156" unicode="&#x156;" horiz-adv-x="620" d="M79 720 L79 0 L171 0 L171 282 L277 282 C304 282 326 283 347 287 L492 0 L593 0 L435 309 C517 349 553 415 553 506 C553 635 475 720 304 720 L79 720 Z M294 354 L171 354 L171 638 L301 638 C412 638 459 591 459 500 C459 406 407 354 294 354 L294 354 Z M255 -218 L310 -234 L369 -73 L296 -56 L255 -218 Z " />
<glyph glyph-name="uni0157" unicode="&#x157;" horiz-adv-x="620" d="M81 66 L81 0 L509 0 L509 66 L314 66 L314 358 C346 425 390 455 441 455 L540 455 L540 538 L443 538 C377 538 329 494 305 441 L300 525 L81 525 L81 459 L226 459 L226 66 L81 66 Z M197 -218 L252 -234 L311 -73 L238 -56 L197 -218 Z " />
<glyph glyph-name="Rcaron" unicode="&#x158;" horiz-adv-x="620" d="M269 758 L327 758 L422 851 L387 884 L298 817 L209 884 L173 851 L269 758 Z M171 354 L171 638 L301 638 C412 638 459 591 459 500 C459 406 407 354 294 354 L171 354 Z M79 720 L79 0 L171 0 L171 282 L277 282 C304 282 326 283 347 287 L492 0 L593 0 L435 309 C517 349 553 415 553 506 C553 635 475 720 304 720 L79 720 Z " />
<glyph glyph-name="rcaron" unicode="&#x159;" horiz-adv-x="620" d="M81 66 L81 0 L509 0 L509 66 L314 66 L314 358 C346 425 390 455 441 455 L540 455 L540 538 L443 538 C377 538 329 494 305 441 L300 525 L81 525 L81 459 L226 459 L226 66 L81 66 Z M190 738 L301 589 L356 589 L468 737 L425 767 L329 655 L233 767 L190 738 Z " />
<glyph glyph-name="Sacute" unicode="&#x15a;" horiz-adv-x="620" d="M313 -13 C467 -13 556 78 556 198 C556 297 509 356 358 406 L315 420 C210 454 178 487 178 543 C178 613 231 657 318 657 C380 657 447 631 500 572 L554 631 C492 700 413 733 318 733 C174 733 82 650 82 532 C82 443 135 382 262 341 L302 327 C431 285 460 252 460 187 C460 116 405 66 316 66 C249 66 183 91 111 157 L59 93 C124 26 216 -13 313 -13 L313 -13 Z M231 802 L257 755 L436 840 L403 902 L231 802 Z " />
<glyph glyph-name="sacute" unicode="&#x15b;" horiz-adv-x="620" d="M316 -13 C446 -13 531 50 531 149 C531 227 481 276 348 304 L322 309 C229 328 203 348 203 395 C203 440 243 470 324 470 C385 470 439 449 484 409 L528 463 C476 511 402 538 318 538 C194 538 113 479 113 384 C113 312 161 262 291 236 L317 230 C419 210 441 184 441 140 C441 88 396 56 311 56 C248 56 192 76 130 126 L88 68 C138 21 226 -13 316 -13 L316 -13 Z M226 624 L262 582 L418 706 L372 760 L226 624 Z " />
<glyph glyph-name="Scircumflex" unicode="&#x15c;" horiz-adv-x="620" d="M313 -13 C467 -13 556 78 556 198 C556 297 509 356 358 406 L315 420 C210 454 178 487 178 543 C178 613 231 657 318 657 C380 657 447 631 500 572 L554 631 C492 700 413 733 318 733 C174 733 82 650 82 532 C82 443 135 382 262 341 L302 327 C431 285 460 252 460 187 C460 116 405 66 316 66 C249 66 183 91 111 157 L59 93 C124 26 216 -13 313 -13 L313 -13 Z M195 796 L231 763 L320 830 L409 763 L444 796 L349 889 L291 889 L195 796 Z " />
<glyph glyph-name="scircumflex" unicode="&#x15d;" horiz-adv-x="620" d="M223 580 L319 692 L415 580 L458 610 L346 758 L291 758 L180 609 L223 580 Z M322 309 C229 328 203 348 203 395 C203 440 243 470 324 470 C385 470 439 449 484 409 L528 463 C476 511 402 538 318 538 C194 538 113 479 113 384 C113 312 161 262 291 236 L317 230 C419 210 441 184 441 140 C441 88 396 56 311 56 C248 56 192 76 130 126 L88 68 C138 21 226 -13 316 -13 C446 -13 531 50 531 149 C531 227 481 276 348 304 L322 309 Z " />
<glyph glyph-name="Scedilla" unicode="&#x15e;" horiz-adv-x="620" d="M310 -209 C368 -209 408 -179 408 -124 C408 -83 373 -56 325 -54 L334 -12 C475 -5 556 83 556 198 C556 297 509 356 358 406 L315 420 C210 454 178 487 178 543 C178 613 231 657 318 657 C380 657 447 631 500 572 L554 631 C492 700 413 733 318 733 C174 733 82 650 82 532 C82 443 135 382 262 341 L302 327 C431 285 460 252 460 187 C460 116 405 66 316 66 C249 66 183 91 111 157 L59 93 C118 32 200 -6 288 -12 L270 -94 L282 -94 C330 -94 350 -103 350 -127 C350 -149 334 -161 304 -161 C279 -161 257 -155 238 -148 L226 -192 C246 -202 280 -209 310 -209 L310 -209 Z " />
<glyph glyph-name="scedilla" unicode="&#x15f;" horiz-adv-x="620" d="M304 -208 C362 -208 402 -178 402 -123 C402 -82 367 -55 319 -53 L327 -13 C451 -9 531 53 531 149 C531 227 481 276 348 304 L322 309 C229 328 203 348 203 395 C203 440 243 470 324 470 C385 470 439 449 484 409 L528 463 C476 511 402 538 318 538 C194 538 113 479 113 384 C113 312 161 262 291 236 L317 230 C419 210 441 184 441 140 C441 88 396 56 311 56 C248 56 192 76 130 126 L88 68 C132 27 204 -4 282 -11 L264 -93 L276 -93 C324 -93 344 -102 344 -126 C344 -148 328 -160 298 -160 C273 -160 251 -154 232 -147 L220 -191 C240 -201 274 -208 304 -208 L304 -208 Z " />
<glyph glyph-name="Scaron" unicode="&#x160;" horiz-adv-x="620" d="M288 758 L346 758 L441 851 L406 884 L317 817 L228 884 L192 851 L288 758 Z M315 420 C210 454 178 487 178 543 C178 613 231 657 318 657 C380 657 447 631 500 572 L554 631 C492 700 413 733 318 733 C174 733 82 650 82 532 C82 443 135 382 262 341 L302 327 C431 285 460 252 460 187 C460 116 405 66 316 66 C249 66 183 91 111 157 L59 93 C124 26 216 -13 313 -13 C467 -13 556 78 556 198 C556 297 509 356 358 406 L315 420 Z " />
<glyph glyph-name="scaron" unicode="&#x161;" horiz-adv-x="620" d="M316 -13 C446 -13 531 50 531 149 C531 227 481 276 348 304 L322 309 C229 328 203 348 203 395 C203 440 243 470 324 470 C385 470 439 449 484 409 L528 463 C476 511 402 538 318 538 C194 538 113 479 113 384 C113 312 161 262 291 236 L317 230 C419 210 441 184 441 140 C441 88 396 56 311 56 C248 56 192 76 130 126 L88 68 C138 21 226 -13 316 -13 L316 -13 Z M180 738 L291 589 L346 589 L458 737 L415 767 L319 655 L223 767 L180 738 Z " />
<glyph glyph-name="uni0162" unicode="&#x162;" horiz-adv-x="620" d="M305 -209 C363 -209 403 -179 403 -124 C403 -83 368 -56 320 -54 L331 0 L357 0 L357 639 L564 639 L564 720 L56 720 L56 639 L264 639 L264 0 L285 0 L265 -94 L277 -94 C325 -94 345 -103 345 -127 C345 -149 329 -161 299 -161 C274 -161 252 -155 233 -148 L221 -192 C241 -202 275 -209 305 -209 L305 -209 Z " />
<glyph glyph-name="uni0163" unicode="&#x163;" horiz-adv-x="620" d="M346 0 L356 0 L336 -94 L348 -94 C396 -94 416 -103 416 -127 C416 -149 400 -161 370 -161 C345 -161 323 -155 304 -148 L292 -192 C312 -202 346 -209 376 -209 C434 -209 474 -179 474 -124 C474 -83 439 -56 391 -54 L402 0 L506 0 L506 72 L366 72 C324 72 299 95 299 138 L299 456 L515 456 L515 525 L299 525 L299 669 L228 669 L216 525 L65 509 L65 456 L212 456 L212 133 C212 43 257 0 346 0 L346 0 Z " />
<glyph glyph-name="Tcaron" unicode="&#x164;" horiz-adv-x="620" d="M280 758 L338 758 L433 851 L398 884 L309 817 L220 884 L184 851 L280 758 Z M264 639 L264 0 L357 0 L357 639 L564 639 L564 720 L56 720 L56 639 L264 639 Z " />
<glyph glyph-name="tcaron" unicode="&#x165;" horiz-adv-x="620" d="M346 0 L506 0 L506 72 L366 72 C324 72 299 95 299 138 L299 456 L515 456 L515 525 L299 525 L299 669 L228 669 L216 525 L65 509 L65 456 L212 456 L212 133 C212 43 257 0 346 0 L346 0 Z M387 768 L353 585 L410 585 L460 768 L387 768 Z " />
<glyph glyph-name="Tbar" unicode="&#x166;" horiz-adv-x="620" d="M121 401 L121 336 L265 336 L265 0 L358 0 L358 336 L498 336 L498 401 L358 401 L358 639 L565 639 L565 720 L57 720 L57 639 L265 639 L265 401 L121 401 Z " />
<glyph glyph-name="tbar" unicode="&#x167;" horiz-adv-x="620" d="M106 326 L106 271 L212 271 L212 133 C212 43 257 0 346 0 L506 0 L506 72 L366 72 C324 72 299 95 299 138 L299 271 L433 271 L433 326 L299 326 L299 456 L515 456 L515 525 L299 525 L299 669 L228 669 L216 525 L65 509 L65 456 L212 456 L212 326 L106 326 Z " />
<glyph glyph-name="Utilde" unicode="&#x168;" horiz-adv-x="620" d="M310 -13 C470 -13 550 70 550 249 L550 720 L458 720 L458 257 C458 127 411 69 313 69 C209 69 164 127 164 257 L164 720 L71 720 L71 249 C71 70 151 -13 310 -13 L310 -13 Z M164 804 L210 784 C226 814 234 821 252 821 C282 821 328 788 378 788 C416 788 444 813 458 863 L413 883 C400 855 388 849 369 849 C332 849 292 883 247 883 C211 883 182 855 164 804 L164 804 Z " />
<glyph glyph-name="utilde" unicode="&#x169;" horiz-adv-x="620" d="M259 -13 C327 -13 388 21 436 76 L441 0 L519 0 L519 525 L431 525 L431 147 C388 93 334 63 285 63 C219 63 179 103 179 191 L179 525 L91 525 L91 178 C91 62 143 -13 259 -13 L259 -13 Z M157 631 L203 611 C219 641 227 648 245 648 C275 648 321 615 371 615 C409 615 437 640 451 690 L406 710 C393 682 381 676 362 676 C325 676 285 710 240 710 C204 710 175 682 157 631 L157 631 Z " />
<glyph glyph-name="Umacron" unicode="&#x16a;" horiz-adv-x="620" d="M310 -13 C470 -13 550 70 550 249 L550 720 L458 720 L458 257 C458 127 411 69 313 69 C209 69 164 127 164 257 L164 720 L71 720 L71 249 C71 70 151 -13 310 -13 L310 -13 Z M174 850 L174 790 L449 790 L449 850 L174 850 Z " />
<glyph glyph-name="umacron" unicode="&#x16b;" horiz-adv-x="620" d="M259 -13 C327 -13 388 21 436 76 L441 0 L519 0 L519 525 L431 525 L431 147 C388 93 334 63 285 63 C219 63 179 103 179 191 L179 525 L91 525 L91 178 C91 62 143 -13 259 -13 L259 -13 Z M167 680 L167 620 L442 620 L442 680 L167 680 Z " />
<glyph glyph-name="Ubreve" unicode="&#x16c;" horiz-adv-x="620" d="M310 -13 C470 -13 550 70 550 249 L550 720 L458 720 L458 257 C458 127 411 69 313 69 C209 69 164 127 164 257 L164 720 L71 720 L71 249 C71 70 151 -13 310 -13 L310 -13 Z M311 755 C383 755 425 794 436 864 L378 872 C370 824 346 805 312 805 C274 805 250 829 242 872 L184 863 C195 789 241 755 311 755 L311 755 Z " />
<glyph glyph-name="ubreve" unicode="&#x16d;" horiz-adv-x="620" d="M259 -13 C327 -13 388 21 436 76 L441 0 L519 0 L519 525 L431 525 L431 147 C388 93 334 63 285 63 C219 63 179 103 179 191 L179 525 L91 525 L91 178 C91 62 143 -13 259 -13 L259 -13 Z M305 585 C375 585 433 629 441 734 L385 744 C379 670 352 640 306 640 C262 640 233 666 224 744 L166 733 C179 624 233 585 305 585 L305 585 Z " />
<glyph glyph-name="Uring" unicode="&#x16e;" horiz-adv-x="620" d="M310 -13 C470 -13 550 70 550 249 L550 720 L458 720 L458 257 C458 127 411 69 313 69 C209 69 164 127 164 257 L164 720 L71 720 L71 249 C71 70 151 -13 310 -13 L310 -13 Z M311 749 C371 749 416 789 416 848 C416 906 370 946 311 946 C252 946 207 903 207 845 C207 787 250 749 311 749 L311 749 Z M311 792 C279 792 257 813 257 846 C257 877 278 901 311 901 C345 901 367 880 367 848 C367 816 345 792 311 792 L311 792 Z " />
<glyph glyph-name="uring" unicode="&#x16f;" horiz-adv-x="620" d="M259 -13 C327 -13 388 21 436 76 L441 0 L519 0 L519 525 L431 525 L431 147 C388 93 334 63 285 63 C219 63 179 103 179 191 L179 525 L91 525 L91 178 C91 62 143 -13 259 -13 L259 -13 Z M304 584 C364 584 409 624 409 683 C409 741 363 781 304 781 C245 781 200 738 200 680 C200 622 243 584 304 584 L304 584 Z M304 627 C272 627 250 648 250 681 C250 712 271 736 304 736 C338 736 360 715 360 683 C360 651 338 627 304 627 L304 627 Z " />
<glyph glyph-name="Uhungarumlaut" unicode="&#x170;" horiz-adv-x="620" d="M310 -13 C470 -13 550 70 550 249 L550 720 L458 720 L458 257 C458 127 411 69 313 69 C209 69 164 127 164 257 L164 720 L71 720 L71 249 C71 70 151 -13 310 -13 L310 -13 Z M159 786 L200 754 L334 890 L281 932 L159 786 Z M298 788 L337 754 L465 875 L415 919 L298 788 Z " />
<glyph glyph-name="uhungarumlaut" unicode="&#x171;" horiz-adv-x="620" d="M259 -13 C327 -13 388 21 436 76 L441 0 L519 0 L519 525 L431 525 L431 147 C388 93 334 63 285 63 C219 63 179 103 179 191 L179 525 L91 525 L91 178 C91 62 143 -13 259 -13 L259 -13 Z M156 609 L199 581 L325 720 L271 757 L156 609 Z M290 610 L331 581 L452 706 L400 745 L290 610 Z " />
<glyph glyph-name="Uogonek" unicode="&#x172;" horiz-adv-x="620" d="M341 -224 C378 -224 414 -207 437 -193 L418 -150 C397 -160 381 -167 361 -167 C335 -167 322 -156 322 -130 C322 -87 365 -27 437 12 C513 52 550 122 550 249 L550 720 L458 720 L458 257 C458 127 411 69 313 69 C209 69 164 127 164 257 L164 720 L71 720 L71 249 C71 72 150 -12 306 -13 C312 -13 318 -13 324 -12 C285 -50 252 -96 252 -145 C252 -191 281 -224 341 -224 L341 -224 Z " />
<glyph glyph-name="uogonek" unicode="&#x173;" horiz-adv-x="620" d="M259 -13 C327 -13 388 21 436 76 L441 0 L449 0 C404 -39 362 -91 362 -146 C362 -192 391 -225 451 -225 C488 -225 524 -208 547 -194 L528 -151 C507 -161 491 -168 471 -168 C445 -168 432 -157 432 -131 C432 -88 467 -47 519 0 L519 525 L431 525 L431 147 C388 93 334 63 285 63 C219 63 179 103 179 191 L179 525 L91 525 L91 178 C91 62 143 -13 259 -13 L259 -13 Z " />
<glyph glyph-name="Wcircumflex" unicode="&#x174;" horiz-adv-x="620" d="M69 720 L104 0 L207 0 L308 427 L311 427 L413 0 L514 0 L549 720 L464 720 L443 149 L438 149 L344 543 L276 543 L181 147 L177 147 L154 720 L69 720 Z M186 796 L222 763 L311 830 L400 763 L435 796 L340 889 L282 889 L186 796 Z " />
<glyph glyph-name="wcircumflex" unicode="&#x175;" horiz-adv-x="620" d="M214 580 L310 692 L406 580 L449 610 L337 758 L282 758 L171 609 L214 580 Z M35 525 L135 0 L222 0 L308 403 L311 403 L393 0 L479 0 L582 525 L497 525 L432 109 L430 109 L344 519 L273 519 L188 105 L185 105 L120 525 L35 525 Z " />
<glyph glyph-name="Ycircumflex" unicode="&#x176;" horiz-adv-x="620" d="M261 305 L261 0 L354 0 L354 304 L580 720 L476 720 L312 387 L308 387 L146 720 L43 720 L261 305 Z M188 796 L224 763 L313 830 L402 763 L437 796 L342 889 L284 889 L188 796 Z " />
<glyph glyph-name="ycircumflex" unicode="&#x177;" horiz-adv-x="620" d="M224 580 L320 692 L416 580 L459 610 L347 758 L292 758 L181 609 L224 580 Z M109 -128 L109 -200 L172 -200 C262 -200 304 -169 335 -80 L548 525 L457 525 L324 105 L321 105 L183 525 L89 525 L278 2 L258 -60 C240 -113 212 -128 160 -128 L109 -128 Z " />
<glyph glyph-name="Ydieresis" unicode="&#x178;" horiz-adv-x="620" d="M261 305 L261 0 L354 0 L354 304 L580 720 L476 720 L312 387 L308 387 L146 720 L43 720 L261 305 Z M408 787 C439 787 461 809 461 836 C461 863 441 885 407 885 C375 885 354 863 354 836 C354 808 375 787 408 787 L408 787 Z M214 787 C244 787 266 809 266 836 C266 863 247 885 213 885 C181 885 159 863 159 836 C159 808 181 787 214 787 L214 787 Z " />
<glyph glyph-name="Zacute" unicode="&#x179;" horiz-adv-x="620" d="M83 60 L83 0 L551 0 L551 80 L203 80 L552 681 L552 720 L88 720 L88 639 L418 639 L83 60 Z M230 802 L256 755 L435 840 L402 902 L230 802 Z " />
<glyph glyph-name="zacute" unicode="&#x17a;" horiz-adv-x="620" d="M107 55 L107 0 L522 0 L522 71 L222 71 L524 481 L524 525 L113 525 L113 455 L402 455 L107 55 Z M217 624 L253 582 L409 706 L363 760 L217 624 Z " />
<glyph glyph-name="Zdotaccent" unicode="&#x17b;" horiz-adv-x="620" d="M83 60 L83 0 L551 0 L551 80 L203 80 L552 681 L552 720 L88 720 L88 639 L418 639 L83 60 Z M318 785 C350 785 374 804 374 834 C374 865 350 884 318 884 C285 884 260 865 260 834 C260 804 286 785 318 785 L318 785 Z " />
<glyph glyph-name="zdotaccent" unicode="&#x17c;" horiz-adv-x="620" d="M107 55 L107 0 L522 0 L522 71 L222 71 L524 481 L524 525 L113 525 L113 455 L402 455 L107 55 Z M310 619 C342 619 366 638 366 668 C366 699 342 718 310 718 C277 718 252 699 252 668 C252 638 278 619 310 619 L310 619 Z " />
<glyph glyph-name="Zcaron" unicode="&#x17d;" horiz-adv-x="620" d="M287 758 L345 758 L440 851 L405 884 L316 817 L227 884 L191 851 L287 758 Z M83 60 L83 0 L551 0 L551 80 L203 80 L552 681 L552 720 L88 720 L88 639 L418 639 L83 60 Z " />
<glyph glyph-name="zcaron" unicode="&#x17e;" horiz-adv-x="620" d="M107 55 L107 0 L522 0 L522 71 L222 71 L524 481 L524 525 L113 525 L113 455 L402 455 L107 55 Z M171 738 L282 589 L337 589 L449 737 L406 767 L310 655 L214 767 L171 738 Z " />
<glyph glyph-name="longs" unicode="&#x17f;" horiz-adv-x="620" d="M93 66 L93 0 L523 0 L523 66 L336 66 L336 573 C336 622 361 648 407 648 L529 648 L529 720 L393 720 C299 720 248 671 248 581 L248 525 L98 511 L98 456 L248 456 L248 66 L93 66 Z " />
<glyph glyph-name="florin" unicode="&#x192;" horiz-adv-x="620" d="M38 -128 L38 -200 L140 -200 C247 -200 268 -136 293 -15 L366 339 L500 339 L500 402 L377 402 L405 532 C420 604 430 633 484 633 L582 633 L582 705 L470 705 C366 705 342 638 324 549 L295 402 L173 402 L173 339 L281 339 L202 -40 C188 -106 172 -128 125 -128 L38 -128 Z " />
<glyph glyph-name="AEacute" unicode="&#x1fc;" horiz-adv-x="620" d="M251 720 L33 0 L129 0 L187 212 L324 212 L324 0 L588 0 L588 79 L408 79 L408 331 L549 331 L549 407 L408 407 L408 639 L581 639 L581 720 L251 720 Z M305 641 L324 641 L324 287 L208 287 L305 641 Z M301 802 L327 755 L506 840 L473 902 L301 802 Z " />
<glyph glyph-name="aeacute" unicode="&#x1fd;" horiz-adv-x="620" d="M159 -13 C218 -13 272 24 296 103 C315 33 363 -13 439 -13 C495 -13 537 4 582 46 L557 103 C522 68 482 55 446 55 C375 55 346 126 345 240 L590 240 C591 256 591 274 591 290 C591 458 532 538 439 538 C379 538 335 504 317 454 C302 507 262 538 194 538 C140 538 80 513 34 469 L65 413 C110 454 149 470 186 470 C248 470 264 432 264 351 L264 303 L193 303 C99 303 23 240 23 138 C23 41 77 -13 159 -13 L159 -13 Z M173 50 C129 50 100 81 100 141 C100 205 138 240 207 240 L264 240 L264 202 C264 116 225 50 173 50 L173 50 Z M513 303 L345 303 C347 416 384 477 435 476 C489 475 512 410 513 303 L513 303 Z M230 624 L266 582 L422 706 L376 760 L230 624 Z " />
<glyph glyph-name="uni0218" unicode="&#x218;" horiz-adv-x="620" d="M313 -13 C467 -13 556 78 556 198 C556 297 509 356 358 406 L315 420 C210 454 178 487 178 543 C178 613 231 657 318 657 C380 657 447 631 500 572 L554 631 C492 700 413 733 318 733 C174 733 82 650 82 532 C82 443 135 382 262 341 L302 327 C431 285 460 252 460 187 C460 116 405 66 316 66 C249 66 183 91 111 157 L59 93 C124 26 216 -13 313 -13 L313 -13 Z M239 -219 L294 -235 L353 -74 L280 -57 L239 -219 Z " />
<glyph glyph-name="uni0219" unicode="&#x219;" horiz-adv-x="620" d="M316 -13 C446 -13 531 50 531 149 C531 227 481 276 348 304 L322 309 C229 328 203 348 203 395 C203 440 243 470 324 470 C385 470 439 449 484 409 L528 463 C476 511 402 538 318 538 C194 538 113 479 113 384 C113 312 161 262 291 236 L317 230 C419 210 441 184 441 140 C441 88 396 56 311 56 C248 56 192 76 130 126 L88 68 C138 21 226 -13 316 -13 L316 -13 Z M233 -218 L288 -234 L347 -73 L274 -56 L233 -218 Z " />
<glyph glyph-name="uni021A" unicode="&#x21a;" horiz-adv-x="620" d="M264 639 L264 0 L357 0 L357 639 L564 639 L564 720 L56 720 L56 639 L264 639 Z M234 -219 L289 -235 L348 -74 L275 -57 L234 -219 Z " />
<glyph glyph-name="uni021B" unicode="&#x21b;" horiz-adv-x="620" d="M346 0 L506 0 L506 72 L366 72 C324 72 299 95 299 138 L299 456 L515 456 L515 525 L299 525 L299 669 L228 669 L216 525 L65 509 L65 456 L212 456 L212 133 C212 43 257 0 346 0 L346 0 Z M252 -219 L307 -235 L366 -74 L293 -57 L252 -219 Z " />
<glyph glyph-name="uni0237" unicode="&#x237;" horiz-adv-x="620" d="M149 -132 L149 -204 L298 -204 C384 -204 428 -157 428 -68 L428 525 L147 525 L147 459 L340 459 L340 -62 C340 -109 321 -132 284 -132 L149 -132 Z " />
<glyph glyph-name="uni02BB" unicode="&#x2bb;" horiz-adv-x="620" d="M90 604 L165 585 L209 753 L150 768 L90 604 Z " />
<glyph glyph-name="circumflex" unicode="&#x2c6;" horiz-adv-x="620" d="M214 580 L310 692 L406 580 L449 610 L337 758 L282 758 L171 609 L214 580 Z " />
<glyph glyph-name="caron" unicode="&#x2c7;" horiz-adv-x="620" d="M171 738 L282 589 L337 589 L449 737 L406 767 L310 655 L214 767 L171 738 Z " />
<glyph glyph-name="uni02C9" unicode="&#x2c9;" horiz-adv-x="620" d="M173 680 L173 620 L448 620 L448 680 L173 680 Z " />
<glyph glyph-name="breve" unicode="&#x2d8;" horiz-adv-x="620" d="M312 585 C382 585 440 629 448 734 L392 744 C386 670 359 640 313 640 C269 640 240 666 231 744 L173 733 C186 624 240 585 312 585 L312 585 Z " />
<glyph glyph-name="dotaccent" unicode="&#x2d9;" horiz-adv-x="620" d="M311 619 C343 619 367 638 367 668 C367 699 343 718 311 718 C278 718 253 699 253 668 C253 638 279 619 311 619 L311 619 Z " />
<glyph glyph-name="ring" unicode="&#x2da;" horiz-adv-x="620" d="M310 584 C370 584 415 624 415 683 C415 741 369 781 310 781 C251 781 206 738 206 680 C206 622 249 584 310 584 L310 584 Z M310 627 C278 627 256 648 256 681 C256 712 277 736 310 736 C344 736 366 715 366 683 C366 651 344 627 310 627 L310 627 Z " />
<glyph glyph-name="ogonek" unicode="&#x2db;" horiz-adv-x="620" d="M307 -224 C344 -224 380 -207 403 -193 L384 -150 C363 -160 347 -167 327 -167 C301 -167 288 -156 288 -130 C288 -87 323 -46 375 1 L372 10 L319 13 C270 -27 218 -84 218 -145 C218 -191 247 -224 307 -224 L307 -224 Z " />
<glyph glyph-name="tilde" unicode="&#x2dc;" horiz-adv-x="620" d="M163 631 L209 611 C225 641 233 648 251 648 C281 648 327 615 377 615 C415 615 443 640 457 690 L412 710 C399 682 387 676 368 676 C331 676 291 710 246 710 C210 710 181 682 163 631 L163 631 Z " />
<glyph glyph-name="hungarumlaut" unicode="&#x2dd;" horiz-adv-x="620" d="M162 609 L205 581 L331 720 L277 757 L162 609 Z M296 610 L337 581 L458 706 L406 745 L296 610 Z " />
<glyph glyph-name="uni0394" unicode="&#x394;" horiz-adv-x="620" d="M260 720 L80 0 L542 0 L362 720 L260 720 Z M442 66 L179 66 L310 621 L442 66 Z " />
<glyph glyph-name="uni03A9" unicode="&#x3a9;" horiz-adv-x="620" d="M73 72 L73 0 L274 0 L274 111 C212 144 139 230 139 392 C139 571 214 660 310 660 C406 660 481 571 481 392 C481 230 408 144 346 111 L346 0 L547 0 L547 72 L415 72 L417 93 C499 138 569 248 569 399 C569 616 461 733 309 733 C157 733 51 616 51 399 C51 248 121 138 203 93 L205 72 L73 72 Z " />
<glyph glyph-name="uni03BC" unicode="&#x3bc;" horiz-adv-x="620" d="M102 526 L102 -200 L190 -200 L190 47 C216 10 248 -10 307 -10 C372 -10 415 21 443 75 L443 0 L518 0 L518 526 L430 526 L430 175 C426 126 382 54 307 54 C225 54 190 109 190 201 L190 526 L102 526 Z " />
<glyph glyph-name="pi" unicode="&#x3c0;" horiz-adv-x="620" d="M134 457 L134 0 L222 0 L222 457 L405 457 L405 0 L492 0 L492 457 L578 457 L578 525 L43 525 L43 457 L134 457 Z " />
<glyph glyph-name="Wgrave" unicode="&#x1e80;" horiz-adv-x="620" d="M248 902 L215 840 L394 755 L420 802 L248 902 Z M69 720 L104 0 L207 0 L308 427 L311 427 L413 0 L514 0 L549 720 L464 720 L443 149 L438 149 L344 543 L276 543 L181 147 L177 147 L154 720 L69 720 Z " />
<glyph glyph-name="wgrave" unicode="&#x1e81;" horiz-adv-x="620" d="M35 525 L135 0 L222 0 L308 403 L311 403 L393 0 L479 0 L582 525 L497 525 L432 109 L430 109 L344 519 L273 519 L188 105 L185 105 L120 525 L35 525 Z M213 707 L368 582 L405 625 L260 760 L213 707 Z " />
<glyph glyph-name="Wacute" unicode="&#x1e82;" horiz-adv-x="620" d="M69 720 L104 0 L207 0 L308 427 L311 427 L413 0 L514 0 L549 720 L464 720 L443 149 L438 149 L344 543 L276 543 L181 147 L177 147 L154 720 L69 720 Z M222 802 L248 755 L427 840 L394 902 L222 802 Z " />
<glyph glyph-name="wacute" unicode="&#x1e83;" horiz-adv-x="620" d="M35 525 L135 0 L222 0 L308 403 L311 403 L393 0 L479 0 L582 525 L497 525 L432 109 L430 109 L344 519 L273 519 L188 105 L185 105 L120 525 L35 525 Z M217 624 L253 582 L409 706 L363 760 L217 624 Z " />
<glyph glyph-name="Wdieresis" unicode="&#x1e84;" horiz-adv-x="620" d="M69 720 L104 0 L207 0 L308 427 L311 427 L413 0 L514 0 L549 720 L464 720 L443 149 L438 149 L344 543 L276 543 L181 147 L177 147 L154 720 L69 720 Z M406 787 C437 787 459 809 459 836 C459 863 439 885 405 885 C373 885 352 863 352 836 C352 808 373 787 406 787 L406 787 Z M212 787 C242 787 264 809 264 836 C264 863 245 885 211 885 C179 885 157 863 157 836 C157 808 179 787 212 787 L212 787 Z " />
<glyph glyph-name="wdieresis" unicode="&#x1e85;" horiz-adv-x="620" d="M35 525 L135 0 L222 0 L308 403 L311 403 L393 0 L479 0 L582 525 L497 525 L432 109 L430 109 L344 519 L273 519 L188 105 L185 105 L120 525 L35 525 Z M408 619 C439 619 461 641 461 668 C461 695 441 717 407 717 C375 717 354 695 354 668 C354 640 375 619 408 619 L408 619 Z M214 619 C244 619 266 641 266 668 C266 695 247 717 213 717 C181 717 159 695 159 668 C159 640 181 619 214 619 L214 619 Z " />
<glyph glyph-name="uni1E9E" unicode="&#x1e9e;" horiz-adv-x="620" d="M364 -13 C478 -13 552 61 552 185 C552 294 490 361 365 377 C455 395 511 459 511 547 C511 655 444 720 313 720 L79 720 L79 0 L171 0 L171 646 L301 646 C376 646 414 611 414 542 C414 469 364 421 279 413 L279 335 C405 319 454 271 454 186 C454 101 406 64 348 64 C322 64 296 70 270 83 L246 17 C277 -2 319 -13 364 -13 L364 -13 Z " />
<glyph glyph-name="Ygrave" unicode="&#x1ef2;" horiz-adv-x="620" d="M250 902 L217 840 L396 755 L422 802 L250 902 Z M261 305 L261 0 L354 0 L354 304 L580 720 L476 720 L312 387 L308 387 L146 720 L43 720 L261 305 Z " />
<glyph glyph-name="ygrave" unicode="&#x1ef3;" horiz-adv-x="620" d="M109 -128 L109 -200 L172 -200 C262 -200 304 -169 335 -80 L548 525 L457 525 L324 105 L321 105 L183 525 L89 525 L278 2 L258 -60 C240 -113 212 -128 160 -128 L109 -128 Z M222 707 L377 582 L414 625 L269 760 L222 707 Z " />
<glyph glyph-name="uni2009" unicode="&#x2009;" horiz-adv-x="620" d="" />
<glyph glyph-name="endash" unicode="&#x2013;" horiz-adv-x="620" d="M67 296 L67 234 L553 234 L553 296 L67 296 Z " />
<glyph glyph-name="emdash" unicode="&#x2014;" horiz-adv-x="620" d="M27 296 L27 234 L593 234 L593 296 L27 296 Z " />
<glyph glyph-name="quoteleft" unicode="&#x2018;" horiz-adv-x="620" d="M373 721 L356 753 C282 719 259 667 259 612 C259 575 277 536 324 536 C359 536 383 559 383 592 C383 620 362 640 337 640 C326 640 317 637 307 629 C310 671 331 698 373 721 L373 721 Z " />
<glyph glyph-name="quoteright" unicode="&#x2019;" horiz-adv-x="620" d="M247 536 L264 504 C338 538 361 590 361 645 C361 682 343 721 296 721 C261 721 237 698 237 665 C237 637 258 617 283 617 C294 617 303 620 313 628 C310 586 289 559 247 536 L247 536 Z " />
<glyph glyph-name="quotesinglbase" unicode="&#x201a;" horiz-adv-x="620" d="M247 -101 L264 -133 C338 -99 361 -47 361 8 C361 45 343 84 296 84 C261 84 237 61 237 28 C237 0 258 -20 283 -20 C294 -20 303 -17 313 -9 C310 -51 289 -78 247 -101 L247 -101 Z " />
<glyph glyph-name="quotedblleft" unicode="&#x201c;" horiz-adv-x="620" d="M277 721 L260 753 C186 719 163 667 163 612 C163 575 181 536 228 536 C263 536 287 559 287 592 C287 620 266 640 241 640 C230 640 221 637 211 629 C214 671 235 698 277 721 L277 721 Z M436 721 L419 753 C345 719 322 667 322 612 C322 575 340 536 387 536 C422 536 446 559 446 592 C446 620 425 640 400 640 C389 640 380 637 370 629 C373 671 394 698 436 721 L436 721 Z " />
<glyph glyph-name="quotedblright" unicode="&#x201d;" horiz-adv-x="620" d="M169 536 L186 504 C260 538 283 590 283 645 C283 682 265 721 218 721 C183 721 159 698 159 665 C159 637 180 617 205 617 C216 617 225 620 235 628 C232 586 211 559 169 536 L169 536 Z M328 536 L345 504 C419 538 442 590 442 645 C442 682 424 721 377 721 C342 721 318 698 318 665 C318 637 339 617 364 617 C375 617 384 620 394 628 C391 586 370 559 328 536 L328 536 Z " />
<glyph glyph-name="quotedblbase" unicode="&#x201e;" horiz-adv-x="620" d="M169 -101 L186 -133 C260 -99 283 -47 283 8 C283 45 265 84 218 84 C183 84 159 61 159 28 C159 0 180 -20 205 -20 C216 -20 225 -17 235 -9 C232 -51 211 -78 169 -101 L169 -101 Z M328 -101 L345 -133 C419 -99 442 -47 442 8 C442 45 424 84 377 84 C342 84 318 61 318 28 C318 0 339 -20 364 -20 C375 -20 384 -17 394 -9 C391 -51 370 -78 328 -101 L328 -101 Z " />
<glyph glyph-name="dagger" unicode="&#x2020;" horiz-adv-x="620" d="M270 439 L270 -105 L351 -105 L351 439 L519 439 L519 514 L351 514 L351 719 L270 719 L270 514 L102 514 L102 439 L270 439 Z " />
<glyph glyph-name="daggerdbl" unicode="&#x2021;" horiz-adv-x="620" d="M271 99 L271 -105 L351 -105 L351 99 L518 99 L518 174 L351 174 L351 439 L518 439 L518 514 L351 514 L351 719 L271 719 L271 514 L103 514 L103 439 L271 439 L271 174 L103 174 L103 99 L271 99 Z " />
<glyph glyph-name="bullet" unicode="&#x2022;" horiz-adv-x="620" d="M309 193 C377 193 429 242 429 312 C429 382 376 430 310 430 C243 430 192 381 192 312 C192 244 241 193 309 193 L309 193 Z " />
<glyph glyph-name="ellipsis" unicode="&#x2026;" horiz-adv-x="620" d="M512 -12 C545 -12 569 10 569 46 C569 82 545 104 512 104 C480 104 456 82 456 45 C456 10 479 -12 512 -12 L512 -12 Z M106 -12 C139 -12 163 10 163 46 C163 82 139 104 106 104 C74 104 50 82 50 45 C50 10 73 -12 106 -12 L106 -12 Z M309 -12 C342 -12 366 10 366 46 C366 82 342 104 309 104 C278 104 253 82 253 45 C253 10 276 -12 309 -12 L309 -12 Z " />
<glyph glyph-name="perthousand" unicode="&#x2030;" horiz-adv-x="620" d="M132 412 C193 412 228 465 228 565 C228 671 194 718 132 718 C68 718 35 667 35 564 C35 456 68 412 132 412 L132 412 Z M132 458 C103 458 90 487 90 564 C90 638 103 670 132 670 C160 670 173 639 173 564 C173 490 159 458 132 458 L132 458 Z M333 534 L224 382 L285 382 L394 534 L333 534 Z M132 336 L23 184 L84 184 L193 336 L132 336 Z M270 -11 C331 -11 367 42 367 142 C367 248 332 294 270 294 C207 294 173 244 173 141 C173 33 206 -11 270 -11 L270 -11 Z M270 35 C241 35 228 64 228 141 C228 215 241 247 270 247 C298 247 311 216 311 141 C311 67 298 35 270 35 L270 35 Z M503 -11 C565 -11 600 42 600 142 C600 248 565 294 503 294 C440 294 406 244 406 141 C406 33 439 -11 503 -11 L503 -11 Z M503 35 C474 35 461 64 461 141 C461 215 474 247 503 247 C531 247 545 216 545 141 C545 67 531 35 503 35 L503 35 Z " />
<glyph glyph-name="guilsinglleft" unicode="&#x2039;" horiz-adv-x="620" d="M276 261 L437 407 L392 448 L187 273 L187 248 L392 75 L437 116 L276 261 Z " />
<glyph glyph-name="guilsinglright" unicode="&#x203a;" horiz-adv-x="620" d="M183 116 L228 75 L433 248 L433 273 L228 448 L183 407 L344 261 L183 116 Z " />
<glyph glyph-name="fraction" unicode="&#x2044;" horiz-adv-x="620" d="M493 720 L55 -1 L129 -1 L566 720 L493 720 Z " />
<glyph glyph-name="uni2070" unicode="&#x2070;" horiz-adv-x="620" d="M310 393 C419 393 483 461 483 586 C483 708 423 776 311 776 C201 776 138 708 138 585 C138 459 200 393 310 393 L310 393 Z M310 447 C244 447 206 494 206 585 C206 676 245 722 311 722 C376 722 415 677 415 585 C415 497 378 447 310 447 L310 447 Z " />
<glyph glyph-name="uni2074" unicode="&#x2074;" horiz-adv-x="620" d="M350 475 L350 400 L416 400 L416 475 L477 475 L477 529 L416 529 L416 656 L350 656 L350 529 L212 529 L354 771 L287 771 L139 526 L139 475 L350 475 Z " />
<glyph glyph-name="uni2075" unicode="&#x2075;" horiz-adv-x="620" d="M303 393 C401 393 461 444 461 521 C461 589 416 636 336 636 C300 636 266 625 240 606 L249 714 L434 714 L437 771 L200 771 L182 536 L233 536 L234 557 C257 577 287 588 317 588 C369 588 395 560 395 524 C395 477 364 448 299 448 C260 448 214 460 181 477 L157 432 C192 409 252 393 303 393 L303 393 Z " />
<glyph glyph-name="uni2076" unicode="&#x2076;" horiz-adv-x="620" d="M309 393 C395 393 459 440 459 524 C459 587 415 634 335 634 C293 634 255 619 221 590 C227 679 262 722 338 722 C371 722 402 714 426 700 L447 748 C417 766 376 776 331 776 C216 776 155 696 155 562 C155 463 203 393 309 393 L309 393 Z M310 442 C259 442 224 476 222 544 C255 573 286 585 320 585 C361 585 395 567 395 518 C395 473 362 442 310 442 L310 442 Z " />
<glyph glyph-name="uni2077" unicode="&#x2077;" horiz-adv-x="620" d="M215 407 L215 400 L287 400 L457 730 L457 771 L169 771 L169 712 L378 712 L215 407 Z " />
<glyph glyph-name="uni2078" unicode="&#x2078;" horiz-adv-x="620" d="M303 393 C397 393 462 434 462 503 C462 542 441 572 368 596 C421 618 446 653 446 689 C446 742 396 776 308 776 C222 776 167 737 167 681 C167 641 193 608 238 590 C173 568 151 535 151 494 C151 431 209 393 303 393 L303 393 Z M233 683 C233 715 263 734 309 734 C354 734 385 716 385 685 C385 660 361 632 313 615 C257 634 233 653 233 683 L233 683 Z M215 497 C215 529 240 554 298 570 C375 544 393 527 393 501 C393 462 358 440 304 440 C248 440 215 462 215 497 L215 497 Z " />
<glyph glyph-name="uni2079" unicode="&#x2079;" horiz-adv-x="620" d="M289 393 C404 393 465 473 465 607 C465 706 417 776 311 776 C225 776 161 730 161 646 C161 582 205 535 285 535 C327 535 365 550 399 579 C393 490 358 447 282 447 C249 447 218 455 194 469 L173 421 C203 403 244 393 289 393 L289 393 Z M300 584 C259 584 225 603 225 652 C225 697 258 727 310 727 C361 727 396 694 398 625 C365 597 334 584 300 584 L300 584 Z " />
<glyph glyph-name="uni207F" unicode="&#x207f;" horiz-adv-x="620" d="M164 712 L164 400 L231 400 L231 616 C261 651 292 667 322 667 C365 667 389 645 389 591 L389 400 L457 400 L457 601 C457 674 421 721 339 721 C295 721 253 701 226 667 L223 712 L164 712 Z " />
<glyph glyph-name="uni2080" unicode="&#x2080;" horiz-adv-x="620" d="M310 -103 C419 -103 483 -35 483 90 C483 212 423 280 311 280 C201 280 138 212 138 89 C138 -37 200 -103 310 -103 L310 -103 Z M310 -49 C244 -49 206 -2 206 89 C206 180 245 226 311 226 C376 226 415 181 415 89 C415 1 378 -49 310 -49 L310 -49 Z " />
<glyph glyph-name="uni2081" unicode="&#x2081;" horiz-adv-x="620" d="M181 -44 L181 -96 L468 -96 L468 -44 L365 -44 L365 275 L315 275 L163 208 L174 161 L296 204 L296 -44 L181 -44 Z " />
<glyph glyph-name="uni2082" unicode="&#x2082;" horiz-adv-x="620" d="M170 -49 L170 -96 L454 -96 L454 -40 L266 -40 L374 53 C432 101 451 137 451 179 C451 242 399 280 322 280 C266 280 206 258 161 222 L189 178 C228 207 272 223 311 223 C354 223 377 203 377 169 C377 142 363 121 320 83 L170 -49 Z " />
<glyph glyph-name="uni2083" unicode="&#x2083;" horiz-adv-x="620" d="M302 -103 C399 -103 455 -58 455 9 C455 59 418 93 351 99 C402 112 433 146 433 190 C433 243 392 280 306 280 C251 280 200 267 162 243 L184 199 C215 216 254 226 290 226 C344 226 363 208 363 180 C363 140 315 119 253 118 L253 66 C256 66 279 67 288 67 C356 67 385 45 385 9 C385 -27 358 -48 297 -48 C252 -48 211 -37 174 -10 L146 -53 C181 -83 239 -103 302 -103 L302 -103 Z " />
<glyph glyph-name="uni2084" unicode="&#x2084;" horiz-adv-x="620" d="M350 -21 L350 -96 L416 -96 L416 -21 L477 -21 L477 33 L416 33 L416 160 L350 160 L350 33 L212 33 L354 275 L287 275 L139 30 L139 -21 L350 -21 Z " />
<glyph glyph-name="uni2085" unicode="&#x2085;" horiz-adv-x="620" d="M303 -103 C401 -103 461 -52 461 25 C461 93 416 140 336 140 C300 140 266 129 240 110 L249 218 L434 218 L437 275 L200 275 L182 40 L233 40 L234 61 C257 81 287 92 317 92 C369 92 395 64 395 28 C395 -19 364 -48 299 -48 C260 -48 214 -36 181 -19 L157 -64 C192 -87 252 -103 303 -103 L303 -103 Z " />
<glyph glyph-name="uni2086" unicode="&#x2086;" horiz-adv-x="620" d="M309 -103 C395 -103 459 -56 459 28 C459 91 415 138 335 138 C293 138 255 123 221 94 C227 183 262 226 338 226 C371 226 402 218 426 204 L447 252 C417 270 376 280 331 280 C216 280 155 200 155 66 C155 -33 203 -103 309 -103 L309 -103 Z M310 -54 C259 -54 224 -20 222 48 C255 77 286 89 320 89 C361 89 395 71 395 22 C395 -23 362 -54 310 -54 L310 -54 Z " />
<glyph glyph-name="uni2087" unicode="&#x2087;" horiz-adv-x="620" d="M215 -89 L215 -96 L287 -96 L457 234 L457 275 L169 275 L169 216 L378 216 L215 -89 Z " />
<glyph glyph-name="uni2088" unicode="&#x2088;" horiz-adv-x="620" d="M303 -103 C397 -103 462 -62 462 7 C462 46 441 76 368 100 C421 122 446 157 446 193 C446 246 396 280 308 280 C222 280 167 241 167 185 C167 145 193 112 238 94 C173 72 151 39 151 -2 C151 -65 209 -103 303 -103 L303 -103 Z M233 187 C233 219 263 238 309 238 C354 238 385 220 385 189 C385 164 361 136 313 119 C257 138 233 157 233 187 L233 187 Z M215 1 C215 33 240 58 298 74 C375 48 393 31 393 5 C393 -34 358 -56 304 -56 C248 -56 215 -34 215 1 L215 1 Z " />
<glyph glyph-name="uni2089" unicode="&#x2089;" horiz-adv-x="620" d="M289 -103 C404 -103 465 -23 465 111 C465 210 417 280 311 280 C225 280 161 234 161 150 C161 86 205 39 285 39 C327 39 365 54 399 83 C393 -6 358 -49 282 -49 C249 -49 218 -41 194 -27 L173 -75 C203 -93 244 -103 289 -103 L289 -103 Z M300 88 C259 88 225 107 225 156 C225 201 258 231 310 231 C361 231 396 198 398 129 C365 101 334 88 300 88 L300 88 Z " />
<glyph glyph-name="uni2090" unicode="&#x2090;" horiz-adv-x="620" d="M279 -105 C333 -105 381 -80 402 -49 L406 -96 L463 -96 L463 102 C463 180 415 225 320 225 C265 225 217 209 172 176 L197 134 C233 161 276 174 315 174 C366 174 397 149 397 107 L397 81 C372 86 348 88 320 88 C216 88 160 43 160 -16 C160 -69 203 -105 279 -105 L279 -105 Z M292 -58 C250 -58 228 -40 228 -11 C228 22 254 45 322 45 C347 45 371 43 397 38 L397 28 C397 -27 340 -58 292 -58 L292 -58 Z " />
<glyph glyph-name="uni2091" unicode="&#x2091;" horiz-adv-x="620" d="M323 -105 C374 -105 421 -90 459 -59 L436 -18 C402 -43 367 -55 329 -55 C269 -55 230 -24 224 41 L465 41 C467 49 467 57 467 66 C467 160 412 225 318 225 C220 225 158 151 158 56 C158 -50 224 -105 323 -105 L323 -105 Z M315 177 C367 177 402 144 403 84 L225 84 C232 142 267 177 315 177 L315 177 Z " />
<glyph glyph-name="uni2092" unicode="&#x2092;" horiz-adv-x="620" d="M309 -105 C407 -105 470 -43 470 59 C470 164 407 225 309 225 C211 225 150 160 150 59 C150 -43 211 -105 309 -105 L309 -105 Z M309 -53 C254 -53 219 -13 219 59 C219 131 254 173 309 173 C364 173 401 133 401 59 C401 -13 364 -53 309 -53 L309 -53 Z " />
<glyph glyph-name="uni2093" unicode="&#x2093;" horiz-adv-x="620" d="M157 216 L273 60 L153 -96 L225 -96 L308 14 L390 -96 L466 -96 L349 60 L463 216 L392 216 L315 106 L232 216 L157 216 Z " />
<glyph glyph-name="uni2096" unicode="&#x2096;" horiz-adv-x="620" d="M182 328 L182 -96 L249 -96 L249 50 L294 50 L413 -96 L494 -96 L352 76 L482 216 L400 216 L297 103 L249 103 L249 328 L182 328 Z " />
<glyph glyph-name="uni2097" unicode="&#x2097;" horiz-adv-x="620" d="M167 -46 L167 -96 L479 -96 L479 -46 L356 -46 L356 328 L173 328 L173 278 L289 278 L289 -46 L167 -46 Z " />
<glyph glyph-name="uni2098" unicode="&#x2098;" horiz-adv-x="620" d="M138 216 L138 -96 L197 -96 L197 136 C210 161 231 175 248 175 C270 175 285 160 285 128 L285 -96 L341 -96 L341 138 L341 140 C355 163 374 175 390 175 C414 175 428 160 428 127 L428 -96 L487 -96 L487 133 C487 194 457 225 408 225 C378 225 353 211 332 183 C320 210 296 225 265 225 C238 225 209 210 194 184 L192 216 L138 216 Z " />
<glyph glyph-name="uni2099" unicode="&#x2099;" horiz-adv-x="620" d="M164 216 L164 -96 L231 -96 L231 120 C261 155 292 171 322 171 C365 171 389 149 389 95 L389 -96 L457 -96 L457 105 C457 178 421 225 339 225 C295 225 253 205 226 171 L223 216 L164 216 Z " />
<glyph glyph-name="uni209A" unicode="&#x209a;" horiz-adv-x="620" d="M170 216 L170 -210 L235 -210 L235 -66 C260 -90 297 -105 331 -105 C416 -105 473 -40 473 65 C473 164 423 225 336 225 C295 225 256 205 234 176 L231 216 L170 216 Z M323 -53 C294 -53 263 -41 237 -13 L237 126 C261 156 292 171 322 171 C373 171 403 137 403 63 C403 -18 367 -53 323 -53 L323 -53 Z " />
<glyph glyph-name="uni209B" unicode="&#x209b;" horiz-adv-x="620" d="M310 -105 C396 -105 448 -64 448 -7 C448 39 417 72 341 87 L306 94 C255 104 243 115 243 134 C243 159 268 175 310 175 C348 175 387 163 418 142 L450 183 C415 210 366 225 311 225 C230 225 177 181 177 128 C177 86 208 55 285 40 L321 33 C370 23 383 9 383 -13 C383 -39 356 -56 308 -56 C272 -56 225 -40 193 -15 L164 -56 C199 -86 256 -105 310 -105 L310 -105 Z " />
<glyph glyph-name="uni209C" unicode="&#x209c;" horiz-adv-x="620" d="M344 -96 L450 -96 L450 -46 L354 -46 C330 -46 316 -32 316 -7 L316 168 L455 168 L455 216 L316 216 L316 303 L260 303 L252 216 L152 208 L152 168 L249 168 L249 -12 C249 -69 279 -96 344 -96 L344 -96 Z " />
<glyph glyph-name="Euro" unicode="&#x20ac;" horiz-adv-x="620" d="M38 310 L33 256 L103 256 C126 99 210 -12 356 -12 C445 -12 510 17 577 83 L536 136 C474 80 429 60 367 60 C265 60 207 140 188 256 L440 256 L445 310 L181 310 C180 325 180 340 180 355 C180 366 180 377 181 387 L451 387 L456 441 L186 441 C202 561 257 645 365 645 C428 645 481 620 530 552 L579 600 C525 679 451 716 364 716 C214 716 125 600 102 441 L38 441 L33 387 L97 387 C96 376 96 364 96 353 C96 338 96 324 97 310 L38 310 Z " />
<glyph glyph-name="uni20BA" unicode="&#x20ba;" horiz-adv-x="620" d="M62 278 L62 219 L169 270 L169 0 L259 0 C446 0 557 108 557 288 L479 288 C479 153 388 73 259 73 L259 313 L437 398 L437 457 L259 372 L259 462 L437 546 L437 606 L259 521 L259 720 L169 720 L169 478 L62 427 L62 368 L169 419 L169 329 L62 278 Z " />
<glyph glyph-name="uni2116" unicode="&#x2116;" horiz-adv-x="620" d="M60 720 L60 0 L128 0 L128 527 L130 527 L254 0 L335 0 L335 720 L267 720 L267 194 L265 194 L141 720 L60 720 Z M390 367 L390 319 L591 319 L591 367 L390 367 Z M491 409 C572 409 604 478 604 572 C604 665 573 734 492 734 C408 734 378 661 378 572 C378 480 408 409 491 409 L491 409 Z M491 457 C448 457 438 512 438 572 C438 633 449 686 492 686 C534 686 545 633 545 572 C545 514 535 457 491 457 L491 457 Z " />
<glyph glyph-name="trademark" unicode="&#x2122;" horiz-adv-x="620" d="M288 720 L260 460 L311 460 L329 646 L331 646 L391 460 L439 460 L502 645 L504 645 L523 460 L574 460 L544 720 L483 720 L417 524 L415 524 L352 720 L288 720 Z M98 673 L98 460 L154 460 L154 673 L234 673 L234 720 L18 720 L18 673 L98 673 Z " />
<glyph glyph-name="uni2126" unicode="&#x2126;" horiz-adv-x="620" d="M73 72 L73 0 L274 0 L274 111 C212 144 139 230 139 392 C139 571 214 660 310 660 C406 660 481 571 481 392 C481 230 408 144 346 111 L346 0 L547 0 L547 72 L415 72 L417 93 C499 138 569 248 569 399 C569 616 461 733 309 733 C157 733 51 616 51 399 C51 248 121 138 203 93 L205 72 L73 72 Z " />
<glyph glyph-name="uni2150" unicode="&#x2150;" horiz-adv-x="620" d="M400 721 L123 0 L170 0 L447 721 L400 721 Z M123 652 L123 347 L185 347 L185 719 L142 719 L40 661 L50 619 L123 652 Z M397 6 L397 0 L459 0 L570 336 L570 370 L367 370 L367 321 L506 321 L397 6 Z " />
<glyph glyph-name="uni2151" unicode="&#x2151;" horiz-adv-x="620" d="M402 721 L125 0 L172 0 L449 721 L402 721 Z M123 652 L123 347 L185 347 L185 719 L142 719 L40 661 L50 619 L123 652 Z M451 -7 C537 -7 578 63 578 206 C578 322 549 380 465 380 C400 380 356 341 356 250 C356 180 383 135 446 135 C474 135 501 146 517 165 C513 84 491 42 444 42 C422 42 403 49 388 59 L370 16 C394 2 422 -7 451 -7 L451 -7 Z M461 180 C432 180 417 201 417 253 C417 317 436 334 466 334 C500 334 516 305 517 210 C504 195 485 180 461 180 L461 180 Z " />
<glyph glyph-name="uni2153" unicode="&#x2153;" horiz-adv-x="620" d="M406 721 L129 0 L176 0 L453 721 L406 721 Z M123 652 L123 347 L185 347 L185 719 L142 719 L40 661 L50 619 L123 652 Z M468 -7 C538 -7 580 34 580 100 C580 149 557 187 495 196 C538 209 564 241 564 288 C564 353 528 379 470 379 C430 379 396 366 369 344 L392 306 C413 321 434 330 457 330 C483 330 503 319 503 279 C503 238 474 213 421 212 L422 166 C427 166 439 167 446 167 C493 167 517 145 517 104 C517 61 493 43 459 43 C430 43 409 52 384 69 L362 29 C393 4 427 -7 468 -7 L468 -7 Z " />
<glyph glyph-name="uni2154" unicode="&#x2154;" horiz-adv-x="620" d="M41 383 L41 345 L245 345 L245 393 L112 393 L202 530 C227 568 241 604 241 639 C241 697 201 723 143 723 C100 723 60 703 31 677 L57 637 C80 658 109 672 134 672 C160 672 177 659 177 629 C177 599 159 567 140 538 L41 383 Z M436 722 L159 1 L206 1 L483 722 L436 722 Z M475 -7 C545 -7 587 34 587 100 C587 149 564 187 502 196 C545 209 571 241 571 288 C571 353 535 379 477 379 C437 379 404 366 376 344 L399 306 C420 321 441 330 464 330 C490 330 510 319 510 279 C510 238 481 213 428 212 L429 166 C434 166 446 167 453 167 C500 167 524 145 524 104 C524 61 501 43 466 43 C437 43 416 52 391 69 L369 29 C400 4 434 -7 475 -7 L475 -7 Z " />
<glyph glyph-name="uni2155" unicode="&#x2155;" horiz-adv-x="620" d="M406 721 L129 0 L176 0 L453 721 L406 721 Z M123 652 L123 347 L185 347 L185 719 L142 719 L40 661 L50 619 L123 652 Z M465 -7 C530 -7 581 35 581 123 C581 194 551 234 491 234 C466 234 445 226 433 216 L439 320 L558 320 L562 373 L390 373 L376 148 L427 148 L429 170 C440 180 455 189 475 189 C505 189 520 166 520 122 C520 64 491 42 456 42 C431 42 407 50 382 63 L364 22 C396 2 431 -7 465 -7 L465 -7 Z " />
<glyph glyph-name="uni2156" unicode="&#x2156;" horiz-adv-x="620" d="M436 722 L159 1 L206 1 L483 722 L436 722 Z M465 -7 C530 -7 581 35 581 123 C581 194 551 234 491 234 C466 234 445 226 433 216 L439 320 L558 320 L562 373 L390 373 L376 148 L427 148 L429 170 C440 180 455 189 475 189 C505 189 520 166 520 122 C520 64 491 42 456 42 C431 42 407 50 382 63 L364 22 C396 2 431 -7 465 -7 L465 -7 Z M41 383 L41 345 L245 345 L245 393 L112 393 L202 530 C227 568 241 604 241 639 C241 697 201 723 143 723 C100 723 60 703 31 677 L57 637 C80 658 109 672 134 672 C160 672 177 659 177 629 C177 599 159 567 140 538 L41 383 Z " />
<glyph glyph-name="uni2157" unicode="&#x2157;" horiz-adv-x="620" d="M436 721 L159 0 L206 0 L483 721 L436 721 Z M465 -7 C530 -7 581 35 581 123 C581 194 551 234 491 234 C466 234 445 226 433 216 L439 320 L558 320 L562 373 L390 373 L376 148 L427 148 L429 170 C440 180 455 189 475 189 C505 189 520 166 520 122 C520 64 491 42 456 42 C431 42 407 50 382 63 L364 22 C396 2 431 -7 465 -7 L465 -7 Z M138 337 C208 337 250 378 250 444 C250 493 227 531 165 539 C208 552 234 585 234 632 C234 696 198 723 140 723 C100 723 67 710 39 688 L62 649 C83 665 104 673 127 673 C154 673 173 662 173 623 C173 582 144 557 91 556 L92 510 C97 510 109 510 116 510 C163 510 187 489 187 447 C187 405 164 386 129 386 C100 386 79 395 54 413 L32 372 C63 348 97 337 138 337 L138 337 Z " />
<glyph glyph-name="uni2158" unicode="&#x2158;" horiz-adv-x="620" d="M438 721 L161 0 L208 0 L485 721 L438 721 Z M482 -7 C547 -7 598 35 598 123 C598 194 568 234 508 234 C482 234 462 226 449 216 L456 320 L575 320 L579 373 L407 373 L393 148 L444 148 L446 170 C457 180 471 189 492 189 C522 189 536 166 536 122 C536 64 508 42 473 42 C448 42 424 50 399 63 L380 22 C413 2 447 -7 482 -7 L482 -7 Z M173 427 L173 348 L232 348 L232 427 L269 427 L269 472 L232 472 L232 611 L173 611 L173 472 L80 472 L176 720 L119 720 L22 470 L22 427 L173 427 Z " />
<glyph glyph-name="uni2159" unicode="&#x2159;" horiz-adv-x="620" d="M123 652 L123 347 L185 347 L185 719 L142 719 L40 661 L50 619 L123 652 Z M403 721 L126 0 L173 0 L450 721 L403 721 Z M458 -7 C524 -7 568 30 568 121 C568 191 542 235 478 235 C450 235 423 221 406 206 C411 285 431 330 483 330 C502 330 518 324 536 313 L553 356 C529 371 502 380 475 380 C388 380 347 308 347 166 C347 44 374 -7 458 -7 L458 -7 Z M459 38 C424 38 407 66 407 163 C409 179 441 189 464 189 C491 189 508 170 508 117 C508 57 487 38 459 38 L459 38 Z " />
<glyph glyph-name="uni215A" unicode="&#x215a;" horiz-adv-x="620" d="M424 721 L147 0 L194 0 L471 721 L424 721 Z M464 38 C430 38 413 66 413 163 C415 179 447 189 470 189 C497 189 513 170 513 117 C513 57 493 38 464 38 L464 38 Z M464 -7 C530 -7 574 30 574 121 C574 191 548 235 484 235 C456 235 429 221 412 206 C417 285 436 330 489 330 C508 330 524 324 542 313 L559 356 C535 371 508 380 480 380 C393 380 352 308 352 166 C352 44 380 -7 464 -7 L464 -7 Z M139 340 C205 340 256 383 256 470 C256 541 226 582 166 582 C140 582 119 573 107 564 L113 668 L233 668 L236 720 L65 720 L51 495 L101 495 L103 517 C114 528 129 537 149 537 C180 537 194 513 194 469 C194 411 166 389 131 389 C105 389 82 397 56 410 L38 370 C71 349 105 340 139 340 L139 340 Z " />
<glyph glyph-name="oneeighth" unicode="&#x215b;" horiz-adv-x="620" d="M123 652 L123 347 L185 347 L185 719 L142 719 L40 661 L50 619 L123 652 Z M401 721 L124 0 L171 0 L448 721 L401 721 Z M457 -7 C533 -7 576 37 576 100 C576 148 554 176 507 200 C542 222 563 257 563 295 C563 344 531 379 462 379 C394 379 356 342 356 287 C356 249 378 216 414 196 C371 174 343 141 343 90 C343 31 383 -7 457 -7 L457 -7 Z M464 227 C434 245 414 260 414 291 C414 319 431 338 461 338 C490 338 506 321 506 294 C506 266 485 241 464 227 L464 227 Z M457 36 C420 36 401 59 401 91 C401 130 425 151 451 170 C485 154 512 135 512 98 C512 63 492 36 457 36 L457 36 Z " />
<glyph glyph-name="threeeighths" unicode="&#x215c;" horiz-adv-x="620" d="M432 721 L155 0 L202 0 L479 721 L432 721 Z M457 36 C420 36 401 59 401 91 C401 130 425 151 451 170 C485 154 512 135 512 98 C512 63 492 36 457 36 L457 36 Z M457 -7 C533 -7 576 37 576 100 C576 148 554 176 507 200 C542 222 563 257 563 295 C563 344 531 379 462 379 C394 379 356 342 356 287 C356 249 378 216 414 196 C371 174 343 141 343 90 C343 31 383 -7 457 -7 L457 -7 Z M138 337 C208 337 250 378 250 444 C250 493 227 531 165 539 C208 552 234 585 234 632 C234 696 198 723 140 723 C100 723 67 710 39 688 L62 649 C83 665 104 673 127 673 C154 673 173 662 173 623 C173 582 144 557 91 556 L92 510 C97 510 109 510 116 510 C163 510 187 489 187 447 C187 405 164 386 129 386 C100 386 79 395 54 413 L32 372 C63 348 97 337 138 337 L138 337 Z M464 227 C434 245 414 260 414 291 C414 319 431 338 461 338 C490 338 506 321 506 294 C506 266 485 241 464 227 L464 227 Z " />
<glyph glyph-name="fiveeighths" unicode="&#x215d;" horiz-adv-x="620" d="M410 721 L133 0 L180 0 L457 721 L410 721 Z M457 36 C420 36 401 59 401 91 C401 130 425 151 451 170 C485 154 512 135 512 98 C512 63 492 36 457 36 L457 36 Z M457 -7 C533 -7 576 37 576 100 C576 148 554 176 507 200 C542 222 563 257 563 295 C563 344 531 379 462 379 C394 379 356 342 356 287 C356 249 378 216 414 196 C371 174 343 141 343 90 C343 31 383 -7 457 -7 L457 -7 Z M139 340 C205 340 256 383 256 470 C256 541 226 582 166 582 C140 582 119 573 107 564 L113 668 L233 668 L236 720 L65 720 L51 495 L101 495 L103 517 C114 528 129 537 149 537 C180 537 194 513 194 469 C194 411 166 389 131 389 C105 389 82 397 56 410 L38 370 C71 349 105 340 139 340 L139 340 Z M464 227 C434 245 414 260 414 291 C414 319 431 338 461 338 C490 338 506 321 506 294 C506 266 485 241 464 227 L464 227 Z " />
<glyph glyph-name="seveneighths" unicode="&#x215e;" horiz-adv-x="620" d="M394 721 L117 0 L164 0 L441 721 L394 721 Z M457 36 C420 36 401 59 401 91 C401 130 425 151 451 170 C485 154 512 135 512 98 C512 63 492 36 457 36 L457 36 Z M457 -7 C533 -7 576 37 576 100 C576 148 554 176 507 200 C542 222 563 257 563 295 C563 344 531 379 462 379 C394 379 356 342 356 287 C356 249 378 216 414 196 C371 174 343 141 343 90 C343 31 383 -7 457 -7 L457 -7 Z M87 356 L87 350 L150 350 L261 686 L261 720 L57 720 L57 671 L197 671 L87 356 Z M464 227 C434 245 414 260 414 291 C414 319 431 338 461 338 C490 338 506 321 506 294 C506 266 485 241 464 227 L464 227 Z " />
<glyph glyph-name="arrowleft" unicode="&#x2190;" horiz-adv-x="620" d="M162 234 L565 234 L565 295 L162 295 L272 404 L233 442 L57 265 L233 84 L271 122 L162 234 Z " />
<glyph glyph-name="arrowup" unicode="&#x2191;" horiz-adv-x="620" d="M281 411 L281 8 L342 8 L342 411 L451 301 L489 340 L312 516 L131 340 L169 302 L281 411 Z " />
<glyph glyph-name="arrowright" unicode="&#x2192;" horiz-adv-x="620" d="M458 292 L55 292 L55 231 L458 231 L348 122 L387 84 L563 261 L387 442 L349 404 L458 292 Z " />
<glyph glyph-name="arrowdown" unicode="&#x2193;" horiz-adv-x="620" d="M169 220 L131 182 L312 6 L489 182 L451 221 L342 111 L342 514 L281 514 L281 111 L169 220 Z " />
<glyph glyph-name="arrowboth" unicode="&#x2194;" horiz-adv-x="620" d="M446 69 L621 248 L445 427 L403 389 L514 279 L107 279 L217 389 L176 427 L0 250 L175 69 L215 108 L107 218 L514 218 L405 108 L446 69 Z " />
<glyph glyph-name="arrowupdn" unicode="&#x2195;" horiz-adv-x="620" d="M131 92 L310 -83 L489 93 L451 135 L341 24 L341 431 L451 321 L489 362 L312 538 L131 363 L170 323 L280 431 L280 24 L170 133 L131 92 Z " />
<glyph glyph-name="uni2196" unicode="&#x2196;" horiz-adv-x="620" d="M180 341 L456 63 L498 106 L222 383 L375 383 L375 438 L122 438 L122 187 L180 187 L180 341 Z " />
<glyph glyph-name="uni2197" unicode="&#x2197;" horiz-adv-x="620" d="M440 187 L498 187 L498 438 L245 438 L245 383 L398 383 L122 106 L164 63 L440 341 L440 187 Z " />
<glyph glyph-name="uni2198" unicode="&#x2198;" horiz-adv-x="620" d="M440 146 L164 424 L122 381 L398 104 L245 104 L245 49 L498 49 L498 300 L440 300 L440 146 Z " />
<glyph glyph-name="uni2199" unicode="&#x2199;" horiz-adv-x="620" d="M180 300 L122 300 L122 49 L375 49 L375 104 L222 104 L498 381 L456 424 L180 146 L180 300 Z " />
<glyph glyph-name="uni21A9" unicode="&#x21a9;" horiz-adv-x="620" d="M7 209 L186 34 L367 210 L328 250 L216 139 L216 274 C216 382 280 453 387 453 C495 453 550 385 554 279 L614 279 C613 418 529 507 388 507 C249 507 156 423 156 274 L156 140 L46 251 L7 209 Z " />
<glyph glyph-name="uni21AA" unicode="&#x21aa;" horiz-adv-x="620" d="M575 251 L465 140 L465 274 C465 423 372 507 233 507 C92 507 8 418 7 279 L67 279 C71 385 126 453 234 453 C341 453 405 382 405 274 L405 139 L293 250 L254 210 L435 34 L614 209 L575 251 Z " />
<glyph glyph-name="arrowdblleft" unicode="&#x21d0;" horiz-adv-x="620" d="M205 450 L21 261 L204 76 L243 113 L178 177 L624 177 L624 228 L132 228 L97 263 L130 298 L624 298 L624 348 L177 348 L242 413 L205 450 Z " />
<glyph glyph-name="arrowdblup" unicode="&#x21d1;" horiz-adv-x="620" d="M160 395 L225 460 L225 13 L275 13 L275 507 L310 540 L345 505 L345 13 L396 13 L396 459 L460 394 L497 433 L312 616 L123 432 L160 395 Z " />
<glyph glyph-name="arrowdblright" unicode="&#x21d2;" horiz-adv-x="620" d="M445 76 L629 265 L446 450 L407 413 L472 349 L26 349 L26 298 L518 298 L553 263 L520 228 L26 228 L26 178 L473 178 L408 113 L445 76 Z " />
<glyph glyph-name="arrowdbldown" unicode="&#x21d3;" horiz-adv-x="620" d="M123 172 L312 -12 L497 171 L460 210 L396 145 L396 591 L345 591 L345 99 L310 64 L275 97 L275 591 L225 591 L225 144 L160 209 L123 172 Z " />
<glyph glyph-name="partialdiff" unicode="&#x2202;" horiz-adv-x="620" d="M263 -12 C487 -12 542 243 542 434 C542 616 469 701 335 701 C283 701 220 684 166 648 L188 589 C233 617 277 630 325 630 C423 630 462 559 462 430 C462 398 459 359 455 317 C441 402 368 442 300 442 C157 442 79 323 79 180 C79 62 148 -12 263 -12 L263 -12 Z M274 63 C212 63 163 103 163 188 C163 275 208 375 310 375 C381 375 430 320 430 234 C430 159 377 63 274 63 L274 63 Z " />
<glyph glyph-name="uni2206" unicode="&#x2206;" horiz-adv-x="620" d="M260 720 L80 0 L542 0 L362 720 L260 720 Z M442 66 L179 66 L310 621 L442 66 Z " />
<glyph glyph-name="product" unicode="&#x220f;" horiz-adv-x="620" d="M65 720 L65 -140 L157 -140 L157 642 L462 642 L462 -140 L555 -140 L555 720 L65 720 Z " />
<glyph glyph-name="summation" unicode="&#x2211;" horiz-adv-x="620" d="M69 -82 L69 -119 L555 -119 L555 -38 L194 -38 L403 315 L198 639 L521 639 L521 720 L69 720 L69 683 L299 315 L69 -82 Z " />
<glyph glyph-name="minus" unicode="&#x2212;" horiz-adv-x="620" d="M80 331 L80 268 L540 268 L540 331 L80 331 Z " />
<glyph glyph-name="uni2215" unicode="&#x2215;" horiz-adv-x="620" d="M493 720 L55 -1 L129 -1 L566 720 L493 720 Z " />
<glyph glyph-name="uni2219" unicode="&#x2219;" horiz-adv-x="620" d="M308 282 C344 282 369 305 369 340 C369 376 344 398 308 398 C272 398 248 376 248 339 C248 305 271 282 308 282 L308 282 Z " />
<glyph glyph-name="radical" unicode="&#x221a;" horiz-adv-x="620" d="M160 254 L239 -166 L335 -166 L585 824 L508 824 L288 -66 L224 313 L37 313 L37 254 L160 254 Z " />
<glyph glyph-name="infinity" unicode="&#x221e;" horiz-adv-x="620" d="M146 166 C201 166 242 185 311 259 C379 187 420 167 474 167 C553 167 602 225 602 304 C602 383 553 440 474 440 C420 440 378 420 310 348 C241 420 201 440 146 440 C67 440 19 381 19 302 C19 224 67 166 146 166 L146 166 Z M147 222 C110 222 81 253 81 303 C81 354 110 385 147 385 C188 385 217 369 278 303 C217 237 188 222 147 222 L147 222 Z M473 222 C432 222 404 237 342 303 C404 369 432 385 473 385 C511 385 540 354 540 303 C540 253 511 222 473 222 L473 222 Z " />
<glyph glyph-name="integral" unicode="&#x222b;" horiz-adv-x="620" d="M61 -133 L61 -200 L197 -200 C317 -200 347 -131 347 -30 L347 608 C347 682 366 723 422 723 L554 723 L554 790 L408 790 C307 790 266 723 266 628 L266 -29 C266 -107 239 -133 189 -133 L61 -133 Z " />
<glyph glyph-name="approxequal" unicode="&#x2248;" horiz-adv-x="620" d="M60 359 L93 305 C159 355 187 371 218 371 C237 371 250 367 284 348 L316 332 C353 312 374 307 403 307 C445 307 492 328 560 382 L527 436 C461 386 433 370 402 370 C383 370 369 374 336 393 L304 410 C267 430 246 435 217 435 C175 435 128 413 60 359 L60 359 Z M60 170 L93 116 C159 166 187 182 218 182 C237 182 250 178 284 159 L316 143 C353 123 374 118 403 118 C445 118 492 139 560 193 L527 247 C461 197 433 181 402 181 C383 181 369 185 336 204 L304 221 C267 241 246 246 217 246 C175 246 128 224 60 170 L60 170 Z " />
<glyph glyph-name="notequal" unicode="&#x2260;" horiz-adv-x="620" d="M80 232 L80 171 L210 171 L145 64 L213 64 L278 171 L540 171 L540 232 L315 232 L376 333 L540 333 L540 395 L413 395 L484 512 L417 512 L346 395 L80 395 L80 333 L308 333 L247 232 L80 232 Z " />
<glyph glyph-name="lessequal" unicode="&#x2264;" horiz-adv-x="620" d="M71 310 L511 130 L534 189 L179 332 L535 474 L511 534 L71 353 L71 310 Z M80 63 L80 0 L540 0 L540 63 L80 63 Z " />
<glyph glyph-name="greaterequal" unicode="&#x2265;" horiz-adv-x="620" d="M80 63 L80 0 L540 0 L540 63 L80 63 Z M549 353 L109 534 L85 474 L441 332 L86 189 L109 130 L549 310 L549 353 Z " />
<glyph glyph-name="filledbox" unicode="&#x25a0;" horiz-adv-x="620" d="M135 500 L135 151 L484 151 L484 500 L135 500 Z " />
<glyph glyph-name="uni25A1" unicode="&#x25a1;" horiz-adv-x="620" d="M135 500 L135 151 L484 151 L484 500 L135 500 Z M432 203 L187 203 L187 448 L432 448 L432 203 Z " />
<glyph glyph-name="uni25B4" unicode="&#x25b4;" horiz-adv-x="620" d="M152 199 L447 199 L298 435 L152 199 Z " />
<glyph glyph-name="uni25B6" unicode="&#x25b6;" horiz-adv-x="620" d="M150 441 L150 74 L530 259 L150 441 Z " />
<glyph glyph-name="uni25B7" unicode="&#x25b7;" horiz-adv-x="620" d="M123 465 L123 50 L548 259 L548 261 L123 465 Z M428 259 L178 136 L178 378 L428 259 Z " />
<glyph glyph-name="uni25B8" unicode="&#x25b8;" horiz-adv-x="620" d="M233 442 L233 147 L469 296 L233 442 Z " />
<glyph glyph-name="uni25BE" unicode="&#x25be;" horiz-adv-x="620" d="M308 186 L457 422 L162 422 L308 186 Z " />
<glyph glyph-name="uni25C0" unicode="&#x25c0;" horiz-adv-x="620" d="M90 259 L470 74 L470 441 L90 259 Z " />
<glyph glyph-name="uni25C1" unicode="&#x25c1;" horiz-adv-x="620" d="M442 378 L442 136 L192 259 L442 378 Z M72 261 L72 259 L497 50 L497 465 L72 261 Z " />
<glyph glyph-name="uni25C2" unicode="&#x25c2;" horiz-adv-x="620" d="M151 296 L387 147 L387 442 L151 296 Z " />
<glyph glyph-name="uni25C6" unicode="&#x25c6;" horiz-adv-x="620" d="M100 326 L309 116 L519 325 L310 535 L100 326 Z " />
<glyph glyph-name="lozenge" unicode="&#x25ca;" horiz-adv-x="620" d="M81 352 L272 0 L340 0 L540 354 L340 700 L272 700 L81 352 Z M458 352 L307 78 L161 352 L307 621 L458 352 Z " />
<glyph glyph-name="circle" unicode="&#x25cb;" horiz-adv-x="620" d="M310 119 C423 119 515 211 515 324 C515 437 423 529 310 529 C197 529 105 437 105 324 C105 211 197 119 310 119 L310 119 Z M310 173 C228 173 166 242 166 324 C166 405 228 474 310 474 C391 474 455 408 455 327 C455 245 391 173 310 173 L310 173 Z " />
<glyph glyph-name="uni25CF" unicode="&#x25cf;" horiz-adv-x="620" d="M310 119 C423 119 515 211 515 324 C515 437 423 529 310 529 C197 529 105 437 105 324 C105 211 197 119 310 119 L310 119 Z " />
<glyph glyph-name="fi" unicode="&#xfb01;" horiz-adv-x="620" d="M101 456 L101 0 L189 0 L189 456 L323 456 L323 525 L189 525 L189 573 C189 622 214 648 261 648 L410 648 L410 720 L246 720 C152 720 101 671 101 581 L101 525 L9 511 L9 456 L101 456 Z M449 525 L449 0 L537 0 L537 525 L449 525 Z " />
<glyph glyph-name="fl" unicode="&#xfb02;" horiz-adv-x="620" d="M101 456 L101 0 L189 0 L189 456 L323 456 L323 525 L189 525 L189 573 C189 622 214 648 261 648 L449 648 L449 0 L537 0 L537 720 L246 720 C152 720 101 671 101 581 L101 525 L9 511 L9 456 L101 456 Z " />
</font>
</svg>
