<svg width="17" height="25" viewBox="0 0 17 25" fill="none" xmlns="http://www.w3.org/2000/svg">
<path d="M2.59277 24.9175H14.397C16.0327 24.9175 16.8384 24.1118 16.8384 22.3418V13.2231C16.8384 11.624 16.167 10.7939 14.8242 10.6597V7.64453C14.8242 3.00586 11.7358 0.771973 8.48877 0.771973C5.25391 0.771973 2.16553 3.00586 2.16553 7.64453V10.7085C0.908203 10.9038 0.151367 11.7095 0.151367 13.2231V22.3418C0.151367 24.1118 0.957031 24.9175 2.59277 24.9175ZM4.48486 7.4126C4.48486 4.54395 6.30371 2.99365 8.48877 2.99365C10.6738 2.99365 12.5049 4.54395 12.5049 7.4126V10.6475L4.48486 10.6597V7.4126Z" fill="#333333"/>
</svg>
